<?xml version="1.0" encoding="utf-8"?>
<!-- Generator: Adobe Illustrator 19.1.0, SVG Export Plug-In . SVG Version: 6.00 Build 0)  -->
<svg version="1.1" id="Layer_1" xmlns="http://www.w3.org/2000/svg" xmlns:xlink="http://www.w3.org/1999/xlink" x="0px" y="0px"
	 viewBox="-573.2 480.5 40 41" style="enable-background:new -573.2 480.5 40 41;" xml:space="preserve">
<style type="text/css">
	.st0{fill:#FFFFFF;}
	.st1{fill:#888888;}
	.st2{fill:#888888;}
</style>
<g>
	<rect x="-572.5" y="484.1" class="st0" width="38.5" height="33.9"/>
	<g transform="translate(6.336634, 5.702970)">
		<path class="st1" d="M-572.2,502.4c-2.8-3-4.5-7.1-4.5-12.1c0-4.4,1.4-8.1,3.7-11l0,0h-5v23.1H-572.2L-572.2,502.4L-572.2,502.4z"
			/>
		<path class="st1" d="M-546,502.4c1.2-1.3,2.3-2.9,3.3-4.6l-5.5-2.8c-1.9,3.1-4.7,6-8.6,6c-5.7,0-7.9-4.9-7.9-11.1h21.3
			c0-0.7,0-1,0-1.4c0.2-3.7-0.8-6.9-2.6-9.3l0,0h4.7v23.1H-546L-546,502.4L-546,502.4z"/>
		<path class="st1" d="M-564.4,484.6c0.3-2.8,2.5-4.7,5.1-4.7s4.6,1.9,4.6,4.7H-564.4L-564.4,484.6z"/>
	</g>
	<g transform="translate(6.336634, 178.059406)">
		<path class="st2" d="M-574.8,333.9V333h-3v5.7h3v-0.9h-1.9v-1.5h1.8v-0.9h-1.8V334L-574.8,333.9L-574.8,333.9z"/>
		<path class="st2" d="M-569.8,336.3c0.8-0.1,1.1-0.8,1.2-1.6c0-1.2-0.8-1.7-1.9-1.7h-1.5v5.7h1.1v-2.3l1.4,2.3h1.4L-569.8,336.3
			L-569.8,336.3z M-571,333.9h0.2c0.6,0,1,0.2,1,0.9c0,0.7-0.4,0.8-1,0.8h-0.2V333.9L-571,333.9z"/>
		<path class="st2" d="M-564.8,333h-1.1v5.7h2.7v-0.9h-1.6V333L-564.8,333z"/>
		<path class="st2" d="M-557.7,337.6l0.5,1.2h1.2l-2.1-5.8h-0.9l-2.3,5.8h1.2l0.5-1.2H-557.7L-557.7,337.6z M-557.9,336.6h-1.4
			l0.6-2.1L-557.9,336.6L-557.9,336.6z"/>
		<path class="st2" d="M-553.9,338.7h1.2v-3.8l3,4h0.8V333h-1.2v3.8l-3-4h-0.8V338.7L-553.9,338.7z"/>
		<path class="st2" d="M-544.1,335.7v0.9h1.3c0,0.7-0.6,1.4-1.3,1.3c-1.1,0-1.6-1-1.6-2c0-0.9,0.5-2,1.6-2c0.6,0,1.1,0.4,1.3,0.9
			l0.9-0.5c-0.4-0.9-1.3-1.4-2.3-1.4c-1.7,0-2.8,1.4-2.8,3c0,1.6,1.1,3,2.7,3c1.8,0,2.6-1.4,2.6-3v-0.2L-544.1,335.7L-544.1,335.7
			L-544.1,335.7z"/>
	</g>
</g>
</svg>
