<?xml version="1.0" encoding="utf-8"?>
<!-- Generator: Adobe Illustrator 19.1.0, SVG Export Plug-In . SVG Version: 6.00 Build 0)  -->
<svg version="1.1" id="Layer_1" xmlns="http://www.w3.org/2000/svg" xmlns:xlink="http://www.w3.org/1999/xlink" x="0px" y="0px"
	 viewBox="-582.8 480.5 40 41" style="enable-background:new -582.8 480.5 40 41;" xml:space="preserve">
<style type="text/css">
	.st0{fill:#8EC74E;}
</style>
<g>
	<path class="st0" d="M-564.5,481.5c1-0.6,2.3-0.6,3.3,0c5,2.8,10,5.6,15,8.4c0.9,0.5,1.6,1.6,1.6,2.7v16.9c0,1.1-0.7,2.2-1.7,2.7
		c-5,2.8-9.9,5.6-14.9,8.4c-1,0.6-2.3,0.5-3.3-0.1c-1.5-0.9-3-1.7-4.5-2.6c-0.3-0.2-0.6-0.3-0.9-0.6c0.2-0.3,0.5-0.3,0.8-0.4
		c0.6-0.2,1.2-0.5,1.8-0.8c0.1-0.1,0.3-0.1,0.5,0c1.3,0.7,2.5,1.5,3.8,2.2c0.3,0.2,0.5-0.1,0.8-0.2c4.9-2.8,9.8-5.5,14.6-8.3
		c0.2-0.1,0.3-0.3,0.3-0.5c0-5.6,0-11.2,0-16.8c0-0.2-0.1-0.4-0.3-0.5c-5-2.8-9.9-5.6-14.9-8.4c-0.2-0.1-0.4-0.1-0.6,0
		c-5,3-9.9,5.8-14.9,8.6c-0.2,0.1-0.3,0.3-0.3,0.5c0,5.6,0,11.2,0,16.8c0,0.2,0.1,0.4,0.3,0.5c1.3,0.7,2.6,1.5,4,2.2
		c0.7,0.4,1.7,0.6,2.5,0.3c0.7-0.3,1.2-1,1.2-1.8c0-5.6,0-11.1,0-16.7c0-0.2,0.2-0.5,0.5-0.4c0.6,0,1.3,0,1.9,0
		c0.3,0,0.4,0.3,0.4,0.5c0,5.6,0,11.2,0,16.8c0,1.5-0.6,3.1-2,3.8c-1.7,0.9-3.8,0.7-5.5-0.2c-1.5-0.7-2.8-1.6-4.3-2.4
		c-1-0.5-1.7-1.6-1.7-2.7v-16.8c0-1.1,0.6-2.2,1.6-2.7C-574.4,487.1-569.5,484.3-564.5,481.5L-564.5,481.5z"/>
	<path class="st0" d="M-560.2,493.3c2.2-0.1,4.5-0.1,6.4,1c1.5,0.8,2.3,2.5,2.4,4.2c0,0.2-0.3,0.4-0.5,0.3c-0.6,0-1.3,0-1.9,0
		c-0.3,0-0.4-0.2-0.5-0.5c-0.2-0.8-0.6-1.6-1.4-2c-1.2-0.6-2.5-0.6-3.8-0.5c-0.9,0-1.9,0.1-2.7,0.7c-0.6,0.4-0.8,1.2-0.6,1.9
		c0.2,0.5,0.8,0.6,1.2,0.8c2.6,0.7,5.4,0.6,7.9,1.5c1.1,0.4,2.1,1.1,2.5,2.2c0.5,1.5,0.3,3.3-0.8,4.5c-0.9,1-2.1,1.5-3.4,1.8
		c-1.7,0.4-3.4,0.4-5.1,0.2c-1.6-0.2-3.2-0.6-4.5-1.7c-1-0.9-1.6-2.3-1.5-3.7c0-0.2,0.2-0.4,0.5-0.4c0.6,0,1.3,0,1.9,0
		c0.3,0,0.4,0.2,0.5,0.4c0.1,0.8,0.4,1.6,1.1,2c1.3,0.8,2.9,0.8,4.4,0.8c1.2-0.1,2.6-0.1,3.6-0.9c0.5-0.5,0.7-1.2,0.5-1.9
		c-0.2-0.6-0.7-0.8-1.2-1c-2.6-0.8-5.4-0.5-7.9-1.4c-1-0.4-2-1.1-2.4-2.1c-0.6-1.5-0.3-3.4,0.9-4.5S-561.8,493.4-560.2,493.3
		L-560.2,493.3z"/>
</g>
</svg>
