<?xml version="1.0" encoding="utf-8"?>
<!-- Generator: Adobe Illustrator 19.1.0, SVG Export Plug-In . SVG Version: 6.00 Build 0)  -->
<svg version="1.1" id="Layer_1" xmlns="http://www.w3.org/2000/svg" xmlns:xlink="http://www.w3.org/1999/xlink" x="0px" y="0px"
	 viewBox="-363 480 40 41" style="enable-background:new -363 480 40 41;" xml:space="preserve">
<style type="text/css">
	.st0{fill:#6181B6;}
	.st1{fill:#FFFFFF;}
</style>
<g>
	<ellipse class="st0" cx="-343" cy="500.5" rx="17.9" ry="9.1"/>
	<path class="st1" d="M-350.7,497.7c0.8,0,1.4,0.1,1.6,0.5c0.3,0.3,0.3,0.8,0.2,1.5c-0.1,0.8-0.4,1.3-0.9,1.6s-1.1,0.5-1.9,0.5h-1.3
		l0.8-4.1H-350.7z M-356,506h2.1l0.5-2.6h1.8c0.8,0,1.5-0.1,2-0.3c0.5-0.2,1-0.5,1.4-0.9c0.4-0.3,0.7-0.7,0.9-1.1
		c0.2-0.4,0.4-0.8,0.5-1.3c0.2-1.2,0.1-2.1-0.5-2.7s-1.5-1-2.7-1h-4.1L-356,506z"/>
	<path class="st1" d="M-345.1,493.6h2.1l-0.5,2.6h1.9c1.2,0,2,0.2,2.5,0.6s0.6,1.1,0.4,2l-0.9,4.6h-2.2l0.8-4.4
		c0.1-0.5,0.1-0.8-0.1-1c-0.2-0.2-0.5-0.3-1.1-0.3h-1.7l-1.1,5.6h-2.1L-345.1,493.6z"/>
	<path class="st1" d="M-334,497.7c0.8,0,1.4,0.1,1.6,0.5c0.3,0.3,0.3,0.8,0.2,1.5c-0.1,0.8-0.4,1.3-0.9,1.6s-1.1,0.5-1.9,0.5h-1.3
		l0.8-4.1H-334z M-339.3,506h2.1l0.5-2.6h1.8c0.8,0,1.5-0.1,2-0.3s1-0.5,1.4-0.9c0.4-0.3,0.7-0.7,0.9-1.1c0.2-0.4,0.4-0.8,0.5-1.3
		c0.2-1.2,0.1-2.1-0.5-2.7s-1.5-1-2.7-1h-4.1L-339.3,506z"/>
</g>
</svg>
