<?xml version="1.0" encoding="utf-8"?>
<!-- Generator: Adobe Illustrator 19.1.0, SVG Export Plug-In . SVG Version: 6.00 Build 0)  -->
<svg version="1.1" id="Layer_1" xmlns="http://www.w3.org/2000/svg" xmlns:xlink="http://www.w3.org/1999/xlink" x="0px" y="0px"
	 viewBox="-579 480.5 40 41" style="enable-background:new -579 480.5 40 41;" xml:space="preserve">
<style type="text/css">
	.st0{fill:url(#SVGID_1_);}
	.st1{fill:url(#SVGID_2_);}
	.st2{fill:url(#SVGID_3_);}
	.st3{fill:url(#SVGID_4_);}
	.st4{fill:url(#SVGID_5_);}
	.st5{fill:url(#SVGID_6_);}
	.st6{fill:url(#SVGID_7_);}
	.st7{fill:url(#SVGID_8_);}
	.st8{fill:#FFFFFF;}
	.st9{fill:url(#SVGID_9_);}
	.st10{fill:url(#SVGID_10_);}
	.st11{fill:url(#SVGID_11_);}
	.st12{fill:url(#SVGID_12_);}
	.st13{fill:#9E1D20;}
	.st14{fill:url(#SVGID_13_);}
	.st15{fill:url(#SVGID_14_);}
	.st16{fill:url(#SVGID_15_);}
	.st17{fill:url(#SVGID_16_);}
</style>
<g>
	
		<linearGradient id="SVGID_1_" gradientUnits="userSpaceOnUse" x1="-1083.2438" y1="194.6962" x2="-1083.2854" y2="194.6224" gradientTransform="matrix(202.9347 0 0 202.7803 219283.9531 -38955.9414)">
		<stop  offset="0" style="stop-color:#F37657"/>
		<stop  offset="0" style="stop-color:#F37657"/>
		<stop  offset="0.41" style="stop-color:#E32F26"/>
		<stop  offset="0.99" style="stop-color:#991B1E"/>
		<stop  offset="1" style="stop-color:#991B1E"/>
	</linearGradient>
	<path class="st0" d="M-548,507.4l-22.9,13.6l29.7-2l2.3-29.9L-548,507.4z"/>
	
		<linearGradient id="SVGID_2_" gradientUnits="userSpaceOnUse" x1="-1079.5942" y1="195.6111" x2="-1079.775" y2="195.5457" gradientTransform="matrix(60.3079 0 0 111.7781 64568.4609 -21352.959)">
		<stop  offset="0" style="stop-color:#861719"/>
		<stop  offset="0" style="stop-color:#861719"/>
		<stop  offset="0.99" style="stop-color:#911A1D"/>
		<stop  offset="1" style="stop-color:#911A1D"/>
	</linearGradient>
	<path class="st1" d="M-541.2,519l-2.5-17.6l-6.9,9.2L-541.2,519z"/>
	
		<linearGradient id="SVGID_3_" gradientUnits="userSpaceOnUse" x1="-1083.084" y1="203.9348" x2="-1083.142" y2="203.6019" gradientTransform="matrix(188.3195 0 0 21.9864 203417.4844 -3958.6975)">
		<stop  offset="0" style="stop-color:#861719"/>
		<stop  offset="0" style="stop-color:#861719"/>
		<stop  offset="0.99" style="stop-color:#911A1D"/>
		<stop  offset="1" style="stop-color:#911A1D"/>
	</linearGradient>
	<path class="st2" d="M-541.2,519l-18.7-1.5l-10.9,3.5L-541.2,519z"/>
	
		<linearGradient id="SVGID_4_" gradientUnits="userSpaceOnUse" x1="-1078.0333" y1="195.7332" x2="-1078.0074" y2="195.8464" gradientTransform="matrix(65.2221 0 0 97.0999 69740.3906 -18498.8965)">
		<stop  offset="0" style="stop-color:#FFFFFF"/>
		<stop  offset="0" style="stop-color:#FFFFFF"/>
		<stop  offset="0.23" style="stop-color:#E57353"/>
		<stop  offset="0.46" style="stop-color:#DE3E26"/>
		<stop  offset="0.99" style="stop-color:#A51E22"/>
		<stop  offset="1" style="stop-color:#A51E22"/>
	</linearGradient>
	<path class="st3" d="M-570.8,521l4.7-15.3l-10.3,2.2L-570.8,521z"/>
	
		<linearGradient id="SVGID_5_" gradientUnits="userSpaceOnUse" x1="-1081.3754" y1="196.0579" x2="-1081.3695" y2="196.1628" gradientTransform="matrix(105.3202 0 0 106.8253 113331.0938 -20447.3828)">
		<stop  offset="0" style="stop-color:#FFFFFF"/>
		<stop  offset="0" style="stop-color:#FFFFFF"/>
		<stop  offset="0.23" style="stop-color:#E3714E"/>
		<stop  offset="0.56" style="stop-color:#BD2026"/>
		<stop  offset="0.99" style="stop-color:#A71E22"/>
		<stop  offset="1" style="stop-color:#A71E22"/>
	</linearGradient>
	<path class="st4" d="M-550.7,510.6l-4.3-16.8l-12.3,11.5L-550.7,510.6z"/>
	
		<linearGradient id="SVGID_6_" gradientUnits="userSpaceOnUse" x1="-1081.6079" y1="198.9043" x2="-1081.5881" y2="199.0253" gradientTransform="matrix(94.3212 0 0 66.4185 101469.2734 -12724.7617)">
		<stop  offset="0" style="stop-color:#FFFFFF"/>
		<stop  offset="0" style="stop-color:#FFFFFF"/>
		<stop  offset="0.18" style="stop-color:#E46342"/>
		<stop  offset="0.4" style="stop-color:#C72A27"/>
		<stop  offset="0.99" style="stop-color:#A71E22"/>
		<stop  offset="1" style="stop-color:#A71E22"/>
	</linearGradient>
	<path class="st5" d="M-540,494l-11.6-9.5l-3.2,10.5L-540,494z"/>
	
		<linearGradient id="SVGID_7_" gradientUnits="userSpaceOnUse" x1="-1080.1837" y1="210.6533" x2="-1080.0701" y2="210.4879" gradientTransform="matrix(70.7666 0 0 24.3007 75886.0859 -4635.6523)">
		<stop  offset="0" style="stop-color:#FFFFFF"/>
		<stop  offset="0" style="stop-color:#FFFFFF"/>
		<stop  offset="0.54" style="stop-color:#C82527"/>
		<stop  offset="0.99" style="stop-color:#BE2026"/>
		<stop  offset="1" style="stop-color:#BE2026"/>
	</linearGradient>
	<path class="st6" d="M-545.4,481.2l-6.8,3.8l-4.3-3.8H-545.4z"/>
	
		<linearGradient id="SVGID_8_" gradientUnits="userSpaceOnUse" x1="-1057.7432" y1="197.1167" x2="-1057.7068" y2="197.2078" gradientTransform="matrix(18.1773 0 0 72.6448 18648.6738 -13815.5215)">
		<stop  offset="0" style="stop-color:#FFFFFF"/>
		<stop  offset="0" style="stop-color:#FFFFFF"/>
		<stop  offset="0.31" style="stop-color:#DD4326"/>
		<stop  offset="0.99" style="stop-color:#BE2026"/>
		<stop  offset="1" style="stop-color:#BE2026"/>
	</linearGradient>
	<path class="st7" d="M-579,513l2.9-5.2l-2.3-6.2L-579,513z"/>
	<path class="st8" d="M-578.7,501.4l2.3,6.6l10.1-2.3l11.6-10.7l3.3-10.4l-5.2-3.6l-8.7,3.3c-2.8,2.5-8.1,7.6-8.3,7.7
		C-573.8,492.1-577,498.4-578.7,501.4L-578.7,501.4z"/>
	
		<linearGradient id="SVGID_9_" gradientUnits="userSpaceOnUse" x1="-1082.5343" y1="195.5056" x2="-1082.3378" y2="195.3032" gradientTransform="matrix(158.1624 0 0 157.9374 170633.4219 -30365.2129)">
		<stop  offset="0" style="stop-color:#BD2025"/>
		<stop  offset="0" style="stop-color:#BD2025"/>
		<stop  offset="7.000000e-02" style="stop-color:#FFFFFF"/>
		<stop  offset="0.17" style="stop-color:#FFFFFF"/>
		<stop  offset="0.27" style="stop-color:#C83227"/>
		<stop  offset="0.33" style="stop-color:#811517"/>
		<stop  offset="0.46" style="stop-color:#A21D21"/>
		<stop  offset="0.72" style="stop-color:#B21F24"/>
		<stop  offset="0.99" style="stop-color:#E62C25"/>
		<stop  offset="1" style="stop-color:#E62C25"/>
	</linearGradient>
	<path class="st9" d="M-570.5,489.5c6-5.9,13.6-9.4,16.6-6.4c2.9,3-0.2,10.2-6.1,16.1c-5.9,5.9-13.6,9.6-16.6,6.6
		C-579.5,502.8-576.5,495.4-570.5,489.5L-570.5,489.5z"/>
	
		<linearGradient id="SVGID_10_" gradientUnits="userSpaceOnUse" x1="-1081.9286" y1="195.8177" x2="-1082.0022" y2="195.794" gradientTransform="matrix(127.0738 0 0 97.4086 136925.7656 -18558.6523)">
		<stop  offset="0" style="stop-color:#8B181B"/>
		<stop  offset="0" style="stop-color:#8B181B"/>
		<stop  offset="0.54" style="stop-color:#991B1F"/>
		<stop  offset="0.99" style="stop-color:#A71E22"/>
		<stop  offset="1" style="stop-color:#A71E22"/>
	</linearGradient>
	<path class="st10" d="M-570.8,521l4.6-15.3l15.4,4.9C-556.4,515.8-562.5,520.2-570.8,521L-570.8,521z"/>
	
		<linearGradient id="SVGID_11_" gradientUnits="userSpaceOnUse" x1="-1081.5344" y1="196.1621" x2="-1081.6229" y2="196.0915" gradientTransform="matrix(94.0112 0 0 105.6032 101133.4453 -20210.9492)">
		<stop  offset="0" style="stop-color:#7E1416"/>
		<stop  offset="0" style="stop-color:#7E1416"/>
		<stop  offset="0.99" style="stop-color:#9E1C20"/>
		<stop  offset="1" style="stop-color:#9E1C20"/>
	</linearGradient>
	<path class="st11" d="M-554.7,494.9l3.9,15.6c4.7-4.8,8.9-10.1,10.9-16.5L-554.7,494.9L-554.7,494.9z"/>
	
		<linearGradient id="SVGID_12_" gradientUnits="userSpaceOnUse" x1="-1081.006" y1="198.0322" x2="-1081.058" y2="197.978" gradientTransform="matrix(79.7019 0 0 81.7914 85618.3984 -15706.6826)">
		<stop  offset="0" style="stop-color:#791715"/>
		<stop  offset="0" style="stop-color:#791715"/>
		<stop  offset="0.99" style="stop-color:#9E1D20"/>
		<stop  offset="1" style="stop-color:#9E1D20"/>
	</linearGradient>
	<path class="st12" d="M-539.9,494c1.6-4.8,1.9-11.6-5.5-12.9l-6.1,3.4L-539.9,494L-539.9,494z"/>
	<path class="st13" d="M-579,512.9c0.2,7.9,5.9,8,8.3,8.1l-5.6-13L-579,512.9L-579,512.9z"/>
	
		<radialGradient id="SVGID_13_" cx="-1081.5717" cy="200.2035" r="0.1095" gradientTransform="matrix(93.1133 0 0 48.6553 100158.7734 -9243.8955)" gradientUnits="userSpaceOnUse">
		<stop  offset="0" style="stop-color:#A71E22"/>
		<stop  offset="0" style="stop-color:#A71E22"/>
		<stop  offset="0.99" style="stop-color:#7E1416"/>
		<stop  offset="1" style="stop-color:#7E1416"/>
	</radialGradient>
	<path class="st14" d="M-554.7,495c3.6,2.2,10.8,6.6,10.9,6.7c0.2,0.1,3.1-4.8,3.8-7.7L-554.7,495L-554.7,495z"/>
	
		<radialGradient id="SVGID_14_" cx="-1081.1472" cy="196.6713" r="0.1391" gradientTransform="matrix(97.4344 0 0 75.848 104776.8906 -14406.5938)" gradientUnits="userSpaceOnUse">
		<stop  offset="0" style="stop-color:#A21D21"/>
		<stop  offset="0" style="stop-color:#A21D21"/>
		<stop  offset="0.99" style="stop-color:#811517"/>
		<stop  offset="1" style="stop-color:#811517"/>
	</radialGradient>
	<path class="st15" d="M-566.2,505.6l6.2,11.9c3.7-2,6.5-4.4,9.1-7L-566.2,505.6L-566.2,505.6z"/>
	
		<linearGradient id="SVGID_15_" gradientUnits="userSpaceOnUse" x1="-1073.191" y1="196.3506" x2="-1073.2753" y2="196.2094" gradientTransform="matrix(40.1367 0 0 81.143 42500.6758 -15411.4717)">
		<stop  offset="0" style="stop-color:#8C231C"/>
		<stop  offset="0" style="stop-color:#8C231C"/>
		<stop  offset="0.43" style="stop-color:#9E1D20"/>
		<stop  offset="0.99" style="stop-color:#B22024"/>
		<stop  offset="1" style="stop-color:#B22024"/>
	</linearGradient>
	<path class="st16" d="M-576.4,508l-0.9,10.4c1.7,2.3,3.9,2.5,6.3,2.3C-572.7,516.4-576,507.8-576.4,508L-576.4,508z"/>
	
		<linearGradient id="SVGID_16_" gradientUnits="userSpaceOnUse" x1="-1081.0092" y1="206.0201" x2="-1080.9121" y2="206.1225" gradientTransform="matrix(78.0993 0 0 32.6239 83878.2891 -6238.1729)">
		<stop  offset="0" style="stop-color:#B21F24"/>
		<stop  offset="0" style="stop-color:#B21F24"/>
		<stop  offset="0.44" style="stop-color:#911A1D"/>
		<stop  offset="0.99" style="stop-color:#791E15"/>
		<stop  offset="1" style="stop-color:#791E15"/>
	</linearGradient>
	<path class="st17" d="M-551.5,484.6l12.3,1.7c-0.7-2.8-2.7-4.6-6.1-5.1L-551.5,484.6L-551.5,484.6z"/>
</g>
</svg>
