<?xml version="1.0" encoding="utf-8"?>
<!-- Generator: Adobe Illustrator 19.1.0, SVG Export Plug-In . SVG Version: 6.00 Build 0)  -->
<svg version="1.1" id="Layer_1" xmlns="http://www.w3.org/2000/svg" xmlns:xlink="http://www.w3.org/1999/xlink" x="0px" y="0px"
	 viewBox="-447 480.9 40 41" style="enable-background:new -447 480.9 40 41;" xml:space="preserve">
<style type="text/css">
	.st0{fill:url(#SVGID_1_);}
	.st1{fill:url(#SVGID_2_);}
	.st2{fill:url(#SVGID_3_);}
	.st3{fill:url(#SVGID_4_);}
	.st4{fill:url(#SVGID_5_);}
</style>
<g>
	
		<linearGradient id="SVGID_1_" gradientUnits="userSpaceOnUse" x1="-1446.6234" y1="472.9711" x2="-1446.5317" y2="472.9711" gradientTransform="matrix(256 0 0 -96 369896.8125 45912.4648)">
		<stop  offset="0" style="stop-color:#505050"/>
		<stop  offset="1" style="stop-color:#010101"/>
	</linearGradient>
	<path class="st0" d="M-438.8,505.8v2.9c0,0.5,10.7,1.3,17.6,2.9l0,0c3.4-0.8,5.9-1.7,5.9-2.9l0,0v-2.9c0-1.2-2.5-2.2-5.9-2.9l0,0
		C-428.1,504.4-438.8,505.3-438.8,505.8"/>
	
		<linearGradient id="SVGID_2_" gradientUnits="userSpaceOnUse" x1="-1446.6234" y1="471.7603" x2="-1446.5317" y2="471.7603" gradientTransform="matrix(256 0 0 -96 369896.8125 45784.4648)">
		<stop  offset="0" style="stop-color:#505050"/>
		<stop  offset="1" style="stop-color:#010101"/>
	</linearGradient>
	<path class="st1" d="M-438.8,494v2.9c0,0.5,10.7,1.3,17.6,2.9l0,0c3.4-0.8,5.9-1.7,5.9-2.9l0,0V494c0-1.2-2.5-2.2-5.9-2.9l0,0
		C-428.1,492.7-438.8,493.5-438.8,494"/>
	
		<linearGradient id="SVGID_3_" gradientUnits="userSpaceOnUse" x1="-1446.6234" y1="474.5881" x2="-1446.5316" y2="474.5881" gradientTransform="matrix(256 0 0 -160 369896.8125 76435.4531)">
		<stop  offset="0" style="stop-color:#555555"/>
		<stop  offset="1" style="stop-color:#888888"/>
	</linearGradient>
	<path class="st2" d="M-438.8,499.9v8.8c0-0.7,23.5-2.2,23.5-5.9l0,0V494C-415.3,497.7-438.8,499.1-438.8,499.9"/>
	
		<linearGradient id="SVGID_4_" gradientUnits="userSpaceOnUse" x1="-1446.6234" y1="473.8615" x2="-1446.5316" y2="473.8615" gradientTransform="matrix(256 0 0 -160 369896.8125 76307.4531)">
		<stop  offset="0" style="stop-color:#555555"/>
		<stop  offset="1" style="stop-color:#888888"/>
	</linearGradient>
	<path class="st3" d="M-438.8,488.1v8.8c0-0.7,23.5-2.2,23.5-5.9l0,0v-8.8C-415.3,485.9-438.8,487.4-438.8,488.1"/>
	
		<linearGradient id="SVGID_5_" gradientUnits="userSpaceOnUse" x1="-1446.6234" y1="475.3148" x2="-1446.5316" y2="475.3148" gradientTransform="matrix(256 0 0 -160 369896.8125 76563.4531)">
		<stop  offset="0" style="stop-color:#555555"/>
		<stop  offset="1" style="stop-color:#888888"/>
	</linearGradient>
	<path class="st4" d="M-438.8,511.6v8.8c0-0.7,23.5-2.2,23.5-5.9l0,0v-8.8C-415.3,509.4-438.8,510.9-438.8,511.6"/>
</g>
</svg>
