<?xml version="1.0" encoding="utf-8"?>
<!-- Generator: Adobe Illustrator 19.1.0, SVG Export Plug-In . SVG Version: 6.00 Build 0)  -->
<svg version="1.1" id="Layer_1" xmlns="http://www.w3.org/2000/svg" xmlns:xlink="http://www.w3.org/1999/xlink" x="0px" y="0px"
	 viewBox="-589.2 480.5 40 41" style="enable-background:new -589.2 480.5 40 41;" xml:space="preserve">
<style type="text/css">
	.st0{fill:#888888;}
</style>
<g>
	<path class="st0" d="M-574.5,511.9c0,0-1.5,0.9,1.1,1.2c3.2,0.4,4.8,0.3,8.3-0.4c0,0,0.9,0.6,2.2,1.1
		C-570.8,517.2-580.6,513.7-574.5,511.9"/>
	<path class="st0" d="M-575.5,507.6c0,0-1.7,1.3,0.9,1.5c3.4,0.3,6.1,0.4,10.7-0.5c0,0,0.6,0.6,1.6,1
		C-571.7,512.4-582.2,509.8-575.5,507.6"/>
	<path class="st0" d="M-567.4,500.1c1.9,2.2-0.5,4.2-0.5,4.2s4.9-2.5,2.6-5.7c-2.1-3-3.7-4.4,5-9.5
		C-560.2,489.2-573.9,492.6-567.4,500.1"/>
	<path class="st0" d="M-557,515.2c0,0,1.1,0.9-1.2,1.7c-4.5,1.4-18.8,1.8-22.8,0.1c-1.4-0.6,1.2-1.5,2.1-1.7
		c0.9-0.2,1.4-0.2,1.4-0.2c-1.7-1.2-10.3,2.2-4.5,3.1C-566,520.8-552.9,517-557,515.2"/>
	<path class="st0" d="M-573.8,503c0,0-7.3,1.7-2.6,2.4c2,0.3,5.9,0.2,9.6-0.1c3-0.3,6-0.8,6-0.8s-1.1,0.5-1.8,1
		c-7.4,1.9-21.6,1-17.5-0.9C-576.6,502.8-573.8,503-573.8,503"/>
	<path class="st0" d="M-560.7,510.3c7.5-3.9,4-7.6,1.6-7.1c-0.6,0.1-0.9,0.2-0.9,0.2s0.2-0.3,0.6-0.5c4.8-1.7,8.5,5-1.5,7.6
		C-560.9,510.5-560.8,510.4-560.7,510.3"/>
	<path class="st0" d="M-565.2,481c0,0,4.2,4.2-3.9,10.6c-6.5,5.1-1.5,8.1,0,11.4c-3.8-3.4-6.6-6.4-4.7-9.2
		C-571.2,489.6-563.6,487.6-565.2,481"/>
	<path class="st0" d="M-573,520.9c7.2,0.5,18.3-0.3,18.5-3.7c0,0-0.5,1.3-6,2.3c-6.1,1.2-13.7,1-18.2,0.3
		C-578.7,519.8-577.8,520.6-573,520.9"/>
</g>
</svg>
