<?xml version="1.0" encoding="UTF-8"?>
<svg width="300px" height="300px" viewBox="0 0 400 400" version="1.1" xmlns="http://www.w3.org/2000/svg" xmlns:xlink="http://www.w3.org/1999/xlink">
    <!-- Generator: Sketch 46.2 (44496) - http://www.bohemiancoding.com/sketch -->
    <title>languagens</title>
    <desc>Created with Sketch.</desc>
    <defs>
        <rect id="path-1" x="70" y="12" width="89" height="83" rx="2"></rect>
        <filter x="-24.7%" y="-24.1%" width="149.4%" height="153.0%" filterUnits="objectBoundingBox" id="filter-2">
            <feOffset dx="0" dy="2" in="SourceAlpha" result="shadowOffsetOuter1"></feOffset>
            <feGaussianBlur stdDeviation="7" in="shadowOffsetOuter1" result="shadowBlurOuter1"></feGaussianBlur>
            <feColorMatrix values="0 0 0 0 0   0 0 0 0 0   0 0 0 0 0  0 0 0 0.19811481 0" type="matrix" in="shadowBlurOuter1"></feColorMatrix>
        </filter>
        <rect id="path-3" x="226" y="34" width="79" height="73" rx="2"></rect>
        <filter x="-27.8%" y="-27.4%" width="155.7%" height="160.3%" filterUnits="objectBoundingBox" id="filter-4">
            <feOffset dx="0" dy="2" in="SourceAlpha" result="shadowOffsetOuter1"></feOffset>
            <feGaussianBlur stdDeviation="7" in="shadowOffsetOuter1" result="shadowBlurOuter1"></feGaussianBlur>
            <feColorMatrix values="0 0 0 0 0   0 0 0 0 0   0 0 0 0 0  0 0 0 0.19811481 0" type="matrix" in="shadowBlurOuter1"></feColorMatrix>
        </filter>
        <rect id="path-5" x="140" y="143" width="89" height="83" rx="2"></rect>
        <filter x="-24.7%" y="-24.1%" width="149.4%" height="153.0%" filterUnits="objectBoundingBox" id="filter-6">
            <feOffset dx="0" dy="2" in="SourceAlpha" result="shadowOffsetOuter1"></feOffset>
            <feGaussianBlur stdDeviation="7" in="shadowOffsetOuter1" result="shadowBlurOuter1"></feGaussianBlur>
            <feColorMatrix values="0 0 0 0 0   0 0 0 0 0   0 0 0 0 0  0 0 0 0.19811481 0" type="matrix" in="shadowBlurOuter1"></feColorMatrix>
        </filter>
        <path d="M0.0433333333,11.7160494 C0.0433333333,5.27037654 10.3589167,0.0449382716 23.0833333,0.0449382716 C35.80775,0.0449382716 46.1233333,5.27045679 46.1233333,11.7160494 C46.1233333,18.161642 35.80775,23.3871605 23.0833333,23.3871605 C10.3589167,23.3871605 0.0433333333,18.1614815 0.0433333333,11.7160494" id="path-7"></path>
        <radialGradient cx="30.0202546%" cy="82.4223047%" fx="30.0202546%" fy="82.4223047%" r="0.180844907%" gradientTransform="translate(0.300203,0.824223),scale(0.506559,1.000000),translate(-0.300203,-0.824223)" id="radialGradient-9">
            <stop stop-color="#AEB2D5" offset="0%"></stop>
            <stop stop-color="#AEB2D5" offset="30%"></stop>
            <stop stop-color="#484C89" offset="75%"></stop>
            <stop stop-color="#484C89" offset="100%"></stop>
        </radialGradient>
        <polygon id="path-10" points="0 26 48 26 48 0 0 0"></polygon>
        <polygon id="path-12" points="0 26 48 26 48 0 0 0"></polygon>
        <rect id="path-14" x="302" y="113" width="89" height="83" rx="2"></rect>
        <filter x="-24.7%" y="-24.1%" width="149.4%" height="153.0%" filterUnits="objectBoundingBox" id="filter-15">
            <feOffset dx="0" dy="2" in="SourceAlpha" result="shadowOffsetOuter1"></feOffset>
            <feGaussianBlur stdDeviation="7" in="shadowOffsetOuter1" result="shadowBlurOuter1"></feGaussianBlur>
            <feColorMatrix values="0 0 0 0 0   0 0 0 0 0   0 0 0 0 0  0 0 0 0.19811481 0" type="matrix" in="shadowBlurOuter1"></feColorMatrix>
        </filter>
        <rect id="path-16" x="14" y="145" width="89" height="83" rx="2"></rect>
        <filter x="-24.7%" y="-24.1%" width="149.4%" height="153.0%" filterUnits="objectBoundingBox" id="filter-17">
            <feOffset dx="0" dy="2" in="SourceAlpha" result="shadowOffsetOuter1"></feOffset>
            <feGaussianBlur stdDeviation="7" in="shadowOffsetOuter1" result="shadowBlurOuter1"></feGaussianBlur>
            <feColorMatrix values="0 0 0 0 0   0 0 0 0 0   0 0 0 0 0  0 0 0 0.19811481 0" type="matrix" in="shadowBlurOuter1"></feColorMatrix>
        </filter>
        <rect id="path-18" x="209" y="207" width="89" height="83" rx="2"></rect>
        <filter x="-24.7%" y="-24.1%" width="149.4%" height="153.0%" filterUnits="objectBoundingBox" id="filter-19">
            <feOffset dx="0" dy="2" in="SourceAlpha" result="shadowOffsetOuter1"></feOffset>
            <feGaussianBlur stdDeviation="7" in="shadowOffsetOuter1" result="shadowBlurOuter1"></feGaussianBlur>
            <feColorMatrix values="0 0 0 0 0   0 0 0 0 0   0 0 0 0 0  0 0 0 0.19811481 0" type="matrix" in="shadowBlurOuter1"></feColorMatrix>
        </filter>
        <rect id="path-20" x="70" y="274" width="89" height="83" rx="2"></rect>
        <filter x="-24.7%" y="-24.1%" width="149.4%" height="153.0%" filterUnits="objectBoundingBox" id="filter-21">
            <feOffset dx="0" dy="2" in="SourceAlpha" result="shadowOffsetOuter1"></feOffset>
            <feGaussianBlur stdDeviation="7" in="shadowOffsetOuter1" result="shadowBlurOuter1"></feGaussianBlur>
            <feColorMatrix values="0 0 0 0 0   0 0 0 0 0   0 0 0 0 0  0 0 0 0.19811481 0" type="matrix" in="shadowBlurOuter1"></feColorMatrix>
        </filter>
        <linearGradient x1="1.06341024e-07%" y1="9.14856261e-08%" x2="74.5209927%" y2="64.1103734%" id="linearGradient-22">
            <stop stop-color="#5A9FD4" offset="0%"></stop>
            <stop stop-color="#306998" offset="100%"></stop>
        </linearGradient>
        <linearGradient x1="49.9999998%" y1="82.2756107%" x2="23.4426562%" y2="44.914431%" id="linearGradient-23">
            <stop stop-color="#FFD43B" offset="0%"></stop>
            <stop stop-color="#FFE873" offset="100%"></stop>
        </linearGradient>
        <linearGradient x1="84.7503645%" y1="111.399353%" x2="58.2543962%" y2="64.5837087%" id="linearGradient-24">
            <stop stop-color="#FB7655" offset="0%"></stop>
            <stop stop-color="#FB7655" offset="0%"></stop>
            <stop stop-color="#E42B1E" offset="41%"></stop>
            <stop stop-color="#990000" offset="99%"></stop>
            <stop stop-color="#990000" offset="100%"></stop>
        </linearGradient>
        <linearGradient x1="116.651024%" y1="60.8903211%" x2="1.74616041%" y2="19.2879503%" id="linearGradient-25">
            <stop stop-color="#871101" offset="0%"></stop>
            <stop stop-color="#871101" offset="0%"></stop>
            <stop stop-color="#911209" offset="99%"></stop>
            <stop stop-color="#911209" offset="100%"></stop>
        </linearGradient>
        <linearGradient x1="75.7744024%" y1="219.327131%" x2="38.9781357%" y2="7.82868176%" id="linearGradient-26">
            <stop stop-color="#871101" offset="0%"></stop>
            <stop stop-color="#871101" offset="0%"></stop>
            <stop stop-color="#911209" offset="99%"></stop>
            <stop stop-color="#911209" offset="100%"></stop>
        </linearGradient>
        <linearGradient x1="50.012428%" y1="7.23449921%" x2="66.4830414%" y2="79.1354134%" id="linearGradient-27">
            <stop stop-color="#FFFFFF" offset="0%"></stop>
            <stop stop-color="#FFFFFF" offset="0%"></stop>
            <stop stop-color="#E57252" offset="23%"></stop>
            <stop stop-color="#DE3B20" offset="46%"></stop>
            <stop stop-color="#A60003" offset="99%"></stop>
            <stop stop-color="#A60003" offset="100%"></stop>
        </linearGradient>
        <linearGradient x1="46.1741749%" y1="16.347907%" x2="49.9323342%" y2="83.0468449%" id="linearGradient-28">
            <stop stop-color="#FFFFFF" offset="0%"></stop>
            <stop stop-color="#FFFFFF" offset="0%"></stop>
            <stop stop-color="#E4714E" offset="23%"></stop>
            <stop stop-color="#BE1A0D" offset="56%"></stop>
            <stop stop-color="#A80D00" offset="99%"></stop>
            <stop stop-color="#A80D00" offset="100%"></stop>
        </linearGradient>
        <linearGradient x1="36.9653573%" y1="15.5936471%" x2="49.5282324%" y2="92.4776332%" id="linearGradient-29">
            <stop stop-color="#FFFFFF" offset="0%"></stop>
            <stop stop-color="#FFFFFF" offset="0%"></stop>
            <stop stop-color="#E46342" offset="18%"></stop>
            <stop stop-color="#C82410" offset="40%"></stop>
            <stop stop-color="#A80D00" offset="99%"></stop>
            <stop stop-color="#A80D00" offset="100%"></stop>
        </linearGradient>
        <linearGradient x1="13.6086166%" y1="58.3456855%" x2="85.7636612%" y2="-46.7167814%" id="linearGradient-30">
            <stop stop-color="#FFFFFF" offset="0%"></stop>
            <stop stop-color="#FFFFFF" offset="0%"></stop>
            <stop stop-color="#C81F11" offset="54%"></stop>
            <stop stop-color="#BF0905" offset="99%"></stop>
            <stop stop-color="#BF0905" offset="100%"></stop>
        </linearGradient>
        <linearGradient x1="27.6242038%" y1="21.1345847%" x2="50.7445145%" y2="79.0557818%" id="linearGradient-31">
            <stop stop-color="#FFFFFF" offset="0%"></stop>
            <stop stop-color="#FFFFFF" offset="0%"></stop>
            <stop stop-color="#DE4024" offset="31%"></stop>
            <stop stop-color="#BF190B" offset="99%"></stop>
            <stop stop-color="#BF190B" offset="100%"></stop>
        </linearGradient>
        <linearGradient x1="-20.6671297%" y1="122.281897%" x2="104.241521%" y2="-6.34211007%" id="linearGradient-32">
            <stop stop-color="#BD0012" offset="0%"></stop>
            <stop stop-color="#BD0012" offset="0%"></stop>
            <stop stop-color="#FFFFFF" offset="7%"></stop>
            <stop stop-color="#FFFFFF" offset="17%"></stop>
            <stop stop-color="#C82F1C" offset="27%"></stop>
            <stop stop-color="#820C01" offset="33%"></stop>
            <stop stop-color="#A31601" offset="46%"></stop>
            <stop stop-color="#B31301" offset="72%"></stop>
            <stop stop-color="#E82609" offset="99%"></stop>
            <stop stop-color="#E82609" offset="100%"></stop>
        </linearGradient>
        <linearGradient x1="58.7919609%" y1="65.2049657%" x2="11.9636556%" y2="50.1275621%" id="linearGradient-33">
            <stop stop-color="#8C0C01" offset="0%"></stop>
            <stop stop-color="#8C0C01" offset="0%"></stop>
            <stop stop-color="#990C00" offset="54%"></stop>
            <stop stop-color="#A80D0E" offset="99%"></stop>
            <stop stop-color="#A80D0E" offset="100%"></stop>
        </linearGradient>
        <linearGradient x1="79.3194899%" y1="62.7538068%" x2="23.088288%" y2="17.8876818%" id="linearGradient-34">
            <stop stop-color="#7E110B" offset="0%"></stop>
            <stop stop-color="#7E110B" offset="0%"></stop>
            <stop stop-color="#9E0C00" offset="99%"></stop>
            <stop stop-color="#9E0C00" offset="100%"></stop>
        </linearGradient>
        <linearGradient x1="92.8800277%" y1="74.1223655%" x2="59.8414537%" y2="39.7039965%" id="linearGradient-35">
            <stop stop-color="#79130D" offset="0%"></stop>
            <stop stop-color="#79130D" offset="0%"></stop>
            <stop stop-color="#9E120B" offset="99%"></stop>
            <stop stop-color="#9E120B" offset="100%"></stop>
        </linearGradient>
        <radialGradient cx="32.0008013%" cy="40.2100469%" fx="32.0008013%" fy="40.2100469%" r="69.5729556%" gradientTransform="translate(0.320008,0.402100),scale(0.500000,1.000000),translate(-0.320008,-0.402100)" id="radialGradient-36">
            <stop stop-color="#A80D00" offset="0%"></stop>
            <stop stop-color="#A80D00" offset="0%"></stop>
            <stop stop-color="#7E0E08" offset="99%"></stop>
            <stop stop-color="#7E0E08" offset="100%"></stop>
        </radialGradient>
        <radialGradient cx="13.5493795%" cy="40.859922%" fx="13.5493795%" fy="40.859922%" r="88.3861936%" gradientTransform="translate(0.135494,0.408599),scale(0.800000,1.000000),translate(-0.135494,-0.408599)" id="radialGradient-37">
            <stop stop-color="#A30C00" offset="0%"></stop>
            <stop stop-color="#A30C00" offset="0%"></stop>
            <stop stop-color="#800E08" offset="99%"></stop>
            <stop stop-color="#800E08" offset="100%"></stop>
        </radialGradient>
        <linearGradient x1="56.5701955%" y1="101.716594%" x2="3.10480737%" y2="11.9932603%" id="linearGradient-38">
            <stop stop-color="#8B2114" offset="0%"></stop>
            <stop stop-color="#8B2114" offset="0%"></stop>
            <stop stop-color="#9E100A" offset="43%"></stop>
            <stop stop-color="#B3100C" offset="99%"></stop>
            <stop stop-color="#B3100C" offset="100%"></stop>
        </linearGradient>
        <linearGradient x1="30.8698732%" y1="35.5989756%" x2="92.4707626%" y2="100.693616%" id="linearGradient-39">
            <stop stop-color="#B31000" offset="0%"></stop>
            <stop stop-color="#B31000" offset="0%"></stop>
            <stop stop-color="#910F08" offset="44%"></stop>
            <stop stop-color="#791C12" offset="99%"></stop>
            <stop stop-color="#791C12" offset="100%"></stop>
        </linearGradient>
    </defs>
    <g id="Page-1" stroke="none" stroke-width="1" fill="none" fill-rule="evenodd">
        <g id="Rectangle-21">
            <use fill="black" fill-opacity="1" filter="url(#filter-2)" xlink:href="#path-1"></use>
            <use fill="#FFFFFF" fill-rule="evenodd" xlink:href="#path-1"></use>
        </g>
        <g id="Rectangle-21-Copy">
            <use fill="black" fill-opacity="1" filter="url(#filter-4)" xlink:href="#path-3"></use>
            <use fill="#FFFFFF" fill-rule="evenodd" xlink:href="#path-3"></use>
        </g>
        <g id="Rectangle-21-Copy-2">
            <use fill="black" fill-opacity="1" filter="url(#filter-6)" xlink:href="#path-5"></use>
            <use fill="#FFFFFF" fill-rule="evenodd" xlink:href="#path-5"></use>
        </g>
        <g id="20170826143624!PHP-logo" transform="translate(161.000000, 171.000000)">
            <g id="g3438" transform="translate(24.000000, 13.000000) scale(-1, 1) rotate(-180.000000) translate(-24.000000, -13.000000) ">
                <g id="g3440" transform="translate(0.916667, 1.283951)">
                    <g id="g3442-Clipped">
                        <mask id="mask-8" fill="white">
                            <use xlink:href="#path-7"></use>
                        </mask>
                        <g id="path3446"></g>
                        <g id="g3442" mask="url(#mask-8)" fill-rule="nonzero" fill="url(#radialGradient-9)">
                            <g id="g3448">
                                <g id="g3450">
                                    <path d="M0.0433333333,11.7160494 C0.0433333333,5.27037654 10.3589167,0.0449382716 23.0833333,0.0449382716 C35.80775,0.0449382716 46.1233333,5.27045679 46.1233333,11.7160494 C46.1233333,18.161642 35.80775,23.3871605 23.0833333,23.3871605 C10.3589167,23.3871605 0.0433333333,18.1614815 0.0433333333,11.7160494" id="path3462"></path>
                                </g>
                            </g>
                        </g>
                    </g>
                </g>
                <g id="g3464">
                    <g id="g3466-Clipped">
                        <mask id="mask-11" fill="white">
                            <use xlink:href="#path-10"></use>
                        </mask>
                        <g id="path3470"></g>
                        <g id="g3466" mask="url(#mask-11)">
                            <g transform="translate(1.833333, 2.166667)" id="g3472">
                                <g transform="translate(0.000000, 0.028889)">
                                    <path d="M22.1666667,0 C34.3941667,0 44.3066667,4.83728395 44.3066667,10.8044444 C44.3066667,16.7716049 34.3941667,21.6091296 22.1666667,21.6091296 C9.93916667,21.6091296 0.0266666667,16.7716852 0.0266666667,10.8046852 C0.0266666667,4.83728395 9.93916667,0 22.1666667,0" id="path3474" fill="#777BB3" fill-rule="nonzero"></path>
                                </g>
                            </g>
                        </g>
                    </g>
                </g>
                <g id="g3476">
                    <g id="g3478-Clipped">
                        <mask id="mask-13" fill="white">
                            <use xlink:href="#path-12"></use>
                        </mask>
                        <g id="path3482"></g>
                        <g id="g3478" mask="url(#mask-13)">
                            <g transform="translate(7.666667, 5.938272)">
                                <g id="g3484" transform="translate(0.227500, 0.265617)">
                                    <path d="M5.58333333,5.45679012 C6.58875,5.45679012 7.33933333,5.63533951 7.81416667,5.98722222 C8.28416667,6.33565432 8.60858333,6.93919136 8.77866667,7.78106173 C8.93725,8.56796296 8.87683333,9.11741358 8.59916667,9.41392593 C8.31525,9.71677778 7.70141667,9.87037037 6.77475,9.87037037 L5.16808333,9.87037037 L4.27725,5.45679012 L5.58333333,5.45679012 Z M0.328083333,0.0200617284 C0.2535,0.0200617284 0.182666667,0.0521604938 0.13525,0.107691358 C0.08775,0.163061728 0.0685833333,0.23608642 0.08275,0.306703704 L2.44341667,12.0026914 C2.46675,12.1158395 2.56925,12.1975309 2.68925,12.1975309 L7.77675,12.1975309 C9.37591667,12.1975309 10.5659167,11.7794444 11.31425,10.9547469 C12.06675,10.1257963 12.2984167,8.96687037 12.0049167,7.51054938 C11.8853333,6.91712346 11.6795,6.3660679 11.39325,5.87270988 C11.1065833,5.37879012 10.7279167,4.92178395 10.2674167,4.51412963 C9.715,4.01716049 9.0915,3.65685185 8.41333333,3.445 C7.74666667,3.23555556 6.89016667,3.12962963 5.86783333,3.12962963 L3.80766667,3.12962963 L3.21933333,0.214901235 C3.1965,0.101753086 3.09366667,0.0200617284 2.974,0.0200617284 L0.328166667,0.0200617284 L0.328083333,0.0200617284 Z" id="path3486" fill="#000000" fill-rule="nonzero"></path>
                                </g>
                                <g id="g3488" transform="translate(0.018333, 0.024877)">
                                    <path d="M5.58333333,9.87037037 L6.984,9.87037037 C8.10233333,9.87037037 8.49091667,9.63404321 8.62291667,9.49320988 C8.84191667,9.25937037 8.88325,8.76633333 8.7425,8.06746296 C8.58433333,7.28505556 8.29116667,6.73030864 7.871,6.41879012 C7.44083333,6.09988889 6.7415,5.9382716 5.79266667,5.9382716 L4.78966667,5.9382716 L5.58333333,9.87037037 Z M7.98583333,12.6790123 L2.898,12.6790123 C2.65866667,12.6790123 2.453,12.5156296 2.40716667,12.2894136 L0.0465833333,0.593425926 C0.0174166667,0.452191358 0.0565833333,0.306141975 0.15075,0.195240741 C0.24575,0.0842592593 0.387416667,0.0200617284 0.536583333,0.0200617284 L3.18241667,0.0200617284 C3.42158333,0.0200617284 3.62741667,0.183444444 3.67325,0.409660494 L4.2225,3.12962963 L6.07666667,3.12962963 C7.125,3.12962963 8.00808333,3.2397284 8.7,3.4567963 C9.41166667,3.67948148 10.0666667,4.05704321 10.6463333,4.57896914 C11.1255,5.00427778 11.5205,5.48094444 11.8196667,5.99612963 C12.1188333,6.51131481 12.3338333,7.08748765 12.4585833,7.70538889 C12.7681667,9.23890741 12.5166667,10.4666852 11.7110833,11.354216 C10.9139167,12.233642 9.66041667,12.6790123 7.98608333,12.6790123 L7.98583333,12.6790123 Z M4.18333333,5.45679012 L5.7925,5.45679012 C6.85933333,5.45679012 7.65391667,5.65018519 8.176,6.0372963 C8.69816667,6.42440741 9.05033333,7.07055556 9.23333333,7.97574074 C9.40833333,8.84505556 9.32866667,9.45846296 8.99416667,9.81580247 C8.65916667,10.173142 7.98916667,10.3518519 6.98391667,10.3518519 L5.17116667,10.3518519 L4.18316667,5.45679012 L4.18333333,5.45679012 Z M7.98583333,12.1975309 C9.5165,12.1975309 10.6330833,11.8107407 11.335,11.0371605 C12.0366667,10.2634198 12.248,9.18345679 11.968,7.79711111 C11.85275,7.22599383 11.6578333,6.70382716 11.3834167,6.23069136 C11.10925,5.75739506 10.7500833,5.32454321 10.30675,4.93197531 C9.77841667,4.45611111 9.19175,4.11666667 8.54591667,3.91500617 C7.9,3.71198148 7.0775,3.61111111 6.0775,3.61111111 L3.81083333,3.61111111 L3.18316667,0.50154321 L0.537333333,0.50154321 L2.898,12.1975309 L7.98583333,12.1975309 L7.98583333,12.1975309 Z" id="path3490" fill="#FFFFFF" fill-rule="nonzero"></path>
                                </g>
                                <g id="g3492" transform="translate(11.548333, 3.395247)">
                                    <path d="M6.75,0 C6.67533333,0 6.60458333,0.0320987654 6.55716667,0.0876296296 C6.50966667,0.143 6.49033333,0.216024691 6.50466667,0.286641975 L7.54883333,5.46176543 C7.64816667,5.95383951 7.62366667,6.30708642 7.47991667,6.45634568 C7.39166667,6.54758642 7.1275,6.70061728 6.34583333,6.70061728 L4.45416667,6.70061728 L3.14125,0.194839506 C3.11833333,0.081691358 3.01541667,0 2.89583333,0 L0.270833333,0 C0.196166667,0 0.125416667,0.0320987654 0.0779166667,0.0876296296 C0.0304166667,0.143 0.01125,0.216024691 0.0254166667,0.286641975 L2.38608333,11.9826296 C2.40891667,12.0957778 2.51191667,12.1774691 2.6315,12.1774691 L5.2565,12.1774691 C5.33116667,12.1774691 5.40191667,12.1453704 5.44941667,12.09 C5.49691667,12.0343889 5.51608333,11.9614444 5.50191667,11.8908272 L4.93225,9.06790123 L6.9675,9.06790123 C8.51783333,9.06790123 9.56916667,8.80469136 10.1815,8.26318519 C10.8056667,7.71076543 11.0004167,6.8275679 10.7604167,5.63750617 L9.66208333,0.195 C9.63916667,0.081691358 9.53641667,0 9.41666667,0 L6.75,0 Z" id="path3494" fill="#000000" fill-rule="nonzero"></path>
                                </g>
                                <g id="g3496" transform="translate(11.305000, 3.134444)">
                                    <path d="M5.5,12.6790123 L2.875,12.6790123 C2.63558333,12.6790123 2.42983333,12.5156296 2.38416667,12.2894136 L0.0235,0.593425926 C-0.005,0.452191358 0.0335,0.306141975 0.1285,0.195240741 C0.2235,0.0842592593 0.365,0.0200617284 0.514333333,0.0200617284 L3.13933333,0.0200617284 C3.37866667,0.0200617284 3.5845,0.183444444 3.63016667,0.409660494 L4.90375,6.72067901 L6.58958333,6.72067901 C7.36975,6.72067901 7.5335,6.56018519 7.54008333,6.55328395 C7.58758333,6.50433333 7.65008333,6.27723457 7.54758333,5.76846914 L6.50341667,0.593345679 C6.47508333,0.452111111 6.51341667,0.306222222 6.60841667,0.195320988 C6.70341667,0.0842592593 6.84508333,0.0200617284 6.99425,0.0200617284 L9.66091667,0.0200617284 C9.90008333,0.0200617284 10.1059167,0.183444444 10.15175,0.409660494 L11.2491667,5.85240741 C11.507,7.12993827 11.2865,8.08840741 10.5941667,8.70117284 C9.9335,9.28537037 8.82683333,9.56944444 7.21083333,9.56944444 L5.479,9.56944444 L5.99083333,12.1056481 C6.01916667,12.2468827 5.98083333,12.3929321 5.88583333,12.5036728 C5.79083333,12.6148148 5.64933333,12.6790123 5.5,12.6790123 M5.5,12.1975309 L4.8725,9.08796296 L7.21083333,9.08796296 C8.68233333,9.08796296 9.69725,8.84064198 10.2558333,8.34664198 C10.8144167,7.85232099 10.9816667,7.05145679 10.7585,5.94420988 L9.66016667,0.50154321 L6.9935,0.50154321 L8.03766667,5.67650617 C8.15658333,6.26519753 8.11291667,6.66675309 7.90658333,6.88085185 C7.69991667,7.09495062 7.26075,7.20216049 6.58908333,7.20216049 L4.49075,7.20216049 L3.13825,0.50154321 L0.51325,0.50154321 L2.875,12.1975309 L5.5,12.1975309" id="path3498" fill="#FFFFFF" fill-rule="nonzero"></path>
                                </g>
                                <g id="g3500" transform="translate(20.879167, 0.265617)">
                                    <path d="M5.58333333,5.45679012 C6.58875,5.45679012 7.33933333,5.63533951 7.81416667,5.98722222 C8.28416667,6.33549383 8.60858333,6.93911111 8.77875,7.78106173 C8.93733333,8.56796296 8.87691667,9.11741358 8.59916667,9.41392593 C8.31525,9.71677778 7.70141667,9.87037037 6.77475,9.87037037 L5.16808333,9.87037037 L4.27725,5.45679012 L5.58333333,5.45679012 Z M0.328166667,0.0200617284 C0.253583333,0.0200617284 0.18275,0.0521604938 0.135333333,0.107691358 C0.0878333333,0.163061728 0.0685,0.23608642 0.0828333333,0.306703704 L2.44341667,12.0026914 C2.46675,12.1158395 2.56925,12.1975309 2.68925,12.1975309 L7.77675,12.1975309 C9.37591667,12.1975309 10.5659167,11.7794444 11.31425,10.9547469 C12.06675,10.1257963 12.2984167,8.96703086 12.0050833,7.51054938 C11.8855833,6.91712346 11.6798333,6.3660679 11.3934167,5.87270988 C11.10675,5.37879012 10.72825,4.92178395 10.2675833,4.51412963 C9.715,4.01716049 9.0915,3.65685185 8.41333333,3.445 C7.74666667,3.23555556 6.89016667,3.12962963 5.86783333,3.12962963 L3.8075,3.12962963 L3.2195,0.214901235 C3.19658333,0.101753086 3.09366667,0.0200617284 2.974,0.0200617284 L0.328166667,0.0200617284 Z" id="path3502" fill="#000000" fill-rule="nonzero"></path>
                                </g>
                                <g id="g3504" transform="translate(20.670000, 0.024877)">
                                    <path d="M5.58333333,9.87037037 L6.984,9.87037037 C8.10233333,9.87037037 8.49091667,9.63404321 8.62291667,9.49320988 C8.84208333,9.25937037 8.88333333,8.76633333 8.7425,8.06754321 C8.58433333,7.2851358 8.29108333,6.73030864 7.871,6.41879012 C7.44083333,6.09988889 6.7415,5.9382716 5.79266667,5.9382716 L4.78975,5.9382716 L5.58333333,9.87037037 Z M7.98583333,12.6790123 L2.89808333,12.6790123 C2.65875,12.6790123 2.45308333,12.5156296 2.40725,12.2894136 L0.0466666667,0.593425926 C0.0181666667,0.452191358 0.0566666667,0.306141975 0.151666667,0.195240741 C0.246666667,0.0842592593 0.388083333,0.0200617284 0.5375,0.0200617284 L3.18333333,0.0200617284 C3.4225,0.0200617284 3.62833333,0.183444444 3.67416667,0.409660494 L4.22291667,3.12962963 L6.07708333,3.12962963 C7.12541667,3.12962963 8.00816667,3.2397284 8.70025,3.4567963 C9.41191667,3.67948148 10.0669167,4.05704321 10.6465833,4.57912963 C11.12575,5.0036358 11.5199167,5.48030247 11.8190833,5.99588889 C12.1183333,6.5116358 12.3333333,7.08676543 12.4583333,7.70530864 C12.7679167,9.23842593 12.5164167,10.4660432 11.7108333,11.3538951 C10.9139167,12.2331605 9.66016667,12.6790123 7.986,12.6790123 L7.98583333,12.6790123 Z M4.18333333,5.45679012 L5.7925,5.45679012 C6.85933333,5.45679012 7.65391667,5.65018519 8.176,6.0372963 C8.69833333,6.42440741 9.05033333,7.07055556 9.23333333,7.97574074 C9.4085,8.84505556 9.32875,9.45846296 8.99416667,9.81580247 C8.65916667,10.173142 7.98916667,10.3518519 6.98391667,10.3518519 L5.17116667,10.3518519 L4.18333333,5.45679012 L4.18333333,5.45679012 Z M7.98583333,12.1975309 C9.5165,12.1975309 10.6330833,11.8107407 11.335,11.0371605 C12.0366667,10.2634198 12.248,9.18345679 11.968,7.79711111 C11.85275,7.22599383 11.6578333,6.70382716 11.3834167,6.23069136 C11.10925,5.75739506 10.7500833,5.32454321 10.30675,4.93197531 C9.77841667,4.45611111 9.19175,4.11666667 8.54591667,3.91500617 C7.9,3.71198148 7.0775,3.61111111 6.0775,3.61111111 L3.81083333,3.61111111 L3.18333333,0.50154321 L0.5375,0.50154321 L2.898,12.1975309 L7.98583333,12.1975309 L7.98583333,12.1975309 Z" id="path3506" fill="#FFFFFF" fill-rule="nonzero"></path>
                                </g>
                            </g>
                        </g>
                    </g>
                </g>
            </g>
        </g>
        <g id="Rectangle-21-Copy-3">
            <use fill="black" fill-opacity="1" filter="url(#filter-15)" xlink:href="#path-14"></use>
            <use fill="#FFFFFF" fill-rule="evenodd" xlink:href="#path-14"></use>
        </g>
        <g id="Rectangle-21-Copy-7">
            <use fill="black" fill-opacity="1" filter="url(#filter-17)" xlink:href="#path-16"></use>
            <use fill="#FFFFFF" fill-rule="evenodd" xlink:href="#path-16"></use>
        </g>
        <g id="Rectangle-21-Copy-5">
            <use fill="black" fill-opacity="1" filter="url(#filter-19)" xlink:href="#path-18"></use>
            <use fill="#FFFFFF" fill-rule="evenodd" xlink:href="#path-18"></use>
        </g>
        <g id="Erlang_logo" transform="translate(235.000000, 235.000000)" fill-rule="nonzero">
            <g id="g8" fill="#A90533">
                <path d="M5.9429071,23.9464083 C3.00246914,20.8412275 1.28204441,16.5514083 1.28640443,11.4330544 C1.28234168,6.90652535 2.70945583,3.01576644 5.16285968,0.0551595725 L5.15889548,0.0566408712 L0.00217954082,0.0566408712 L0.00217954082,23.9469023 L5.93924018,23.9469023 L5.94290726,23.9464348 L5.94290726,23.9464348 L5.9429071,23.9464083 Z" id="path10"></path>
                <path d="M33.1010822,23.9483829 C34.3677677,22.59636 35.5027604,21.0040706 36.5312296,19.1830706 L30.8235655,16.3389912 C28.8190467,19.5866727 25.8876251,22.5760161 21.8339947,22.5959642 C15.9343914,22.5760161 13.6164452,17.5485148 13.6292281,11.0774458 L35.6750802,11.0774458 C35.7045107,10.3468731 35.7045107,10.0071637 35.6750802,9.65550514 C35.8189611,5.80562992 34.7951488,2.56960161 32.9327266,0.049530667 L32.9231093,0.0567396125 L37.886796,0.0567396125 L37.886796,23.9470005 L33.0902765,23.9470005 L33.1010822,23.9484031 L33.1010822,23.9484031 L33.1010822,23.9483829 Z" id="path12"></path>
                <path d="M13.9860562,5.53149242 C14.2301182,2.60169631 16.5479648,0.631381761 19.265645,0.625456597 C22.0018561,0.631381792 23.9788288,2.60169631 24.0458136,5.53149242 L13.9860562,5.53149242 L13.9860562,5.53149242 Z" id="path14"></path>
            </g>
            <g id="g16" transform="translate(0.000000, 27.000000)" fill="#000000">
                <polygon id="path18" points="3.1675649 1.11342439 3.1675649 0.17878639 0.0742358981 0.17878639 0.0742358981 5.72040439 3.1675649 5.72040439 3.1675649 4.78558083 1.22524203 4.78558083 1.22524203 3.31681098 3.09552699 3.31681098 3.09552699 2.38208034 1.22524203 2.38208034 1.22524203 1.11342439"></polygon>
                <path d="M8.41903024,3.38348415 C9.1901644,3.27721537 9.61359871,2.56800659 9.64197431,1.84785585 C9.61359871,0.669706098 8.79070934,0.182217805 7.62771351,0.178693902 L6.04508021,0.178693902 L6.04508021,5.72031186 L7.19608633,5.72031186 L7.19608633,3.51701791 L8.63484391,5.72031186 L10.0736016,5.72031186 L8.41903024,3.38348498 L8.41903024,3.38348498 L8.41903024,3.38348415 Z M7.19598637,1.04675006 L7.33986209,1.04675006 C7.96781982,1.06863462 8.439113,1.2016112 8.41893043,1.91471429 C8.439113,2.56809849 7.98380615,2.74540068 7.33986209,2.71591215 L7.19598637,2.71591215 L7.19598637,1.04675006 L7.19598637,1.04675006 Z" id="path20"></path>
                <polygon id="path22" points="13.6703958 0.178785366 12.5194896 0.178785366 12.5194896 5.72040337 15.324967 5.72040337 15.324967 4.7855798 13.6703958 4.7855798 13.6703958 0.178785366 13.6703958 0.178785366"></polygon>
                <path d="M21.2238735,4.58528093 L21.7274382,5.72031102 L22.9503822,5.72031102 L20.7203089,0.0451601063 L19.7851163,0.0451601063 L17.4111664,5.72031102 L18.6340095,5.72031102 L19.1376751,4.58528093 L21.2238735,4.58528093 L21.2238735,4.58528093 Z M20.9361221,3.71740932 L19.4973648,3.71740932 L20.144806,1.64764844 L20.9361221,3.71740932 L20.9361221,3.71740932 L20.9361221,3.71740932 Z" id="path24"></path>
                <polygon id="path26" points="25.1086183 5.72040439 26.331463 5.72040439 26.331463 1.98148141 29.4968299 5.85384454 30.3599849 5.85384454 30.3599849 0.17878639 29.1371402 0.17878639 29.1371402 3.91770937 25.9717733 0.0451606917 25.1086183 0.0451606917"></polygon>
                <path d="M35.3957354,2.78258634 L35.3957354,3.65055059 L36.6906178,3.65055059 C36.6636409,4.34807488 36.0485723,4.93905088 35.3237988,4.91911376 C34.1791867,4.93905088 33.611976,3.91242351 33.5972885,2.98288566 C33.6119839,2.06577395 34.1711941,0.994728278 35.3237988,0.979891288 C35.9286768,0.994635556 36.4400338,1.37872828 36.6906178,1.84785556 L37.6977486,1.38049017 C37.254831,0.51456578 36.3601029,0.0344033415 35.3237988,0.045159439 C33.5400378,0.0344911463 32.3977246,1.40098383 32.3743444,2.98288529 C32.3977246,4.52537656 33.5081666,5.89928232 35.2518605,5.92061056 C37.1350349,5.89928232 38.005782,4.50321373 37.9855001,2.9161189 L37.9855001,2.78258598 L35.3957354,2.78258598 L35.3957354,2.78258598 L35.3957354,2.78258598 L35.3957354,2.78258634 Z" id="path28"></path>
            </g>
        </g>
        <g id="Rectangle-21-Copy-4">
            <use fill="black" fill-opacity="1" filter="url(#filter-21)" xlink:href="#path-20"></use>
            <use fill="#FFFFFF" fill-rule="evenodd" xlink:href="#path-20"></use>
        </g>
        <g id="python-logo-generic" transform="translate(93.000000, 294.000000)" fill-rule="nonzero">
            <path d="M21.3552108,0.000354015061 C19.5728539,0.00855605263 17.8707429,0.159100256 16.3730606,0.421560336 C11.961076,1.19350061 11.1600306,2.80923777 11.1600302,5.78893235 L11.1600302,9.72420284 L21.5860909,9.72420284 L21.5860909,11.0359597 L11.1600302,11.0359597 L7.24721958,11.0359597 C4.21711608,11.0359597 1.56387069,12.8396728 0.733969481,16.2709525 C-0.223311067,20.2039956 -0.265771663,22.6582784 0.733969481,26.7650072 C1.47509113,29.8218972 3.24498998,31.9999992 6.27509272,32 L9.85981055,32 L9.85981055,27.2824892 C9.85981055,23.8743661 12.8372967,20.8681194 16.3730606,20.8681187 L26.7869697,20.8681187 C29.6858329,20.8681187 32.0000012,18.5042938 32,15.6210913 L32,5.78893235 C32,2.99064397 29.6163527,0.888583353 26.7869697,0.421560336 C24.9959282,0.126292183 23.1375677,-0.00784802251 21.3552108,0.000354015061 Z M15.7168749,3.1654187 C16.7938154,3.1654187 17.6732803,4.05063399 17.6732803,5.13907117 C17.6732795,6.2236504 16.7938154,7.10068918 15.7168749,7.10068918 C14.6360736,7.1006888 13.7604696,6.22365001 13.7604696,5.13907117 C13.7604692,4.05063437 14.6360736,3.1654187 15.7168749,3.1654187 Z" id="path1948" fill="url(#linearGradient-22)"></path>
            <path d="M33.0952083,11 L33.0952083,15.550241 C33.0952083,19.0779814 30.0582857,22.0471726 26.595191,22.047173 L16.2024393,22.047173 C13.3556905,22.047173 11.0000004,24.4466363 11,27.2542729 L11,37.0116126 C11,39.7886077 13.4519959,41.4220052 16.2024393,42.2187125 C19.4960392,43.1724659 22.6544291,43.3448334 26.595191,42.2187125 C29.2146611,41.4717984 31.7976314,39.96863 31.7976302,37.0116126 L31.7976302,33.1062888 L21.4048786,33.1062888 L21.4048786,31.8045138 L31.7976302,31.8045138 L37.0000711,31.8045138 C40.0240189,31.8045138 41.1508658,29.7272505 42.2025065,26.6093568 C43.2888166,23.3995338 43.2425946,20.3127688 42.2025065,16.195157 C41.4551869,13.2304766 40.0278646,11 37.0000711,11 L33.0952083,11 Z M27.2500435,35.7098388 C28.3286497,35.7098399 29.2024741,36.5802048 29.2024741,37.6565286 C29.2024733,38.7366818 28.3286486,39.6151626 27.2500435,39.6151626 C26.1752898,39.6151626 25.2976129,38.7366818 25.2976129,37.6565286 C25.2976136,36.5802048 26.1752887,35.7098388 27.2500435,35.7098388 Z" id="path1950" fill="url(#linearGradient-23)"></path>
        </g>
        <g id="Ruby_logo" transform="translate(95.000000, 33.000000)">
            <polygon id="polygon3282" fill="url(#linearGradient-24)" points="29.5125198 25.2162659 8 38 35.8546434 36.1084184 38 8"></polygon>
            <polygon id="polygon3293" fill="url(#linearGradient-25)" points="36 37 33.3146331 19 26 28.3801358"></polygon>
            <polygon id="polygon3304" fill="url(#linearGradient-26)" points="35 36.2708443 17.9892752 35 8 38"></polygon>
            <polygon id="polygon3319" fill="url(#linearGradient-27)" points="8.4556213 38 13 23 3 25.1544118"></polygon>
            <polygon id="polygon3334" fill="url(#linearGradient-28)" points="28 30 23.8568462 13 12 24.6424615"></polygon>
            <polygon id="polygon3349" fill="url(#linearGradient-29)" points="37 12.9794693 26.0493726 3 23 14"></polygon>
            <polygon id="polygon3362" fill="url(#linearGradient-30)" points="32 0.0529380625 24.6420651 4 20 0"></polygon>
            <polygon id="polygon3375" fill="url(#linearGradient-31)" points="0 31 3 25.523818 0.573248408 19"></polygon>
            <path d="M0,18.8808434 L2.13564106,25 L11.4154658,22.8969385 L22.0101025,12.9509642 L25,3.35784498 L20.2921186,0 L12.2881073,3.02581226 C9.76637944,5.39506265 4.87297578,10.0829144 4.69655326,10.1710813 C4.52198782,10.261124 1.46523548,16.0970211 0,18.8808434 Z" id="path3377" fill="#FFFFFF"></path>
            <path d="M8.63476815,7.94524132 C14.1403305,2.47866962 21.2378852,-0.751066365 23.96167,2.00095345 C26.6837712,4.75297327 23.7970457,11.4409996 18.2914833,16.9056979 C12.785921,22.3703962 5.77629066,25.7781049 3.05437656,23.0260851 C0.330591729,20.2759387 3.12920581,13.4099396 8.63476815,7.94524132 Z" id="path3400" fill="url(#linearGradient-32)"></path>
            <path d="M8,38 L12.3970439,23 L27,27.8316165 C21.720085,32.9306656 15.8477425,37.2412837 8,38 Z" id="path3413" fill="url(#linearGradient-33)"></path>
            <path d="M23,13.9531003 L26.7337676,29 C31.126548,24.3007675 35.0691307,19.2487514 37,13 L23,13.9531003 Z" id="path3424" fill="url(#linearGradient-34)"></path>
            <path d="M37.1100618,13 C38.6208179,8.18685121 38.969454,1.28200692 31.8454641,0 L26,3.40846178 L37.1100618,13 L37.1100618,13 Z" id="path3435" fill="url(#linearGradient-35)"></path>
            <path d="M0,29.9730636 C0.21047503,37.8143174 5.67308161,37.9311764 8,38 L2.62509135,25 L0,29.9730636 Z" id="path3437" fill="#9E1209"></path>
            <path d="M23,13.8939268 C26.4080767,15.8983217 33.2766472,19.9237685 33.4159103,19.9977997 C33.6323483,20.1143989 36.3771846,15.5688828 37,13 L23,13.8939268 Z" id="path3448" fill="url(#radialGradient-36)"></path>
            <path d="M13,23 L19.0522841,35 C22.6309744,33.0054274 25.4333245,30.5753053 28,27.9721845 L13,23 Z" id="path3459" fill="url(#radialGradient-37)"></path>
            <path d="M2.83269231,25.0026528 L2,35.6291948 C3.57115385,37.9292765 5.73269231,38.129194 8,37.9498865 C6.35961538,33.5743728 3.08269231,24.8254064 2.83269231,25.0026528 Z" id="path3472" fill="url(#linearGradient-38)"></path>
            <path d="M25,2.65615142 L37,4 C36.3595783,1.83438486 34.3928513,0.436908517 31.0405205,0 L25,2.65615142 Z" id="path3485" fill="url(#linearGradient-39)"></path>
        </g>
        <g id="golang-icon" transform="translate(42.000000, 166.000000)">
            <path d="M29.7856607,15.99999 C30.3874447,16.0014144 30.8100632,15.850782 30.9613654,15.3040181 C31.1047288,14.7860275 30.8498345,14.1202533 30.1844632,14.0241049 C29.7963235,13.9679827 28.8686641,14.0114987 28,14.13756 C28.2019696,14.6739968 28.3843261,15.2585791 28.5464466,15.8813358 C29.0182539,15.9555481 29.4551154,15.9992066 29.7856607,15.99999 Z" id="path3236" stroke="#000000" stroke-width="0.5" fill="#FFFFFF" fill-rule="nonzero" stroke-linecap="round" stroke-linejoin="round"></path>
            <path d="M30.6974462,32.132978 C30.0515285,31.483061 29.1292922,31.0777364 28.1385123,31 C27.8225227,31.7801021 27.439751,32.4092701 27,32.9428346 C27.8633425,33.0618528 28.4344367,33.4282731 29.1155069,33.8402258 C30.1621172,34.4731401 31.6435771,33.0851233 30.6974462,32.132978 Z" id="path3238" stroke="#000000" stroke-width="0.5" fill="#FFFFFF" fill-rule="nonzero" stroke-linecap="round" stroke-linejoin="round"></path>
            <path d="M12.0001042,39.0125886 C11.9841051,40.2804702 13.8147013,40.3011601 14.1804485,39.2251007 C14.3956924,38.5918538 14.5693882,38.0378967 15,37.5091081 C14.2482897,37.4524634 13.5050131,37.2931897 12.7963392,37 C12.312583,37.6313546 12.009034,38.3021964 12.0001042,39.0125886 Z" id="path3240" stroke="#000000" stroke-width="0.5" fill="#FFFFFF" fill-rule="nonzero" stroke-linecap="round" stroke-linejoin="round"></path>
            <path d="M2.34312928,12.2574094 C1.92252405,12.302681 1.54574171,11.989858 1.50144615,11.558776 C1.45715059,11.1276249 1.76222275,10.7414689 2.18282798,10.6962665 C2.28114251,10.6856916 2.37675609,10.6953679 2.46663016,10.720803 C2.43914801,10.1040039 2.46554978,9.53268379 2.5421892,9 C0.860375985,9.0642787 0.0897278051,10.0687543 0.00633601486,11.2897731 C-0.0821200542,12.5851617 0.758617744,13.8794444 2.34002319,13.9925887 C2.58655228,14.0102135 2.80559922,13.9959754 3,13.9544362 C2.83422928,13.3244358 2.70708212,12.7309292 2.61815338,12.1717736 C2.53482911,12.2164922 2.44232162,12.2467654 2.34312928,12.2574094 L2.34312928,12.2574094 Z" id="path3242" stroke="#000000" stroke-width="0.5" fill="#D0B698" fill-rule="nonzero" stroke-linecap="round" stroke-linejoin="round"></path>
            <path d="M2.61165671,11.0053851 C2.23644493,11.0630659 1.96429743,11.5550707 2.00381242,12.1043161 C2.04332742,12.6535614 2.37950609,13.052132 2.75465764,12.9944511 C2.84314473,12.9808895 2.92566843,12.9423181 3,12.8853417 C2.92747552,12.2345604 2.88302115,11.6197085 2.86482979,11.0365592 C2.7846553,11.0042402 2.69936073,10.9919115 2.61165671,11.0053851 L2.61165671,11.0053851 Z" id="path3244" fill="#000000" fill-rule="nonzero"></path>
            <path d="M21.2607578,2.81036569 C21.2929782,2.76676791 21.3298646,2.72592705 21.372615,2.68938186 C21.6751464,2.43132148 22.1265475,2.47171354 22.3806537,2.77978313 C22.6307875,3.08298004 22.5962972,3.53184481 22.3067548,3.79202096 C22.6604858,4.15837053 23.0116946,4.56004712 23.3523735,5 C23.4596278,4.88177308 23.5615225,4.74059322 23.6567335,4.57299823 C24.3967312,3.26942465 23.8569919,1.93616612 22.8309829,1.33387563 C21.9407284,0.81127932 20.8852102,0.842503023 20,1.857626 C20.1165231,1.93328097 20.2310916,2.01156463 20.3435163,2.09228463 C20.6414448,2.30610609 20.9490836,2.5455733 21.2607578,2.81036569 Z" id="path3246" stroke="#000000" stroke-width="0.5" fill="#D0B698" fill-rule="nonzero" stroke-linecap="round" stroke-linejoin="round"></path>
            <path d="M21.8699113,2.20457457 C21.672527,1.9625061 21.3218882,1.93071729 21.0868883,2.13354095 C21.0536317,2.16225667 21.0249792,2.19434775 21,2.2286051 C21.2688933,2.45969107 21.5416558,2.71611741 21.8125572,3 C22.0374186,2.79551385 22.06421,2.44276391 21.8699113,2.20457457 L21.8699113,2.20457457 Z" id="path3248" fill="#000000" fill-rule="nonzero"></path>
            <path d="M9.03758953,35.7090143 C9.13224009,36.0880131 9.65233183,36.1098266 10,35.6973688 C9.81984291,35.1674136 9.68083401,34.5964386 9.57344014,34 C9.20315506,34.4367915 8.88924203,35.1146614 9.03758953,35.7090143 L9.03758953,35.7090143 Z" id="path3250" stroke="#000000" stroke-width="0.5" fill="#FFFFFF" fill-rule="nonzero" stroke-linecap="round" stroke-linejoin="round"></path>
            <path d="M29.1852516,15.5576554 C29.0421681,14.9798142 28.8810788,14.4373941 28.7027398,13.9396471 C28.2547275,12.6892657 27.697925,11.7219896 27.0429158,11.1937777 C26.4145027,8.37528166 25.2088761,6.19377233 23.8503385,4.53479169 C23.4790222,4.0813872 23.0962291,3.66730288 22.710687,3.28969711 C22.3305741,2.91731199 21.9478497,2.58100891 21.5705544,2.27781407 C21.2308513,2.00488585 20.8955465,1.75806094 20.5708939,1.53773583 C20.4483589,1.45453568 20.3234185,1.37391281 20.1964851,1.29586724 C17.5825646,-0.308792103 14.0159908,-0.764245202 9.22104282,1.92875672 C5.87926554,3.80561735 3.55721621,5.53808376 3.08762454,8.60657676 C3.00969143,9.11595466 2.98282032,9.66214152 3.0107223,10.251878 C3.03147697,10.6894883 3.08226407,11.150889 3.16493914,11.6392521 C3.25544876,12.1738081 3.38492493,12.7412741 3.55357383,13.3436987 C3.72077953,13.9407705 3.92640198,14.5720079 4.17435848,15.2426976 C5.00873757,17.4994109 6.52877685,19.6696859 7.39078303,20.9257504 C8.2641974,22.1984022 9.09170409,24.5549028 9.22097409,26.8744622 C9.3182874,28.6200133 9.0985765,31.0466955 9.77935727,33.0831497 C9.93103132,33.5366864 10.1275135,33.9709264 10.3820675,34.3738425 C10.8316604,35.085901 11.4623414,35.7008155 12.3492944,36.1527001 C12.5606897,36.2603514 12.7758648,36.3559093 12.9937888,36.4411581 C13.7791677,36.748318 14.6029632,36.9151809 15.4359679,36.9745246 C18.9045411,37.2216139 22.5302175,35.6146416 24.1783585,34.606261 C25.6959924,33.6778425 27.0237417,33.0017999 28.0229899,31.7625868 C28.4176036,31.2731664 28.7610866,30.6960521 29.0446421,29.9804911 C29.3768544,29.1420133 29.62701,28.1138736 29.7810894,26.8149203 C30.222298,23.0965541 29.9830695,18.7801249 29.1852516,15.5576554 L29.1852516,15.5576554 Z" id="path3252" stroke="#000000" stroke-width="0.5" fill="#D0B698" fill-rule="nonzero" stroke-linecap="round" stroke-linejoin="round"></path>
            <circle id="ellipse3254" stroke="#000000" stroke-width="0.5" fill="#FFFFFF" fill-rule="nonzero" stroke-linecap="round" stroke-linejoin="round" cx="15.5" cy="4.5" r="3.5"></circle>
            <circle id="ellipse3256" stroke="#000000" stroke-width="0.5" fill="#FFFFFF" fill-rule="nonzero" stroke-linecap="round" stroke-linejoin="round" cx="8.5" cy="8.5" r="3.5"></circle>
            <circle id="circle3258" fill="#000000" fill-rule="nonzero" cx="18" cy="4" r="1"></circle>
            <ellipse id="circle3260" fill="#FFFFFF" fill-rule="nonzero" cx="18.1904174" cy="4.19041479" rx="1" ry="1"></ellipse>
            <circle id="circle3262" fill="#000000" fill-rule="nonzero" cx="10" cy="8" r="1"></circle>
            <ellipse id="circle3264" fill="#FFFFFF" fill-rule="nonzero" cx="10.1904174" cy="8.19041479" rx="1" ry="1"></ellipse>
            <path d="M14.0317072,12.0550216 C13.4393582,12.353729 13.4616694,12.684455 13,13.0308257 C13.1228953,13.3817042 13.2889418,13.8501168 13.4889454,14.4010616 C13.9397656,15.6426266 15.2553884,14.6825334 14.9562105,13.955851 C14.7368379,13.4228047 14.3447376,12.4704013 14.1511087,12 C14.1129223,12.0161087 14.0733874,12.0340073 14.0317072,12.0550216 L14.0317072,12.0550216 Z" id="path3266" stroke="#000000" stroke-width="0.5" fill="#FFFFFF" fill-rule="nonzero" stroke-linecap="round" stroke-linejoin="round"></path>
            <path d="M16.3274543,11 C15.714041,11.3449177 15.52149,11.0183894 15,11.3011849 C15.1751421,11.849468 15.5298064,12.959556 15.7282343,13.5808561 C15.998848,14.4278516 17.391946,13.9440859 16.893021,12.5535978 C16.6664838,11.9220986 16.4722141,11.3915094 16.3274543,11 Z" id="path3268" stroke="#000000" stroke-width="0.5" fill="#FFFFFF" fill-rule="nonzero" stroke-linecap="round" stroke-linejoin="round"></path>
            <path d="M21.5381163,19.2590958 C21.0948541,19.0596126 20.2647367,18.9484963 19.5013587,19.023582 C19.4309151,19.4076234 19.2873633,19.7862734 19,20.1640029 C19.6375671,20.5392997 20.2494652,20.7967738 20.7499141,20.9339268 C21.2348966,21.0667403 21.6113543,21.024858 21.8625211,20.5703991 C22.1004959,20.1398072 22.0521471,19.490336 21.5381163,19.2590958 L21.5381163,19.2590958 Z" id="path3270" stroke="#000000" stroke-width="0.5" fill="#FFFFFF" fill-rule="nonzero" stroke-linecap="round" stroke-linejoin="round"></path>
            <path d="M18,21 C18.6053723,20.6767462 19.0276367,20.3558302 19.322997,20.0342648 C19.665801,19.6612048 19.8370479,19.2873006 19.9210822,18.9079417 C19.9872863,18.6093638 20,18.3074742 20,18" id="path3272" stroke="#000000" stroke-width="0.5" stroke-linecap="round" stroke-linejoin="round"></path>
            <path d="M16.2196074,9.14911365 C15.8014497,8.97413135 15.3921058,8.95801456 14.9082,9.07529735 C14.825393,9.521265 14.3427666,10.0226995 13.6488224,10.3259882 C12.9813906,10.6176952 12.305927,10.6442076 11.9056101,10.4340614 C11.4666262,10.7340012 11.1985163,11.062686 11.059699,11.5109561 C10.7873954,12.3905421 11.4912195,13.2233128 12.2671889,12.9456295 C12.6110691,12.8225558 12.8481886,12.7006683 13.0246067,12.5805947 C13.5599737,12.2160482 13.5341009,11.8679674 14.2210083,11.5535853 C14.269342,11.5314683 14.315188,11.5126305 14.3595413,11.4956765 C15.0281103,11.2403196 15.2749676,11.5351661 16.0613856,11.2237144 C16.2079505,11.165666 16.3727827,11.0870356 16.5631322,10.9793113 C17.2786134,10.5742984 17.0811559,9.50982277 16.2196074,9.14911365 L16.2196074,9.14911365 Z" id="path3274" stroke="#000000" stroke-width="0.5" fill="#AC967B" fill-rule="nonzero" stroke-linecap="round" stroke-linejoin="round"></path>
            <path d="M13.8699946,9.78892829 C14.4864071,9.52825908 14.9151114,9.09728839 14.9886667,8.71399013 C15.0108911,8.59813715 15.0010417,8.48660167 14.9536885,8.38544019 C14.7495015,7.94979221 13.9331954,7.87177734 13.1304007,8.211181 C12.3276692,8.55064462 11.8424567,9.17908108 12.0466437,9.6146691 C12.1000582,9.72860319 12.1955854,9.81783157 12.3215449,9.88175459 C12.6771359,10.0623701 13.2771325,10.0396433 13.8699946,9.78892829 L13.8699946,9.78892829 Z" id="path3276" fill="#000000" fill-rule="nonzero"></path>
            <path d="M30,15.1175282 C29.7270661,15.0711411 29.3297696,15.0121654 29,15" id="path3278" stroke="#000000" stroke-width="0.5" stroke-linecap="round" stroke-linejoin="round"></path>
            <path d="M31,33 C30.8917511,32.7362066 30.5983249,32.2225525 30,32" id="path3280" stroke="#000000" stroke-width="0.5" stroke-linecap="round" stroke-linejoin="round"></path>
            <path d="M13.0929563,41 C13.0093313,40.5947918 12.9238022,39.8651285 13.1173932,39" id="path3282" stroke="#000000" stroke-width="0.5" stroke-linecap="round" stroke-linejoin="round"></path>
            <path d="M22,20.3363466 C21.7317266,20.2306664 21.3383955,20.0852106 21,20" id="path3284" stroke="#000000" stroke-width="0.5" stroke-linecap="round" stroke-linejoin="round"></path>
        </g>
        <g id="Java_programming_language_logo" transform="translate(331.000000, 130.000000)" fill-rule="nonzero">
            <path d="M9.99487919,32 C9.99487919,32 8.40902073,32.8069983 11.1234807,33.0800759 C14.4119726,33.4083564 16.0926828,33.3612774 19.7166233,32.7610938 C19.7166233,32.7610938 20.6693912,33.2838564 22,33.7366368 C13.8760827,36.7833612 3.61397444,33.560164 9.99487919,32" id="Shape" fill="#5382A1"></path>
            <path d="M8.23817435,28 C8.23817435,28 6.45578036,29.1753552 9.17790465,29.4261829 C12.6980823,29.7497026 15.4780431,29.7761633 20.2884445,28.9509883 C20.2884445,28.9509883 20.9537879,29.5518963 22,29.8805084 C12.1572667,32.4445023 1.19423222,30.0827083 8.23817435,28" id="Shape" fill="#5382A1"></path>
            <path d="M17.784968,19.5506617 C19.7310442,21.8925743 17.2736554,24 17.2736554,24 C17.2736554,24 22.2150753,21.3336933 19.9457042,17.9948425 C17.8261818,14.8811582 16.2007906,13.3340911 25,8 C25,8 11.1881436,11.6056178 17.784968,19.5506617" id="Shape" fill="#F8981D"></path>
            <path d="M28.193596,35.3181211 C28.193596,35.3181211 29.3762158,36.1945297 26.8911588,36.8725425 C22.1657521,38.1600369 7.22351177,38.5488196 3.07262019,36.9238395 C1.58048141,36.3400064 4.37866431,35.5297973 5.25886613,35.3597872 C6.17682793,35.1807545 6.70140973,35.2141077 6.70140973,35.2141077 C5.04199991,34.1627216 -4.02433812,37.2785594 2.09615862,38.1708843 C18.7876437,40.6054652 32.523143,37.0745878 28.193596,35.3181211" id="Shape" fill="#5382A1"></path>
            <path d="M11.3400814,23.0055485 C11.3400814,23.0055485 3.74280026,24.4770516 8.64969457,25.0114087 C10.721537,25.2376101 14.8517016,25.1864345 18.6988456,24.9235742 C21.8429444,24.7072956 25,24.2474508 25,24.2474508 C25,24.2474508 23.8913519,24.6346208 23.0892721,25.0812353 C15.3743661,26.7358495 0.47059849,25.9661034 4.76120166,24.2736358 C8.38977068,22.8432936 11.3400814,23.0055485 11.3400814,23.0055485" id="Shape" fill="#5382A1"></path>
            <path d="M24.1660862,30.8002777 C32.4297964,26.8374944 28.608982,23.0292959 25.9421049,23.5423509 C25.2884445,23.6679032 24.9969923,23.7766932 24.9969923,23.7766932 C24.9969923,23.7766932 25.2396515,23.4258919 25.7031259,23.274046 C30.9790646,21.5623287 35.0366024,28.3225384 24,30.9999999 C24,31.0001095 24.1278591,30.8946062 24.1660862,30.8002777" id="Shape" fill="#5382A1"></path>
            <path d="M19.8625836,0 C19.8625836,0 24.295752,4.35761521 15.657916,11.0583964 C8.73124842,16.4335757 14.07842,19.498359 15.655041,23 C11.6118304,19.4154171 8.64465501,16.2598949 10.6352684,13.3230274 C13.5570196,9.01196816 21.6512607,6.92180898 19.8625836,0" id="Shape" fill="#F8981D"></path>
            <path d="M10.8462996,41.8672935 C18.2933571,42.3539481 29.7291574,41.5972839 30,38 C30,38 29.4793803,39.3637023 23.8454079,40.4466992 C17.4891886,41.66783 9.64968792,41.5252586 5,40.7426516 C5.00011146,40.7425378 5.9518502,41.5468776 10.8462996,41.8672935" id="Shape" fill="#5382A1"></path>
        </g>
        <g id="Node.js_logo" transform="translate(248.000000, 51.000000)" fill-rule="nonzero" fill="#689F63">
            <path d="M15.990487,38.5993524 L11.1637369,35.7747871 C10.4428187,35.3762858 10.7945921,35.2353438 11.0323648,35.1541411 C11.9935891,34.8214605 12.1886568,34.7463391 13.2146624,34.1704082 C13.3225106,34.1095956 13.4636542,34.1310589 13.5740358,34.1954487 L17.2821321,36.3703926 C17.4160376,36.4419368 17.6060387,36.4419368 17.7301727,36.3703926 L32.1883466,28.1213454 C32.3222521,28.046224 32.4091097,27.8924039 32.4091097,27.7350067 L32.4091097,11.2440666 C32.4091097,11.079515 32.3222521,10.9328493 32.1854513,10.8505735 L17.7330679,2.6086807 C17.5991624,2.52998207 17.4218281,2.52998207 17.2879227,2.6086807 L2.83843449,10.8505735 C2.69837659,10.9292721 2.60934753,11.0830922 2.60934753,11.2404894 L2.60934753,27.7314295 C2.60934753,27.8888267 2.69620515,28.0390696 2.83372971,28.114191 L6.79298935,30.374988 C8.94271533,31.4374195 10.2564368,30.1853958 10.2564368,28.9262177 L10.2564368,12.6499103 C10.2564368,12.4173917 10.4410092,12.2385311 10.6762486,12.2385311 L12.5074966,12.2385311 C12.7354979,12.2385311 12.9236894,12.4173917 12.9236894,12.6499103 L12.9236894,28.9333722 C12.9236894,31.7665228 11.3602523,33.3941536 8.64233275,33.3941536 C7.8063282,33.3941536 7.14765795,33.3941536 5.30917175,32.4998509 L1.5163892,30.3392159 C0.57905077,29.8026343 0,28.8010154 0,27.7314295 L0,11.2404894 C0,10.1673263 0.57905077,9.16570739 1.5163892,8.63628025 L15.9890394,0.383655817 C16.9046634,-0.127885272 18.12067,-0.127885272 19.0290559,0.383655817 C21.6733032,1.89400595 23.6564887,3.02676854 24.9786123,3.78194361 C26.868612,4.86148002 29.7036115,6.48078464 33.4836108,8.63985746 C34.4173302,9.17286181 35,10.1709035 35,11.2440666 L35,27.7350067 C35,28.8045926 34.4173302,29.8026343 33.4836108,30.3392159 L19.0290559,38.5918403 C18.5658153,38.8565539 18.0410506,38.9924879 17.5054286,38.9924879 C16.9784924,39 16.4537276,38.8629928 15.990487,38.5993524 Z" id="Shape"></path>
            <path d="M21.5780925,26.9835056 C15.3134883,26.9835056 14,24.167518 14,21.8056541 C14,21.5810489 14.1849277,21.4020667 14.4146537,21.4020667 L16.2639305,21.4020667 C16.4682111,21.4020667 16.6402368,21.5477091 16.6724916,21.7452915 C16.9520335,23.5905635 17.7834913,24.5212712 21.5716416,24.5212712 C24.5892599,24.5212712 25.8722852,23.8537727 25.8722852,22.2868005 C25.8722852,21.3848703 25.5067305,20.7145642 20.8190289,20.2653539 C16.8982754,19.8863326 14.4755795,19.0405537 14.4755795,15.9697797 C14.4755795,13.1411581 16.9126109,11.4566192 20.9946385,11.4566192 C25.5784079,11.4566192 27.8505813,13.0148177 28.1372909,16.3628388 C28.1480425,16.4786508 28.1050361,16.5909534 28.0261909,16.6751803 C27.9473458,16.7558978 27.8362458,16.8050302 27.721562,16.8050302 L25.8615336,16.8050302 C25.6680046,16.8050302 25.4995628,16.6716709 25.4601402,16.4891792 C25.0121565,14.54845 23.9298278,13.9272763 20.9874708,13.9272763 C17.6938945,13.9272763 17.3104205,15.0503022 17.3104205,15.8925717 C17.3104205,16.9138234 17.761988,17.2121271 22.2059865,17.7876779 C26.6069785,18.3597192 28.6963746,19.1668941 28.6963746,22.1955547 C28.6963746,25.2487814 26.0944851,27 21.5573061,27 L21.5780925,26.9835056 Z" id="Shape"></path>
        </g>
    </g>
</svg>