<?xml version="1.0" encoding="UTF-8"?>
<svg width="111px" height="29px" viewBox="0 0 111 29" version="1.1" xmlns="http://www.w3.org/2000/svg" xmlns:xlink="http://www.w3.org/1999/xlink">
    <!-- Generator: Sketch 44.1 (41455) - http://www.bohemiancoding.com/sketch -->
    <title>Shape Copy</title>
    <desc>Created with Sketch.</desc>
    <defs>
        <linearGradient x1="100%" y1="93.8789062%" x2="0%" y2="-10.5507812%" id="linearGradient-1">
            <stop stop-color="#5EC1ED" offset="0%"></stop>
            <stop stop-color="#4AC998" offset="100%"></stop>
        </linearGradient>
    </defs>
    <g id="Page-1" stroke="none" stroke-width="1" fill="none" fill-rule="evenodd">
        <g id="controlle" transform="translate(-725.000000, -8484.000000)" fill-rule="nonzero" fill="url(#linearGradient-1)">
            <g id="Group-17" transform="translate(725.000000, 8484.000000)">
                <path d="M25.0296882,7.07166195 L18.4583387,0.500312526 C18.1355734,0.177941466 17.70649,0.00039425731 17.2505972,0.00039425731 L16.0678252,0.00039425731 L16.0678252,5.25715839 C16.0678252,7.85110865 17.6792863,9.4625697 20.2732366,9.4625697 L22.113104,9.4625697 L22.113104,23.3113834 C22.113104,24.5433061 21.1109019,25.5455081 19.8789792,25.5455081 L5.65102144,25.5455081 C4.41909877,25.5455081 3.41689669,24.5433061 3.41689669,23.3113834 L3.41689669,5.6514157 C3.41689669,4.41949303 4.41909877,3.41729094 5.65102144,3.41729094 L11.0566834,3.41729094 L11.0566834,13.2880484 L9.95026599,12.1817624 C9.62750067,11.8592599 9.19854872,11.6817127 8.74239301,11.6817127 C8.2862373,11.6817127 7.85715393,11.8593913 7.53425719,12.1821566 C6.86848802,12.8480572 6.86848802,13.9318706 7.53438861,14.5981654 L11.5569959,18.6207727 L11.5709264,18.6345718 C11.5798629,18.6429826 11.5889308,18.651262 11.5982615,18.65941 C11.6245454,18.6841168 11.6526691,18.7094806 11.6889407,18.7393128 C11.7065509,18.7533746 11.7245553,18.7669108 11.7463709,18.7826811 C11.7684493,18.7995027 11.7913162,18.8163244 11.822594,18.83722 C11.8454609,18.8522018 11.8689849,18.8663951 11.8986856,18.8837424 C11.9194498,18.89649 11.9403455,18.9085806 11.9530931,18.915283 C11.9789827,18.9293448 12.0050037,18.9420925 12.0412753,18.9591769 C12.0658507,18.9708732 12.0901632,18.9821753 12.1180241,18.9934773 C12.1450964,19.0045165 12.1721688,19.0141101 12.1917502,19.0208125 C12.2169827,19.0300118 12.2422152,19.0389483 12.2704703,19.0474906 C12.2967541,19.0555071 12.3227751,19.0620781 12.3508987,19.0689119 C12.3629893,19.0719345 12.3752113,19.0750886 12.387039,19.0778484 L12.435007,19.0886248 C12.4606337,19.0937501 12.4870489,19.0976927 12.5078132,19.1003211 L12.5246348,19.1029494 C12.5501301,19.1070234 12.5757568,19.1105717 12.6011207,19.1129373 C12.7101986,19.1229251 12.8211163,19.1229251 12.9286171,19.1129373 C12.9542439,19.1104403 12.9798706,19.1070234 12.9984007,19.1038694 L13.0162737,19.1013724 C13.041769,19.0980869 13.0672643,19.0941444 13.0959136,19.0884933 L13.1450644,19.0773227 C13.1572864,19.0744315 13.170034,19.071146 13.1843587,19.0675977 C13.2094598,19.061421 13.2345608,19.0549815 13.2620274,19.0467021 C13.2863399,19.0393426 13.3101268,19.0310632 13.3394332,19.0204182 C13.3655856,19.0113503 13.3914752,19.0018881 13.4144736,18.992426 C13.439706,18.9821753 13.46415,18.9708732 13.4938507,18.9568114 L13.508044,18.9499776 C13.5277568,18.9406468 13.5474697,18.9310533 13.5742792,18.91686 C13.5942549,18.9059522 13.614362,18.8942559 13.6340749,18.8821653 L13.6481367,18.8737545 C13.667981,18.8620582 13.6879567,18.8500991 13.7163432,18.8314376 C13.7381588,18.8168501 13.7594487,18.8012112 13.7870467,18.7803155 C13.805314,18.7669108 13.823187,18.753506 13.8503907,18.7316905 C13.8790401,18.708035 13.9063753,18.6835911 13.9331848,18.6580958 C13.9468523,18.6460052 13.9605199,18.6332576 13.9760274,18.6176187 L17.9957435,14.5976397 C18.6617755,13.9313449 18.6615127,12.8475315 17.9957435,12.1818938 C17.673241,11.858997 17.2441576,11.681187 16.7877391,11.681187 C16.331452,11.681187 15.9025,11.8588656 15.5794719,12.1814995 L14.4735801,13.2875227 L14.4735801,1.70844834 C14.4735801,0.766436211 13.7071439,0 12.7651318,0 L5.65102144,0 C2.5350745,0 0,2.5350745 0,5.65102144 L0,23.3113834 C0,26.4273303 2.5350745,28.9624048 5.65102144,28.9624048 L19.8789792,28.9624048 C22.9949262,28.9624048 25.5300007,26.4273303 25.5300007,23.3113834 L25.5300007,8.27979777 C25.5298693,7.82377348 25.3524535,7.39482152 25.0296882,7.07166195 Z M39.0664062,23.51269 L39.0664062,7.4081978 L41.4360352,7.4081978 L48.3652344,19.4135689 L48.4101562,19.4135689 L48.4101562,7.4081978 L50.7348633,7.4081978 L50.7348633,23.51269 L48.4101562,23.51269 L41.4135742,11.5073189 L41.3686523,11.5073189 L41.3686523,23.51269 L39.0664062,23.51269 Z M55.5164453,23.51269 L55.5164453,7.4081978 L65.3880274,7.4081978 L65.3880274,9.55321733 L57.8186914,9.55321733 L57.8186914,14.8427681 L64.7478907,14.8427681 L64.7478907,16.8642525 L57.8186914,16.8642525 L57.8186914,23.51269 L55.5164453,23.51269 Z M69.1476368,23.51269 L69.1476368,7.4081978 L78.9967579,7.4081978 L78.9967579,9.55321733 L71.4498829,9.55321733 L71.4498829,14.2250923 L78.3566211,14.2250923 L78.3566211,16.2690376 L71.4498829,16.2690376 L71.4498829,21.4013619 L78.9967579,21.4013619 L78.9967579,23.51269 L69.1476368,23.51269 Z M83.205586,23.51269 L83.205586,20.6601509 L86.1255079,20.6601509 L86.1255079,23.51269 L83.205586,23.51269 Z M91.0418556,23.51269 L91.0418556,7.4081978 L93.3328712,7.4081978 L93.3328712,23.51269 L91.0418556,23.51269 Z M97.31709,15.3256783 C97.31709,13.9855023 97.5098778,12.7801107 97.8954591,11.7094673 C98.2810405,10.638824 98.7976369,9.77221478 99.4452638,9.10961381 C100.092891,8.44701284 100.822864,7.9416468 101.635205,7.59350053 C102.447547,7.24535426 103.302925,7.07128373 104.201367,7.07128373 C105.084835,7.07128373 105.928984,7.24909771 106.733838,7.604731 C107.538692,7.96036429 108.261179,8.47321723 108.901318,9.14330522 C109.541458,9.8133932 110.05244,10.6874893 110.434277,11.7656197 C110.816115,12.8437501 111.007031,14.0528851 111.007031,15.3930611 C111.007031,16.5909837 110.881626,17.6728414 110.630811,18.6386665 C110.379996,19.6044917 110.041213,20.4074622 109.614453,21.0476021 C109.187693,21.687742 108.680456,22.2230557 108.092725,22.6535591 C107.504994,23.0840626 106.889196,23.3928974 106.245313,23.5800728 C105.601429,23.7672482 104.920121,23.8608345 104.201367,23.8608345 C103.475127,23.8608345 102.78446,23.7635048 102.129346,23.5688423 C101.474232,23.3741799 100.850947,23.0597299 100.259473,22.625483 C99.6679985,22.191236 99.1570173,21.6503072 98.7265138,21.0026802 C98.2960103,20.3550533 97.9534845,19.5464676 97.6989259,18.576899 C97.4443673,17.6073303 97.31709,16.5236009 97.31709,15.3256783 Z M99.7316408,15.3256783 C99.7316408,16.4112957 99.8476878,17.3696194 100.079785,18.2006783 C100.311883,19.0317371 100.631948,19.6980716 101.03999,20.1997017 C101.448033,20.7013318 101.917836,21.0794205 102.449414,21.333979 C102.980992,21.5885376 103.564971,21.715815 104.201367,21.715815 C105.504108,21.715815 106.561633,21.1936034 107.373975,20.1491646 C108.186316,19.1047258 108.592481,17.5193738 108.592481,15.3930611 C108.592481,14.3748268 108.474562,13.4651679 108.238721,12.6640572 C108.00288,11.8629464 107.680943,11.2172009 107.272901,10.7268013 C106.864858,10.2364017 106.40067,9.86392824 105.880322,9.60936967 C105.359975,9.35481111 104.800329,9.22753373 104.201367,9.22753373 C103.587432,9.22753373 103.016556,9.35106765 102.488721,9.5981392 C101.960886,9.84521075 101.489211,10.2101973 101.073682,10.6931099 C100.658152,11.1760225 100.3306,11.8142811 100.091016,12.6079048 C99.8514312,13.4015286 99.7316408,14.307444 99.7316408,15.3256783 Z" id="Shape-Copy"></path>
            </g>
        </g>
    </g>
</svg>