<?xml version="1.0" encoding="UTF-8"?>
<svg width="111px" height="29px" viewBox="0 0 111 29" version="1.1" xmlns="http://www.w3.org/2000/svg" xmlns:xlink="http://www.w3.org/1999/xlink">
    <!-- Generator: Sketch 44.1 (41455) - http://www.bohemiancoding.com/sketch -->
    <title>NFE.IO</title>
    <desc>Created with Sketch.</desc>
    <defs></defs>
    <g id="Page-1" stroke="none" stroke-width="1" fill="none" fill-rule="evenodd">
        <g id="controlle" transform="translate(-46.000000, -35.000000)" fill="#FFFFFF">
            <g id="Group-11" transform="translate(46.000000, 35.000000)">
                <path d="M39.0664062,23 L39.0664062,6.89550781 L41.4360352,6.89550781 L48.3652344,18.9008789 L48.4101562,18.9008789 L48.4101562,6.89550781 L50.7348633,6.89550781 L50.7348633,23 L48.4101562,23 L41.4135742,10.9946289 L41.3686523,10.9946289 L41.3686523,23 L39.0664062,23 Z M55.5164453,23 L55.5164453,6.89550781 L65.3880274,6.89550781 L65.3880274,9.04052734 L57.8186914,9.04052734 L57.8186914,14.3300781 L64.7478907,14.3300781 L64.7478907,16.3515625 L57.8186914,16.3515625 L57.8186914,23 L55.5164453,23 Z M69.1476368,23 L69.1476368,6.89550781 L78.9967579,6.89550781 L78.9967579,9.04052734 L71.4498829,9.04052734 L71.4498829,13.7124023 L78.3566211,13.7124023 L78.3566211,15.7563477 L71.4498829,15.7563477 L71.4498829,20.8886719 L78.9967579,20.8886719 L78.9967579,23 L69.1476368,23 Z M83.205586,23 L83.205586,20.1474609 L86.1255079,20.1474609 L86.1255079,23 L83.205586,23 Z M91.0418556,23 L91.0418556,6.89550781 L93.3328712,6.89550781 L93.3328712,23 L91.0418556,23 Z M97.31709,14.8129883 C97.31709,13.4728123 97.5098778,12.2674207 97.8954591,11.1967773 C98.2810405,10.126134 98.7976369,9.2595248 99.4452638,8.59692383 C100.092891,7.93432286 100.822864,7.42895682 101.635205,7.08081055 C102.447547,6.73266427 103.302925,6.55859375 104.201367,6.55859375 C105.084835,6.55859375 105.928984,6.73640773 106.733838,7.09204102 C107.538692,7.4476743 108.261179,7.96052725 108.901318,8.63061523 C109.541458,9.30070322 110.05244,10.1747993 110.434277,11.2529297 C110.816115,12.3310601 111.007031,13.5401951 111.007031,14.8803711 C111.007031,16.0782938 110.881626,17.1601514 110.630811,18.1259766 C110.379996,19.0918017 110.041213,19.8947722 109.614453,20.5349121 C109.187693,21.175052 108.680456,21.7103657 108.092725,22.1408691 C107.504994,22.5713726 106.889196,22.8802074 106.245313,23.0673828 C105.601429,23.2545582 104.920121,23.3481445 104.201367,23.3481445 C103.475127,23.3481445 102.78446,23.2508148 102.129346,23.0561523 C101.474232,22.8614899 100.850947,22.5470399 100.259473,22.112793 C99.6679985,21.678546 99.1570173,21.1376172 98.7265138,20.4899902 C98.2960103,19.8423633 97.9534845,19.0337776 97.6989259,18.064209 C97.4443673,17.0946403 97.31709,16.0109109 97.31709,14.8129883 Z M99.7316408,14.8129883 C99.7316408,13.794754 99.8514312,12.8888386 100.091016,12.0952148 C100.3306,11.3015911 100.658152,10.6633325 101.073682,10.1804199 C101.489211,9.69750735 101.960886,9.33252077 102.488721,9.08544922 C103.016556,8.83837767 103.587432,8.71484375 104.201367,8.71484375 C104.800329,8.71484375 105.359975,8.84212112 105.880322,9.09667969 C106.40067,9.35123825 106.864858,9.72371174 107.272901,10.2141113 C107.680943,10.7045109 108.00288,11.3502564 108.238721,12.1513672 C108.474562,12.952478 108.592481,13.8621368 108.592481,14.8803711 C108.592481,17.0066838 108.186316,18.5920358 107.373975,19.6364746 C106.561633,20.6809134 105.504108,21.203125 104.201367,21.203125 C103.564971,21.203125 102.980992,21.0758476 102.449414,20.8212891 C101.917836,20.5667305 101.448033,20.1886418 101.03999,19.6870117 C100.631948,19.1853816 100.311883,18.5190471 100.079785,17.6879883 C99.8476878,16.8569294 99.7316408,15.8986057 99.7316408,14.8129883 Z M24.0198724,6.96185645 C24.3296159,7.27999815 24.4998739,7.70228954 24.5,8.15123289 L24.5,22.949415 C24.5,26.0169789 22.0672024,28.51269 19.0769674,28.51269 L5.42303257,28.51269 C2.43279764,28.51269 0,26.0169789 0,22.949415 L0,5.56327499 C0,2.49571104 2.43279764,0 5.42303257,0 L12.2501261,0 C13.154133,0 13.8896476,0.754535343 13.8896476,1.68192035 L13.8896476,13.0812002 L14.9509225,11.9923508 C15.2609181,11.6747266 15.6725641,11.4998069 16.1104425,11.4998069 C16.548447,11.4998069 16.9602191,11.674856 17.2697103,11.992739 C17.9086192,12.648041 17.9088714,13.7150254 17.2697103,14.3709743 L13.4121685,18.3285329 C13.3972867,18.3439289 13.3841705,18.3564787 13.3710543,18.3683815 C13.3453265,18.3934809 13.3190941,18.4175453 13.2916006,18.4408334 C13.2654944,18.4623103 13.2483425,18.4755069 13.2308122,18.4887035 C13.2043276,18.5092747 13.1838967,18.5246707 13.1629612,18.5390317 C13.1357199,18.5574035 13.1165502,18.5691769 13.0975065,18.5806916 L13.084012,18.5889718 C13.0650944,18.6008746 13.0457985,18.6123893 13.0266287,18.6231277 C13.0009008,18.6371006 12.9819833,18.6465452 12.9630657,18.6557311 L12.9494451,18.6624588 C12.9209426,18.6763023 12.8974849,18.6874288 12.8732704,18.6975204 C12.8511999,18.7068356 12.8263549,18.7161509 12.8012576,18.725078 C12.7731335,18.7355576 12.7503063,18.7437085 12.7269746,18.7509537 C12.7006162,18.7591045 12.6765278,18.7654441 12.6524395,18.7715249 C12.6386927,18.7750181 12.6264594,18.7782525 12.6147305,18.7810989 L12.5675627,18.792096 C12.5400692,18.7976593 12.5156025,18.8015407 12.4911358,18.8047751 L12.4739839,18.8072333 C12.4562014,18.8103384 12.4316085,18.8137022 12.4070157,18.8161604 C12.303852,18.8259932 12.1974092,18.8259932 12.0927321,18.8161604 C12.0683915,18.8138316 12.0437986,18.8103384 12.0193319,18.8063277 L12.003189,18.8037401 C11.9832625,18.8011525 11.9579129,18.7972712 11.9333201,18.7922254 L11.8872874,18.7816164 C11.8759369,18.7788994 11.864208,18.7757943 11.8526052,18.7728186 C11.8256162,18.766091 11.800645,18.759622 11.7754216,18.7517299 C11.7483064,18.7433203 11.724092,18.7345226 11.6998775,18.7254661 C11.681086,18.7188678 11.6551059,18.7094232 11.6291258,18.6985554 C11.602389,18.6874288 11.5790574,18.6763023 11.5554735,18.6647876 C11.5206652,18.6479684 11.495694,18.6354187 11.4708489,18.6215752 C11.4586156,18.6149769 11.438563,18.6030741 11.4186365,18.5905243 C11.390134,18.5734464 11.3675591,18.5594735 11.3456147,18.5447244 C11.3155989,18.5241532 11.2936545,18.5075927 11.2724668,18.4910323 C11.2515314,18.4755069 11.2342534,18.4621809 11.2173537,18.4483374 C11.1825454,18.4189685 11.1555564,18.3939984 11.1303329,18.3696753 C11.1213786,18.3616538 11.1126766,18.353503 11.1041006,18.3452227 L11.0907322,18.331638 L7.23041583,14.3714918 C6.5913808,13.7155429 6.5913808,12.6485585 7.23028971,11.9929977 C7.54015927,11.6752442 7.95193139,11.5003244 8.38968363,11.5003244 C8.82743586,11.5003244 9.23908187,11.6751148 9.54882531,11.9926096 L10.6106046,13.0817177 L10.6106046,3.36422883 L5.42303257,3.36422883 C4.24081147,3.36422883 3.27904295,4.35086918 3.27904295,5.56366313 L3.27904295,22.949415 C3.27904295,24.1622089 4.24081147,25.1488493 5.42303257,25.1488493 L19.0769674,25.1488493 C20.2591885,25.1488493 21.220957,24.1622089 21.220957,22.949415 L21.220957,9.31563928 L19.4553185,9.31563928 C16.9660205,9.31563928 15.4195734,7.72920026 15.4195734,5.17552766 L15.4195734,0.000388135465 L16.5546267,0.000388135465 C16.9921267,0.000388135465 17.4038988,0.175178473 17.7136423,0.492543905 L24.0198724,6.96185645 Z" id="NFE.IO"></path>
            </g>
        </g>
    </g>
</svg>