<svg version="1.1" viewBox="0 0 4013 1333" xmlns="http://www.w3.org/2000/svg"><g transform="matrix(.97305 0 0 .96083 51.011 25.706)" fill-rule="evenodd"><path d="m2725.8 1222.6a110.04 109.1 0 0 1 -110.04 109.1 110.04 109.1 0 0 1 -110.04 -109.1 110.04 109.1 0 0 1 110.04 -109.1 110.04 109.1 0 0 1 110.04 109.1z"/><path d="m1165 784.9v429.33c0 65.509-53.474 118.61-119.37 118.61h-119.74c-39.426 0-71.409-16.871-95.24-43.866-23.831-26.994-48.146-69.306-62.006-90.461-161.55-246.7-484.82-740.13-484.82-740.13v770.89c0 57.207-46.862 103.58-104.46 103.58h-74.863c-57.7-0.1-104.47-46.5-104.47-103.6v-1096.1c0-73.565 60.233-133.2 134.3-133.2h74.944c63.117 0 103.97 40.491 134.61 80.983l508.45 774.17v-721.95c0.01-73.595 59.18-133.2 133.46-133.2h44.891c2.6384 0 5.259 0.075462 7.8597 0.22432 2.2-0.14877 4.5-0.22432 6.8-0.22432h717.2c57.675 0 104.43 46.47 104.43 103.67v44.416c0 57.256-46.877 104.98-104.43 104.98h-598.29v296.94h493.65c-60.001 30.422-164.48 117.49-179.63 233.37-0.067 0.51013-313.31 1.5192-313.31 1.5192z"/><path d="m1941.7 1332.8c-283.79 0-403.28-156.03-403.28-385.04s134.43-399.85 403.28-399.85c268.86 0 388.35 177.71 388.35 325.81 0 103.67-13.536 118.47-74.682 118.47h-507.84c0 18.574 3.2632 36.5 9.3803 53.239 23.147 63.338 87.157 109.66 169.86 109.66 44.809 0 104.56 0 164.3-44.428 29.511-21.945 40.801-33.051 50.071-38.67 15.976-10.98 33.63-17.642 48.26-18.025 68.105-1.7827 98.91 32.44 95.843 86.314-1.307 23.197-12.788 52.947-25.836 69.332-1.1264 1.5405-2.3351 2.9791-3.63 4.3044-2.8856 3.2318-5.9608 6.2493-9.2028 9.029-71.189 68.862-137.84 109.86-304.87 109.86zm-194.17-473.9h388.35c-31.939-89.606-89.815-148.09-191.18-148.09-96.09 0-164.18 58.488-197.16 148.09z"/><g transform="translate(2894.4 545.63)"><path d="m73.598 0.36664h44c40.442 0 73 32.558 73 73v640.21c0 40.442-32.558 73-73 73h-44c-40.442 0-73-32.558-73-73v-640.21c0-40.442 32.558-73 73-73z"/></g></g><path d="m3561.1 548.83a378.54 378.54 0 0 0 -136.7 25.56v705.51a378.54 378.54 0 0 0 136.7 26 378.54 378.54 0 0 0 1.3 0v-757a378.54 378.54 0 0 0 -1.3 -0.07zm52.2 4.07v749a378.54 378.54 0 0 0 41 -8v-732.92a378.54 378.54 0 0 0 -41 -8.08zm96.9 26.65v695.25a378.54 378.54 0 0 0 56 -29.4v-635.71a378.54 378.54 0 0 0 -56 -30.14zm-327.5 14.32a378.54 378.54 0 0 0 -23 13.15v640.38a378.54 378.54 0 0 0 23 13.6v-667.13zm438.6 59.22v548.91a378.54 378.54 0 0 0 118.3 -274.63 378.54 378.54 0 0 0 -118.3 -274.28zm-524.6 3.38a378.54 378.54 0 0 0 -114.2 270.9 378.54 378.54 0 0 0 114.2 270.43v-541.33z" stroke="#000" stroke-linecap="round" stroke-linejoin="round" stroke-width=".9373"/><rect x="3379" y="542.33" width="466.19" height="753.37" fill="#ad7fa8" opacity=".04" stroke="#000" stroke-linecap="round" stroke-linejoin="round"/></svg>