<svg xmlns="http://www.w3.org/2000/svg" width="80" height="80" viewBox="0 0 80 80">
  <defs>
     <linearGradient id="a23t19" x1="31.234%" x2="81.126%" y1="-9.229%" y2="104.898%">
        <stop offset="0%" stop-color="#3369E6"></stop>
        <stop offset="100%" stop-color="#1CC7D0"></stop>
     </linearGradient>
  </defs>
  <g fill="none" fill-rule="evenodd">
     <rect width="80" height="80" fill="#FFF" rx="6"></rect>
     <g fill="url(#a23t19)" transform="translate(19.333 23.333)">
        <g class="animatable" style="opacity: 0.994809; transform: translate(0px, 0.084358px);">
          <path d="M20.9,30.71A13.58,13.58,0,0,1,7.35,17.62h3.74L5.54,9.87,0,17.62H3.75A17.15,17.15,0,0,0,31.92,30.31L29.6,27.55A13.55,13.55,0,0,1,20.9,30.71Z"/>
        </g>
        <g class="animatable" style="opacity: 0.994809; transform: translate(0px, 0.0551572px);">
          <path d="M38.09,16.7A17.15,17.15,0,0,0,9.93,4l2.31,2.76A13.55,13.55,0,0,1,34.49,16.7H30.76l5.54,7.74,5.55-7.74Z"/>
        </g>
        <g class="animatable" style="opacity: 0.994809; transform: translate(0px, 0.0324454px);">
          <path d="M20.91,26.38a9.22,9.22,0,0,0,5.92-2.16l-2.31-2.75a5.62,5.62,0,0,1-9.23-4.31h-3.6A9.24,9.24,0,0,0,20.91,26.38Z"/>
        </g>
        <g class="animatable" style="opacity: 0.994809; transform: translate(0px, 0.0324454px);">
          <path d="M20.93,11.54a5.62,5.62,0,0,1,5.62,5.62h3.6A9.22,9.22,0,0,0,15,10.09l2.32,2.76A5.6,5.6,0,0,1,20.93,11.54Z"/>
        </g>
     </g>
  </g>
</svg>





      
      
      