<svg id="Layer_1" xmlns="http://www.w3.org/2000/svg" viewBox="-589.2 480.5 40 41"><style>.st0{fill:#888}</style><path class="st0" d="M-574.5 511.9s-1.5.9 1.1 1.2c3.2.4 4.8.3 8.3-.4 0 0 .9.6 2.2 1.1-7.9 3.4-17.7-.1-11.6-1.9m-1-4.3s-1.7 1.3.9 1.5c3.4.3 6.1.4 10.7-.5 0 0 .6.6 1.6 1-9.4 2.8-19.9.2-13.2-2m8.1-7.5c1.9 2.2-.5 4.2-.5 4.2s4.9-2.5 2.6-5.7c-2.1-3-3.7-4.4 5-9.5.1.1-13.6 3.5-7.1 11"/><path class="st0" d="M-557 515.2s1.1.9-1.2 1.7c-4.5 1.4-18.8 1.8-22.8.1-1.4-.6 1.2-1.5 2.1-1.7.9-.2 1.4-.2 1.4-.2-1.7-1.2-10.3 2.2-4.5 3.1 16 2.6 29.1-1.2 25-3m-16.8-12.2s-7.3 1.7-2.6 2.4c2 .3 5.9.2 9.6-.1 3-.3 6-.8 6-.8s-1.1.5-1.8 1c-7.4 1.9-21.6 1-17.5-.9 3.5-1.8 6.3-1.6 6.3-1.6m13.1 7.3c7.5-3.9 4-7.6 1.6-7.1-.6.1-.9.2-.9.2s.2-.3.6-.5c4.8-1.7 8.5 5-1.5 7.6l.2-.2m-4.5-29.3s4.2 4.2-3.9 10.6c-6.5 5.1-1.5 8.1 0 11.4-3.8-3.4-6.6-6.4-4.7-9.2 2.6-4.2 10.2-6.2 8.6-12.8"/><path class="st0" d="M-573 520.9c7.2.5 18.3-.3 18.5-3.7 0 0-.5 1.3-6 2.3-6.1 1.2-13.7 1-18.2.3 0 0 .9.8 5.7 1.1"/></svg>