<svg width="111" height="29" viewBox="0 0 111 29" xmlns="http://www.w3.org/2000/svg"><defs><linearGradient x1="100%" y1="93.879%" x2="0%" y2="-10.551%" id="a"><stop stop-color="#5EC1ED" offset="0%"/><stop stop-color="#4AC998" offset="100%"/></linearGradient></defs><path d="M25.03 7.072L18.458.5a1.698 1.698 0 0 0-1.207-.5h-1.183v5.257c0 2.594 1.611 4.206 4.205 4.206h1.84V23.31a2.237 2.237 0 0 1-2.234 2.235H5.651a2.237 2.237 0 0 1-2.234-2.235V5.651A2.237 2.237 0 0 1 5.65 3.417h5.406v9.871L9.95 12.182a1.698 1.698 0 0 0-1.208-.5c-.456 0-.885.177-1.208.5a1.71 1.71 0 0 0 0 2.416l4.023 4.023.014.014a1.758 1.758 0 0 0 .252.203 1.709 1.709 0 0 0 .218.121 1.385 1.385 0 0 0 .23.088c.026.009.052.015.08.022l.036.009.048.01a.58.58 0 0 0 .073.012l.017.003a1.793 1.793 0 0 0 .474 0l.017-.002a.883.883 0 0 0 .08-.013l.05-.01a1.522 1.522 0 0 0 .349-.12l.013-.008a1.544 1.544 0 0 0 .126-.068l.014-.008a1.502 1.502 0 0 0 .328-.256l4.02-4.02a1.71 1.71 0 0 0-1.208-2.917c-.457 0-.886.178-1.209.5l-1.105 1.107V1.708A1.71 1.71 0 0 0 12.765 0H5.651A5.657 5.657 0 0 0 0 5.651v17.66a5.657 5.657 0 0 0 5.651 5.651h14.228a5.657 5.657 0 0 0 5.651-5.65V8.28a1.7 1.7 0 0 0-.5-1.208zm14.036 16.44V7.409h2.37l6.93 12.006h.044V7.408h2.325v16.105H48.41l-6.996-12.006h-.045v12.006h-2.303zm16.45 0V7.409h9.872v2.145h-7.57v5.29h6.93v2.021h-6.93v6.649h-2.302zm13.632 0V7.409h9.849v2.145H71.45v4.672h6.907v2.044H71.45v5.132h7.547v2.112h-9.85zm14.058 0V20.66h2.92v2.853h-2.92zm7.836 0V7.409h2.29v16.105h-2.29zm6.275-8.186c0-1.34.193-2.546.578-3.617.386-1.07.903-1.937 1.55-2.6a6.778 6.778 0 0 1 2.19-1.515 6.447 6.447 0 0 1 2.566-.523c.884 0 1.728.178 2.533.534a6.76 6.76 0 0 1 2.167 1.538c.64.67 1.151 1.544 1.533 2.623.382 1.078.573 2.287.573 3.627 0 1.198-.125 2.28-.376 3.246-.251.965-.59 1.768-1.017 2.409a6.298 6.298 0 0 1-1.521 1.606 5.91 5.91 0 0 1-1.848.926 7.287 7.287 0 0 1-2.044.28 7.237 7.237 0 0 1-2.072-.291 6.071 6.071 0 0 1-1.87-.944 6.351 6.351 0 0 1-1.532-1.622c-.431-.648-.774-1.457-1.028-2.426-.255-.97-.382-2.053-.382-3.251zm2.415 0c0 1.085.116 2.044.348 2.875.232.83.552 1.497.96 1.999.408.501.878.88 1.41 1.134a4.003 4.003 0 0 0 1.751.382c1.303 0 2.36-.522 3.173-1.567.812-1.044 1.218-2.63 1.218-4.756 0-1.018-.117-1.928-.353-2.729-.236-.801-.558-1.447-.966-1.937a4.225 4.225 0 0 0-1.393-1.118 3.77 3.77 0 0 0-1.679-.381 3.99 3.99 0 0 0-1.712.37c-.528.247-1 .612-1.415 1.095-.416.483-.743 1.121-.983 1.915s-.36 1.7-.36 2.718z" fill="url(#a)"/></svg>