<svg xmlns="http://www.w3.org/2000/svg" viewBox="0 0 4013 1333"><g fill-rule="evenodd" fill="#fff"><path d="M2703.35 1200.417a107.074 104.827 0 0 1-107.074 104.826 107.074 104.827 0 0 1-107.074-104.826 107.074 104.827 0 0 1 107.074-104.827 107.074 104.827 0 0 1 107.075 104.827zM1184.614 779.861v412.514c0 62.943-52.033 113.964-116.153 113.964H951.948c-38.363 0-69.484-16.21-92.673-42.148-23.189-25.937-46.848-66.591-60.335-86.918-157.196-237.037-471.754-711.139-471.754-711.139v740.694c0 54.967-45.6 99.523-101.645 99.523h-72.845c-56.145-.096-101.655-44.678-101.655-99.542V153.643c0-70.683 58.61-127.982 130.68-127.982h72.925c61.416 0 101.168 38.905 130.982 77.81l494.748 743.846v-693.67c.01-70.713 57.585-127.983 129.863-127.983h43.681c2.567 0 5.117.072 7.648.215 2.14-.143 4.379-.215 6.617-.215h697.871c56.12 0 101.616 44.65 101.616 99.609v42.676c0 55.013-45.614 100.868-101.616 100.868H1183.89v285.309h480.346c-58.384 29.23-160.047 112.888-174.789 224.229-.065.49-304.866 1.46-304.866 1.46zm755.768 526.439c-276.142 0-392.411-149.918-392.411-369.958s130.807-384.188 392.411-384.188c261.614 0 377.884 170.75 377.884 313.048 0 99.61-13.171 113.83-72.67 113.83h-494.153c0 17.846 3.175 35.07 9.128 51.154 22.523 60.857 84.808 105.364 165.282 105.364 43.601 0 101.742 0 159.872-42.688 28.716-21.085 39.701-31.756 48.722-37.155 15.545-10.55 32.723-16.95 46.959-17.319 66.27-1.713 96.244 31.17 93.26 82.933-1.272 22.289-12.443 50.873-25.14 66.616a38.123 38.123 0 0 1-3.532 4.136 93.754 93.754 0 0 1-8.955 8.676c-69.27 66.164-134.125 105.556-296.653 105.556zm-188.937-455.337h377.884c-31.078-86.096-87.394-142.29-186.028-142.29-93.5 0-159.755 56.198-191.846 142.29zm1187.576-300.647h42.815c39.352 0 71.032 31.283 71.032 70.14v615.134c0 38.857-31.68 70.14-71.032 70.14h-42.815c-39.352 0-71.032-31.283-71.032-70.14V620.457c0-38.858 31.68-70.141 71.032-70.141z"/><path d="M3516.14 553.038a368.338 363.713 0 0 0-133.017 24.56v677.874a368.338 363.713 0 0 0 133.016 24.982 368.338 363.713 0 0 0 1.265 0V553.106a368.338 363.713 0 0 0-1.265-.068zm50.793 3.91v719.663a368.338 363.713 0 0 0 39.895-7.687V564.712a368.338 363.713 0 0 0-39.895-7.763zm94.288 25.607v668.017a368.338 363.713 0 0 0 54.49-28.248v-610.81a368.338 363.713 0 0 0-54.49-28.959zm-318.674 13.76a368.338 363.713 0 0 0-22.38 12.634v615.296a368.338 363.713 0 0 0 22.38 13.068V596.314zm426.78 56.9v527.409a368.338 363.713 0 0 0 115.112-263.873 368.338 363.713 0 0 0-115.112-263.537zm-510.462 3.247a368.338 363.713 0 0 0-111.122 260.289 368.338 363.713 0 0 0 111.122 259.837V656.462z" stroke-linejoin="round" stroke-linecap="round" stroke-width=".937"/><path opacity=".04" stroke-linejoin="round" stroke-linecap="round" d="M3338.947 546.793h453.626v723.86h-453.626z"/></g></svg>