<svg xmlns="http://www.w3.org/2000/svg" viewBox="-363 480 40 41"><ellipse cx="-343" cy="500.5" rx="17.9" ry="9.1" fill="#6181b6"/><path d="M-350.7 497.7c.8 0 1.4.1 1.6.5.3.3.3.8.2 1.5-.1.8-.4 1.3-.9 1.6s-1.1.5-1.9.5h-1.3l.8-4.1h1.5zm-5.3 8.3h2.1l.5-2.6h1.8c.8 0 1.5-.1 2-.3.5-.2 1-.5 1.4-.9.4-.3.7-.7.9-1.1.2-.4.4-.8.5-1.3.2-1.2.1-2.1-.5-2.7s-1.5-1-2.7-1h-4.1l-1.9 9.9zm10.9-12.4h2.1l-.5 2.6h1.9c1.2 0 2 .2 2.5.6s.6 1.1.4 2l-.9 4.6h-2.2l.8-4.4c.1-.5.1-.8-.1-1-.2-.2-.5-.3-1.1-.3h-1.7l-1.1 5.6h-2.1l2-9.7zm11.1 4.1c.8 0 1.4.1 1.6.5.3.3.3.8.2 1.5-.1.8-.4 1.3-.9 1.6s-1.1.5-1.9.5h-1.3l.8-4.1h1.5zm-5.3 8.3h2.1l.5-2.6h1.8c.8 0 1.5-.1 2-.3s1-.5 1.4-.9c.4-.3.7-.7.9-1.1.2-.4.4-.8.5-1.3.2-1.2.1-2.1-.5-2.7s-1.5-1-2.7-1h-4.1l-1.9 9.9z" fill="#fff"/></svg>