<svg xmlns="http://www.w3.org/2000/svg" viewBox="-447 480.9 40 41"><linearGradient id="a" gradientUnits="userSpaceOnUse" x1="-1446.623" y1="472.971" x2="-1446.532" y2="472.971" gradientTransform="matrix(256 0 0 -96 369896.813 45912.465)"><stop offset="0" stop-color="#505050"/><stop offset="1" stop-color="#010101"/></linearGradient><path d="M-438.8 505.8v2.9c0 .5 10.7 1.3 17.6 2.9 3.4-.8 5.9-1.7 5.9-2.9v-2.9c0-1.2-2.5-2.2-5.9-2.9-6.9 1.5-17.6 2.4-17.6 2.9" fill="url(#a)"/><linearGradient id="b" gradientUnits="userSpaceOnUse" x1="-1446.623" y1="471.76" x2="-1446.532" y2="471.76" gradientTransform="matrix(256 0 0 -96 369896.813 45784.465)"><stop offset="0" stop-color="#505050"/><stop offset="1" stop-color="#010101"/></linearGradient><path d="M-438.8 494v2.9c0 .5 10.7 1.3 17.6 2.9 3.4-.8 5.9-1.7 5.9-2.9V494c0-1.2-2.5-2.2-5.9-2.9-6.9 1.6-17.6 2.4-17.6 2.9" fill="url(#b)"/><linearGradient id="c" gradientUnits="userSpaceOnUse" x1="-1446.623" y1="474.588" x2="-1446.532" y2="474.588" gradientTransform="matrix(256 0 0 -160 369896.813 76435.453)"><stop offset="0" stop-color="#555"/><stop offset="1" stop-color="#888"/></linearGradient><path d="M-438.8 499.9v8.8c0-.7 23.5-2.2 23.5-5.9V494c0 3.7-23.5 5.1-23.5 5.9" fill="url(#c)"/><linearGradient id="d" gradientUnits="userSpaceOnUse" x1="-1446.623" y1="473.861" x2="-1446.532" y2="473.861" gradientTransform="matrix(256 0 0 -160 369896.813 76307.453)"><stop offset="0" stop-color="#555"/><stop offset="1" stop-color="#888"/></linearGradient><path d="M-438.8 488.1v8.8c0-.7 23.5-2.2 23.5-5.9v-8.8c0 3.7-23.5 5.2-23.5 5.9" fill="url(#d)"/><linearGradient id="e" gradientUnits="userSpaceOnUse" x1="-1446.623" y1="475.315" x2="-1446.532" y2="475.315" gradientTransform="matrix(256 0 0 -160 369896.813 76563.453)"><stop offset="0" stop-color="#555"/><stop offset="1" stop-color="#888"/></linearGradient><path d="M-438.8 511.6v8.8c0-.7 23.5-2.2 23.5-5.9v-8.8c0 3.7-23.5 5.2-23.5 5.9" fill="url(#e)"/></svg>