<svg xmlns="http://www.w3.org/2000/svg" viewBox="0 0 18 22.8"><defs><mask id="a" x="0" y="0" width="18" height="22.8" maskUnits="userSpaceOnUse"><path fill="#fff" d="M18 22.8V0H0v22.8h18z"/></mask></defs><g data-name="Layer 2"><g mask="url(#a)" data-name="Layer 1"><path d="M8.11 9.61h1.78a.88.88 0 0 1 .87.89v1.8a.88.88 0 0 1-.87.89H8.11a.88.88 0 0 1-.87-.89v-1.8a.88.88 0 0 1 .87-.89zm-6.18-.24c1.4-.17 2.36.34 2.55 1.86a5.51 5.51 0 0 0 1.62 3.49 5.82 5.82 0 0 0 4.08 1.33 8.45 8.45 0 0 1 3.61.76 8.79 8.79 0 0 1 3 2.26l.83 1a1.69 1.69 0 0 1-.15 2.36 1.65 1.65 0 0 1-2.33-.16l-.83-1a5.31 5.31 0 0 0-1.85-1.4 5.25 5.25 0 0 0-2.24-.48 9 9 0 0 1-6.3-2.19 8.74 8.74 0 0 1-2.61-5 14.77 14.77 0 0 1-.17-1.87c0-.69.23-.89.82-1zm14.14 4.06c.59-.07.83-.27.82-1a14.77 14.77 0 0 0-.17-1.87 8.74 8.74 0 0 0-2.61-5 9 9 0 0 0-6.3-2.19 5.25 5.25 0 0 1-2.24-.48 5.22 5.22 0 0 1-1.85-1.36l-.83-1A1.65 1.65 0 0 0 .56.41a1.69 1.69 0 0 0-.15 2.36l.83 1A8.79 8.79 0 0 0 4.21 6a8.45 8.45 0 0 0 3.61.76 5.86 5.86 0 0 1 4.08 1.32 5.51 5.51 0 0 1 1.62 3.49c.19 1.52 1.15 2 2.55 1.86z" fill="#1a1919"/></g></g></svg>