<svg xmlns="http://www.w3.org/2000/svg" viewBox="0 0 32.4 13.2"><g data-name="Layer 2"><path d="M32.4 6.93c0-2.2-1.1-3.93-3.21-3.93S25.8 4.73 25.8 6.91c0 2.59 1.51 3.89 3.68 3.89a5.08 5.08 0 0 0 2.46-.56V8.53a4.91 4.91 0 0 1-2.18.47c-.86 0-1.62-.29-1.76-1.31h4.34c.04-.11.06-.55.06-.76zM28 6.11a1.21 1.21 0 0 1 1.17-1.37c.55 0 1.12.41 1.12 1.37zM22.28 3a2.44 2.44 0 0 0-1.68.67l-.11-.53H18.6V13.2l2.14-.46V10.3a2.43 2.43 0 0 0 1.52.54c1.53 0 2.93-1.24 2.93-4 0-2.48-1.41-3.84-2.91-3.84zm-.52 6a1.31 1.31 0 0 1-1-.41V5.34a1.28 1.28 0 0 1 1-.42c.78 0 1.32.88 1.32 2S22.55 9 21.76 9zM15 1.8l2.4-.38V0L15 .37V1.8zM15 3h2.4v7.8H15zm-2.3.74l-.13-.65H10.8v7.71h2V5.58a1.36 1.36 0 0 1 1.55-.46v-2a1.34 1.34 0 0 0-1.7.65zM8.63.6l-2 .48v7.36a2.2 2.2 0 0 0 2.12 2.36 3 3 0 0 0 1.45-.3V8.63c-.27.12-1.58.54-1.58-.82V4.55h1.58v-2H8.62V.6zM2.39 5.32c0-.33.3-.46.8-.46a5.76 5.76 0 0 1 2.35.55v-2A6.9 6.9 0 0 0 3.19 3C1.28 3 0 3.91 0 5.43c0 2.36 3.59 2 3.59 3 0 .4-.38.53-.91.53A6.3 6.3 0 0 1 .1 8.27v2a7.21 7.21 0 0 0 2.58.49c2 0 3.32-.88 3.32-2.42 0-2.55-3.61-2.1-3.61-3.06z" fill="#fff" data-name="Layer 1"/></g></svg>