<svg xmlns="http://www.w3.org/2000/svg" id="Layer_1" viewBox="0 0 182.8 54"><style>.st1{fill:#fff}</style><path d="M9.1 24.4c5.6 0 9.5 3.4 9.5 9.1v4c0 5.5-3.6 8.9-8.7 8.9-1.3 0-2.5-.2-3.7-.7v7.1c.1.3-.2.7-.5.7h-5c-.3.1-.7-.1-.7-.5V26.7c0-.3.2-.7.5-.8 2.8-.9 5.6-1.4 8.6-1.5zm3.2 13.2v-4.2c0-2.5-1.2-3.5-3.4-3.5-.9 0-1.9.1-2.8.4v10.1c.9.4 1.9.7 2.9.7 2.1 0 3.3-1.1 3.3-3.5zm18.4-13.2c5.5 0 8.8 2.9 8.8 9v11c0 .4-.2.7-.6.8-2.7.8-5.5 1.2-8.3 1.2-5.8 0-9.4-2.2-9.4-6.9 0-4.2 3.3-6.3 8.8-6.3 1.1 0 2.3.1 3.4.2V33c0-2.1-.8-3.3-3.4-3.3-1.8 0-3.9.5-5 1.1-.3.2-.7.1-.9-.1 0 0 0-.1-.1-.1l-1.7-3.1c-.2-.4-.2-.7.1-.9 1.9-1.2 4.8-2.2 8.3-2.2zm-.1 17c.9 0 1.8-.1 2.7-.3v-3.5c-.9-.2-1.9-.2-2.8-.2-2.2 0-3.2.7-3.2 2 .1 1.3 1.4 2 3.3 2zM52 54c-3.3 0-5.7-.7-8-2.2-.3-.2-.4-.6-.2-1v-.1l2.1-3.2c.1-.3.5-.4.8-.3 0 0 .1 0 .1.1 1.4.9 3.1 1.3 4.8 1.3 2.5 0 3.8-1 3.8-3.9-1.2.4-2.5.6-3.8.6-5.2 0-8.7-3.1-8.7-8.6v-3.3c0-6.3 4.2-9.1 9.6-9.1 2.9 0 5.7.6 8.4 1.6.3.1.6.5.5.9v17C61.6 50.7 58.8 54 52 54zm.6-13.9c1.2 0 2.2-.2 2.8-.7v-9.1c-.9-.3-1.8-.4-2.7-.4-2.2 0-3.4.9-3.4 3.4v3.5c0 2.4 1.3 3.3 3.3 3.3zm21.6-15.7c5.5 0 8.8 2.9 8.8 9v11c0 .4-.2.7-.6.8-2.7.8-5.5 1.2-8.3 1.2-5.8 0-9.4-2.2-9.4-6.9 0-4.2 3.3-6.3 8.7-6.3 1.1 0 2.3.1 3.4.2V33c0-2.1-.8-3.3-3.4-3.3-1.8 0-3.9.5-5 1.1-.3.2-.7.1-.9-.1 0 0 0-.1-.1-.1l-1.7-3.2c-.2-.4-.2-.7.1-.9 2-1.1 4.9-2.1 8.4-2.1zm-.1 17c.9 0 1.8-.1 2.7-.3v-3.5c-.9-.2-1.9-.2-2.8-.2-2.2 0-3.2.7-3.2 2 .1 1.3 1.4 2 3.3 2zm13.7 4.5c-.3 0-.7-.2-.7-.6V26.9c0-.3.2-.7.5-.9 2.3-1.1 4.9-1.7 7.4-1.7 1.3 0 2.6.1 3.9.4.4 0 .7.3.7.7v3.8c0 .3-.2.6-.5.7h-.3c-.8-.1-1.7-.2-2.5-.2-1 0-2.1.1-3.1.5v14.9c0 .5-.2.7-.7.7l-4.7.1zM129 24.5c5.3 0 9 3.1 9 8.8v11.9c0 .5-.2.7-.7.7h-4.7c-.3 0-.7-.2-.7-.6V33.1c0-2-1-3.1-3.1-3.1-.9 0-1.8.2-2.6.7.3.8.4 1.7.4 2.6v12c0 .5-.2.7-.7.7h-4.7c-.3 0-.7-.2-.7-.6V33.1c0-2.1-1-3.2-2.9-3.2-.8 0-1.6.1-2.4.4v14.9c0 .3-.2.7-.6.7h-4.8c-.3 0-.7-.2-.7-.6V26.9c0-.4.2-.8.6-.9 2.5-1 5.1-1.6 7.8-1.6 2 0 3.9.6 5.5 1.7 2.1-1.1 3.8-1.6 6-1.6zm30.9 12.3c0 .4-.2.7-.7.7h-11.4v.7c0 2.1 1.3 3.1 3.4 3.1 1.8 0 3.6-.5 5.1-1.4.2-.2.6-.2.8 0 0 0 .1.1.1.2l2.1 2.8c.2.3.2.7-.1 1-2.1 1.6-4.7 2.7-8.2 2.7-5.2 0-9.4-2.8-9.4-8.4V33c0-6 4.2-8.6 9.3-8.6 5 0 9 2.5 9 8.6v3.8zm-9.1-7.3c-1.9 0-3.1 1-3.1 3.2v.8h6.2v-.8c0-2.2-1.2-3.2-3.1-3.2z" fill="#fff"/><path class="st1" d="M176.3 6.1h-9.9c-.2 0-.4.2-.4.4v3.8c0 .2.2.4.4.4h2.8l3-2.1c.2-.2.6-.2.9-.2.4.1.7.5.7.9v4.1c0 .3-.1.6-.3.8-.3.3-.8.3-1.2.1l-3-2.1h-2.9c-.2 0-.4.2-.4.4v9.9c0 .2.2.4.4.4h3.8c.2 0 .4-.2.4-.4v-5.2c0-.2.2-.4.4-.4h5.3c.2 0 .4-.2.4-.4v-10c0-.2-.2-.4-.4-.4zM166.4 0h3.8c.2 0 .4.2.4.4v3.8c0 .2-.2.4-.4.4h-3.8c-.2 0-.4-.2-.4-.4V.4c0-.2.2-.4.4-.4zm-6.1 12.2h3.8c.2 0 .4.2.4.4v3.8c0 .2-.2.4-.4.4h-3.8c-.2 0-.4-.2-.4-.4v-3.7c0-.3.2-.5.4-.5zm0-6.1h3.8c.2 0 .4.2.4.4v3.8c0 .2-.2.4-.4.4h-3.8c-.2 0-.4-.2-.4-.4V6.5c0-.2.2-.4.4-.4zm0-6.1h3.8c.2 0 .4.2.4.4v3.8c0 .2-.2.4-.4.4h-3.8c-.2 0-.4-.2-.4-.4V.4c0-.2.2-.4.4-.4zm12.2 0h3.8c.2 0 .4.2.4.4v3.8c0 .2-.2.4-.4.4h-3.8c-.2 0-.4-.2-.4-.4V.4c0-.2.2-.4.4-.4z"/><path class="st1" d="M172.5 18.4h3.8c.2 0 .4.2.4.4v3.7c0 .2-.2.4-.4.4h-3.8c-.2 0-.4-.2-.4-.4v-3.7c0-.3.2-.4.4-.4zM178.6 0h3.7c.2 0 .4.2.4.4v3.8c0 .2-.2.4-.4.4h-3.7c-.2 0-.4-.2-.4-.4V.4c0-.2.2-.4.4-.4zm0 6.1h3.7c.2 0 .4.2.4.4v3.8c0 .2-.2.4-.4.4h-3.7c-.2 0-.4-.2-.4-.4V6.5c0-.2.2-.4.4-.4zm0 6.1h3.7c.2 0 .4.2.4.4v3.7c0 .2-.2.4-.4.4h-3.7c-.2 0-.4-.2-.4-.4v-3.7c0-.2.2-.4.4-.4zm0 6.2h3.7c.2 0 .4.2.4.4v3.7c0 .2-.2.4-.4.4h-3.7c-.2 0-.4-.2-.4-.4v-3.7c0-.3.2-.4.4-.4zm-18.3 0h3.8c.2 0 .4.2.4.4v3.7c0 .2-.2.4-.4.4h-3.8c-.2 0-.4-.2-.4-.4v-3.7c0-.3.2-.4.4-.4zm-56.6 20.8l-3.8 2.7c-.3.2-.4.7-.2 1 0 .1.1.1.2.2l3.8 2.7c.3.2.8.2 1-.2.1-.1.1-.3.1-.4v-5.4c0-.4-.3-.7-.7-.7-.1-.1-.2 0-.4.1z"/></svg>