<svg data-name="Layer 1" xmlns="http://www.w3.org/2000/svg" viewBox="0 0 310 310"><path d="M64.4 8.69c-64.65 35.44-69 267.48-.56 295 63.92 25.67 232.4-78.59 232.84-147.5S124.73-24.39 64.4 8.69zm39.65 203a16.06 16.06 0 0 1-22.64 0l-1.26-1.28a16.06 16.06 0 0 1 0-22.65l21.24-21.25a16.08 16.08 0 0 0 0-22.65l-21.24-21.25a16.06 16.06 0 0 1 0-22.65l1.26-1.28a16.06 16.06 0 0 1 22.64 0l45.17 45.16a16 16 0 0 1 0 22.65zm121.31-45.19l-45.17 45.17a16.06 16.06 0 0 1-22.64 0l-1.27-1.28a16.08 16.08 0 0 1 0-22.65l21.25-21.25a16.08 16.08 0 0 0 0-22.65l-21.25-21.24a16.08 16.08 0 0 1 0-22.65l1.27-1.28a16.06 16.06 0 0 1 22.64 0l45.17 45.16a16 16 0 0 1 0 22.67z" fill="#3e89bd"/></svg>