<svg id="Camada_1" data-name="Camada 1" xmlns="http://www.w3.org/2000/svg" viewBox="0 0 445.34 100.83"><defs><style>.cls-1{fill:#fff}</style></defs><path class="cls-1" d="M122.9 80V61a9.5 9.5 0 0 1 8.28-9.52 9.35 9.35 0 0 1 10.42 9.28V80a4.88 4.88 0 0 0 9.75 0V61.69a19.11 19.11 0 0 0-38.21 0V80a4.88 4.88 0 0 0 9.76 0M99.46 47.49v19.14a9.5 9.5 0 0 1-8.29 9.52 9.35 9.35 0 0 1-10.41-9.28V47.49a4.88 4.88 0 0 0-9.75 0V65.9a19.1 19.1 0 0 0 38.2 0V47.49a4.88 4.88 0 0 0-9.75 0M48 42.62A19.07 19.07 0 0 0 33.75 49 19.11 19.11 0 0 0 .42 61.68V80a4.88 4.88 0 0 0 9.76 0V61a9.5 9.5 0 0 1 8.28-9.52 9.34 9.34 0 0 1 10.41 9.27V80a4.88 4.88 0 0 0 9.76 0V61a9.51 9.51 0 0 1 8.29-9.52 9.34 9.34 0 0 1 10.41 9.27V80a4.88 4.88 0 0 0 9.76 0V61.68A19.09 19.09 0 0 0 48 42.62m129 34.22c-7.3 0-12.44-5.9-12.44-13v-.16c0-7 4.76-12.8 12.29-12.8 7.22 0 12.37 5.9 12.37 12.95V64c0 7.05-4.76 12.88-12.22 12.88m16.87-49.76a4.65 4.65 0 0 0-4.65 4.64V46.3A22 22 0 0 0 177 42.72c-12.52 0-21.74 9.59-21.74 21.09V64c0 11.58 9.14 21 21.59 21s21.67-9.59 21.67-21.16V31.72a4.65 4.65 0 0 0-4.65-4.64m60.66 36.85c0 7-4.76 12.81-12.29 12.81-7.22 0-12.37-5.9-12.37-12.95v-.15c0-7.06 4.76-12.88 12.22-12.88 7.29 0 12.44 5.9 12.44 13zm-12.29-21.31c-12.45 0-21.67 9.58-21.67 21.16v32.09a4.65 4.65 0 0 0 9.3 0V81.29a22 22 0 0 0 12.22 3.57c12.52 0 21.74-9.58 21.74-21.08v-.15c0-11.58-9.14-21-21.59-21m59.48 21.11v.13c0 7.05-4.77 12.87-12.22 12.87s-12.44-5.9-12.44-13v-.15c0-7 4.76-12.8 12.29-12.8 7.22 0 12.37 5.9 12.37 13zM289.5 42.62c-12.52 0-21.74 9.58-21.74 21.08v.16c0 11.57 9.14 21 21.59 21a22.06 22.06 0 0 0 12.46-3.74 4.64 4.64 0 0 0 9.2-.89V63.56c0-11.5-9.14-20.93-21.51-20.93m59.4 21.11v.13c0 7.05-4.76 12.87-12.21 12.87s-12.45-5.9-12.45-13v-.15c0-7 4.76-12.8 12.29-12.8 7.22 0 12.37 5.9 12.37 13zm-12.29-21.12c-12.45 0-21.67 9.58-21.67 21.16v.15c0 11.5 9.14 20.93 21.52 20.93a22.34 22.34 0 0 0 12.22-3.53v2.8a7.79 7.79 0 0 1-6.91 7.81h-9.63a4.25 4.25 0 0 0-.46 8.48H341a17.21 17.21 0 0 0 17.17-17V63.63c0-11.58-9.15-21-21.59-21m59.51 21.11v.13c0 7.05-4.77 12.87-12.22 12.87s-12.45-5.9-12.45-13v-.16c0-7 4.77-12.8 12.3-12.8 7.22 0 12.37 5.9 12.37 13zm9.29-.11c0-11.58-9.14-21-21.59-21s-21.66 9.59-21.66 21.16v.15c0 11.5 9.14 20.94 21.51 20.94a22.28 22.28 0 0 0 12.23-3.55v2.81A7.81 7.81 0 0 1 389 92h-9.63a4.26 4.26 0 0 0-.46 8.49h9.36a17.21 17.21 0 0 0 17.16-17V63.63zM209.59 42.62a4.87 4.87 0 0 0-4.87 4.87V80.1a4.88 4.88 0 0 0 9.75 0V47.49a4.87 4.87 0 0 0-4.88-4.87m5.6-9.94a5.6 5.6 0 1 1-5.59-5.6 5.59 5.59 0 0 1 5.59 5.6M442.29 1l-18.08 18.05a3.55 3.55 0 0 0 0 5l18.08 18.08a1.53 1.53 0 0 0 1.1.46 1.57 1.57 0 0 0 1.61-1.54v-39a1.57 1.57 0 0 0-1.61-1.54 1.53 1.53 0 0 0-1.1.46"/><path class="cls-1" d="M422 26.27a6.67 6.67 0 0 1 0-9.41l1.22-1.22L408.57 1a1.57 1.57 0 0 0-2.68 1.11v39a1.57 1.57 0 0 0 2.68 1.11l14.67-14.67z"/></svg>