<svg id="Layer_1" data-name="Layer 1" xmlns="http://www.w3.org/2000/svg" viewBox="0 0 310 310"><defs><style>.cls-1{fill:#95c93f}</style></defs><g id="pagar_me"><path class="cls-1" d="M218.25 84.1H91.85a5.59 5.59 0 0 0-5.5 5.7v49.6a5.66 5.66 0 0 0 5.5 5.7h36.4l38.3-27.9a12.32 12.32 0 0 1 19.9 10.2v54.7a13.58 13.58 0 0 1-4.1 10 12.11 12.11 0 0 1-15.4.9l-38.7-28.2h-36.4a5.59 5.59 0 0 0-5.5 5.7v130.2a5.66 5.66 0 0 0 5.5 5.7H140a5.59 5.59 0 0 0 5.5-5.7v-69.1a5.66 5.66 0 0 1 5.5-5.7h67.3a5.59 5.59 0 0 0 5.5-5.7V89.8a5.53 5.53 0 0 0-5.55-5.7zM86.35 9.2v49.3a5.66 5.66 0 0 0 5.5 5.7H140a5.59 5.59 0 0 0 5.5-5.7V9.2a5.66 5.66 0 0 0-5.5-5.7H91.85a5.59 5.59 0 0 0-5.5 5.7zM8.25 170.6v49.6a5.66 5.66 0 0 0 5.5 5.7h47.8a5.59 5.59 0 0 0 5.5-5.7v-49.6a5.66 5.66 0 0 0-5.5-5.7h-47.7a5.68 5.68 0 0 0-5.6 5.7zm0-80.8v49.6a5.66 5.66 0 0 0 5.5 5.7h47.8a5.59 5.59 0 0 0 5.5-5.7V89.8a5.66 5.66 0 0 0-5.5-5.7h-47.7a5.61 5.61 0 0 0-5.6 5.7zm0-80.6v49.3a5.66 5.66 0 0 0 5.5 5.7h47.8a5.59 5.59 0 0 0 5.5-5.7V9.2a5.66 5.66 0 0 0-5.5-5.7h-47.7a5.68 5.68 0 0 0-5.6 5.7zm156.4 0v49.3a5.66 5.66 0 0 0 5.5 5.7h48.1a5.59 5.59 0 0 0 5.5-5.7V9.2a5.66 5.66 0 0 0-5.5-5.7h-48.1a5.66 5.66 0 0 0-5.5 5.7z"/><path class="cls-1" d="M164.65 251.5v49.3a5.66 5.66 0 0 0 5.5 5.7h48.1a5.59 5.59 0 0 0 5.5-5.7v-49.3a5.66 5.66 0 0 0-5.5-5.7h-48.1a5.59 5.59 0 0 0-5.5 5.7zM243 9.2v49.3a5.66 5.66 0 0 0 5.5 5.7h47.8a5.59 5.59 0 0 0 5.5-5.7V9.2a5.66 5.66 0 0 0-5.5-5.7h-47.8a5.66 5.66 0 0 0-5.5 5.7zm0 80.6v49.3a5.66 5.66 0 0 0 5.5 5.7h47.8a5.59 5.59 0 0 0 5.5-5.7V89.8a5.66 5.66 0 0 0-5.5-5.7h-47.8a5.59 5.59 0 0 0-5.5 5.7zm0 80.8v49.3a5.66 5.66 0 0 0 5.5 5.7h47.8a5.59 5.59 0 0 0 5.5-5.7v-49.3a5.66 5.66 0 0 0-5.5-5.7h-47.8a5.66 5.66 0 0 0-5.5 5.7zm0 80.9v49.3a5.66 5.66 0 0 0 5.5 5.7h47.8a5.59 5.59 0 0 0 5.5-5.7v-49.3a5.66 5.66 0 0 0-5.5-5.7h-47.8a5.59 5.59 0 0 0-5.5 5.7zm-234.75 0v49.3a5.66 5.66 0 0 0 5.5 5.7h47.8a5.59 5.59 0 0 0 5.5-5.7v-49.3a5.66 5.66 0 0 0-5.5-5.7h-47.7a5.61 5.61 0 0 0-5.6 5.7z"/></g></svg>