<svg xmlns="http://www.w3.org/2000/svg" style="isolation:isolate" viewBox="0 0 319 386" width="319" height="386"><defs><clipPath id="a"><path d="M0 0h319v386H0z"/></clipPath></defs><g fill-rule="evenodd" clip-path="url(#a)"><path d="M27.642 317.512c3.839-11.659 7.491-23.482 10.25-35.689 2.152 0 4.61.051 6.759.051l-.814 4.611c5.479-3.546 9.06-4.462 12.641-4.169 12.95 1.057 5.988 18.078-.857 22.167-4.016 2.4-9.456 3.472-16.974 2.403l-2.657 10.63-8.348-.004zm25.58-18.821c3.913-3.276 3.866-9.22 1.174-10.931-2.693-1.71-8.751-.344-10.727 4.54-1.977 4.884-2.11 7.882-3.21 10.524 2.262-.164 8.853-.857 12.763-4.133zm37.739 8.829c-2.438 0-4.567.051-7.001.051l.454-5.279c-5.01 4.731-13.127 7.862-16.849 3.401-5.087-6.97-.27-16.046 5.48-19.756 6.383-4.133 14.871-3.914 23.298-4.098-3.022 8.403-5.053 17.013-5.378 25.681h-.004zm-14.598-16.938c-3.401 3.276-3.362 9.221-1.029 10.927 2.333 1.706 7.612.344 9.33-4.54s1.859-7.862 2.798-10.524c-1.956.165-7.702.857-11.103 4.133l.004.004zm17.373 27.126l1.225-6.517c5.444 1.766 10.176 2.611 13.717.83 2.763-1.385 4.814-4.36 5.941-9.733-5.005 4.732-13.126 7.862-16.848 3.401-5.088-6.97-.27-16.046 5.479-19.756 6.383-4.133 14.872-3.914 23.298-4.098-2.614 7.264-2.665 18.668-6.136 26.781a15.877 15.877 0 0 1-8.61 8.61c-5.39 2.302-12.078 2.09-18.078.482h.012zm12.837-27.126c-3.401 3.276-3.362 9.221-1.029 10.927 2.332 1.706 7.612.344 9.33-4.54s1.859-7.862 2.798-10.524c-1.957.165-7.702.857-11.103 4.133l.004.004z" fill="#241F20"/><path d="M177.363 317.708l1.225-6.517c5.444 1.766 10.176 2.611 13.718.83 2.759-1.385 4.813-4.36 5.941-9.733-5.006 4.732-13.127 7.862-16.829 3.401-5.088-6.97-.27-16.046 5.479-19.756 6.379-4.133 14.872-3.914 23.298-4.098-2.614 7.264-2.665 18.668-6.137 26.781a15.868 15.868 0 0 1-8.61 8.61c-5.389 2.302-12.077 2.09-18.077.482h-.008zm94.234-24.962c-2.4 4.305-2.098 8.845.673 10.176 2.771 1.331 6.966-1.088 9.369-5.381 2.403-4.294 2.102-8.845-.673-10.176-2.775-1.331-6.966 1.076-9.369 5.381zm-2.141-7.643c-7.436 4.982-10.418 13.381-6.653 18.754 3.764 5.374 12.836 5.691 20.272.709 7.436-4.982 10.419-13.381 6.654-18.755-3.765-5.373-12.837-5.69-20.273-.708zm-30.006 21.592c3.26-8.282 5.455-18.849 7.095-24.735h5.871l-.204 5.272c2.568-3.55 7.233-5.507 11.964-5.272l-2.231 6.689c-5.87-.783-10.026 3.933-12.32 11.709a47.001 47.001 0 0 0-1.389 6.501l-8.794-.168.008.004zm-23.733-24.942l7.299.203c-1.272 5.409-3.385 10.61-4.649 16.019-1.902 6.579 5.941 5.894 9.326 1.824 3.014-5.299 4.36-11.655 6.285-18.042h7.295c-2.739 8.449-5.154 16.895-6.285 25.345-2.16-.137-4.732-.27-6.892-.392l.204-4.054c-7.315 6.72-19.35 8.492-17.843-2.838.865-6.034 3.303-12.05 5.26-18.065zm-41.563 19.87c-.203 1.69-.81 3.377-1.014 5.087-7.874 1.081-16.32 2.904-20.679-3.244-4.513-8.704 1.996-16.672 7.706-19.666 10.019-4.493 16.981-2.208 18.449 2.231 2.97 7.78-6.215 12.915-19.463 11.349-1.382 6.767 5.53 6.653 15.001 4.258v-.015zm-13.721-9.021c1.221-2.709 3.295-5.444 7.502-5.981 3.311-.32 3.667 3.171 1.718 4.513-3.522 1.522-3.913-.564-9.22 1.468zm-32.593 8.516c-.814 1.757-1.726 3.616-2.536 5.373 9.901 2.157 17.486.857 20.476-2.348 2.924-3.605 2.43-7.683-2.634-10.645-1.08-.752-4.137-2.247-4.054-4.039.144-4.074 6.34-3.104 10.14-1.926l1.213-5.577a29.109 29.109 0 0 0-8.743-.536c-3.62.355-7.01 1.94-9.604 4.489-2.137 2.219-2.579 5.213-1.797 7.045.94 2.184 3.992 3.099 5.546 4.015 2.603 1.213 4.153 2.129 3.71 3.973-.372 1.565-2.254 2.814-5.631 2.211-2.098-.392-4.544-1.119-6.09-2.024l.004-.011zm62.38-10.536c-3.401 3.276-3.362 9.221-1.03 10.927 2.333 1.706 7.616.344 9.334-4.54 1.719-4.884 1.859-7.862 2.799-10.524-1.957.165-7.702.857-11.103 4.133v.004z" fill="#FFF"/><path d="M267.769 313.563a9.331 9.331 0 0 0-3.554.65 8.52 8.52 0 0 0-2.892 1.902 8.247 8.247 0 0 0-1.902 2.829 9.098 9.098 0 0 0-.65 3.523 8.985 8.985 0 0 0 .65 3.459 8.678 8.678 0 0 0 1.902 2.83 9.212 9.212 0 0 0 6.446 2.544 10.169 10.169 0 0 0 3.569-.662 9.705 9.705 0 0 0 2.892-1.89 8.515 8.515 0 0 0 1.934-2.872 8.725 8.725 0 0 0 .661-3.413 9.075 9.075 0 0 0-.661-3.522 7.78 7.78 0 0 0-1.902-2.83 8.645 8.645 0 0 0-2.924-1.902 9.369 9.369 0 0 0-3.569-.65v.004zm0 5.655a2.531 2.531 0 0 1 2.07.897c.549.655.829 1.494.783 2.348a3.276 3.276 0 0 1-.783 2.282 2.627 2.627 0 0 1-2.07.876 2.513 2.513 0 0 1-2.027-.857 3.133 3.133 0 0 1-.783-2.282 3.22 3.22 0 0 1 .783-2.348 2.46 2.46 0 0 1 2.027-.896v-.02zm-11.78 6.877c.15-.996.217-2.003.199-3.01v-9.15h-6.07v9.224c0 1.034-.105 1.762-.391 2.212a1.424 1.424 0 0 1-1.315.618 1.409 1.409 0 0 1-1.299-.618c-.247-.392-.392-1.143-.392-2.212v-9.224h-6.027v9.15a14.188 14.188 0 0 0 .212 3.01 5.43 5.43 0 0 0 .716 1.933 6.651 6.651 0 0 0 2.794 2.411 9.707 9.707 0 0 0 8.007 0 6.268 6.268 0 0 0 2.764-2.411 6.224 6.224 0 0 0 .802-1.933zm29.466-12.16h-6.074v16.919h11.976v-5.487h-5.902v-11.432zM86.615 78.648a94.424 94.424 0 0 0-16.33 28.146A93.31 93.31 0 0 0 64 140.427a95.886 95.886 0 0 0 7.761 37.459 93.294 93.294 0 0 0 20.352 30.376 95.738 95.738 0 0 0 30.158 20.364 92.91 92.91 0 0 0 37.229 7.837 91.921 91.921 0 0 0 37.459-7.837 97.125 97.125 0 0 0 30.158-20.364 92.534 92.534 0 0 0 20.035-30.376 93.128 93.128 0 0 0 1.563-71.049 100.307 100.307 0 0 0-16.319-28.146 92.385 92.385 0 0 0-24.408-20.582c-14.494-8.406-29.447-13.412-46.772-13.412h-2.492c-17.117 0-32.759 4.897-47.493 13.368a92.04 92.04 0 0 0-24.616 20.583z" fill="#241F20"/><path d="M223.313 79.435a76.33 76.33 0 0 0-46.04-27.207 77.503 77.503 0 0 0-52.751 8.329 75.944 75.944 0 0 0-21.598 17.861 73.45 73.45 0 0 0-13.521 24.878 72.305 72.305 0 0 0-2.788 29.37 66.577 66.577 0 0 1 10.811-17.565 68.871 68.871 0 0 1 23.621-17.872 75.047 75.047 0 0 1 29.13-6.558 74.04 74.04 0 0 1 29.687 6.099 69.155 69.155 0 0 1 25.632 18.101 63.567 63.567 0 0 1 7.225 9.248 35.28 35.28 0 0 1 9.324 1.016 33.046 33.046 0 0 1 17.576 11.379l.219-3.574a75.554 75.554 0 0 0-2.93-28.125 76.238 76.238 0 0 0-13.597-25.326v-.054zm-138.731 90.45a63.116 63.116 0 0 0 7.291 21.369 64.788 64.788 0 0 0 14.308 17.806l3.028 2.481a91.584 91.584 0 0 0 33.436 14.603 55.511 55.511 0 0 0 23.151-.776 63.396 63.396 0 0 0 22.616-9.837 31.083 31.083 0 0 1-16.877-10.155l-1.771-2.022a93.255 93.255 0 0 1-28.605-1.257 89.261 89.261 0 0 1-32.409-14.843 84.757 84.757 0 0 1-22.889-26.693l-1.476-3.039a73.031 73.031 0 0 0 .241 12.363h-.044z" fill="#FA0"/><path d="M174.016 106.553a70.408 70.408 0 0 0-28.124-5.465 64.406 64.406 0 0 0-26.889 6.285 60.118 60.118 0 0 0-31.612 33.371 76.732 76.732 0 0 0 8.548 21.599 77.86 77.86 0 0 0 22.604 24.637 82.089 82.089 0 0 0 30.376 13.281 91.965 91.965 0 0 0 20.845 1.476 37.975 37.975 0 0 1-5.29-14.757 50.869 50.869 0 0 1 .306-17.095 58.275 58.275 0 0 1 7.76-20.364 63.841 63.841 0 0 1 15.555-16.636 62.42 62.42 0 0 1 12.603-6.996l-2.252-2.557a71.046 71.046 0 0 0-24.408-16.779h-.022z" fill="#ED3921"/><path d="M241.162 149.521l-2.186-3.804c-3.279 11.346-9.345 21.381-17.106 30.464a67.993 67.993 0 0 1-8.744 20.593 69.583 69.583 0 0 1-15.391 16.549c4.338.195 8.67-.493 12.734-2.022a41.156 41.156 0 0 0 11.565-6.766 104.225 104.225 0 0 0 13.838-16.079l.689-1.006a113.1 113.1 0 0 0 4.809-11.04 45.273 45.273 0 0 0 2.274-11.018 37.813 37.813 0 0 0-.47-10.351 45.043 45.043 0 0 0-2.033-5.465l.021-.055z" fill="#F80"/><path d="M75.794 105.296a97.277 97.277 0 0 0-5.465 28.922 93.753 93.753 0 0 0 7.312 38.159 92.85 92.85 0 0 0 9.182 16.604 95.356 95.356 0 0 0 12.024 13.98 67.011 67.011 0 0 1-17.303-37.372 92.272 92.272 0 0 1-.241-14.067 80.562 80.562 0 0 1-5.05-27.436 87.291 87.291 0 0 1 4.274-26.124 101.319 101.319 0 0 1 8.613-17.041 93.164 93.164 0 0 0-13.313 24.375h-.033zm171.599 5.302a100.15 100.15 0 0 0-9.018-20.911 81.31 81.31 0 0 0-13.816-17.314 76.325 76.325 0 0 0-17.369-13.608 85.06 85.06 0 0 1 15.095 13.368 75.17 75.17 0 0 1 19.588 56.5c-.23 3.279-.711 6.285-1.235 9.553a46.789 46.789 0 0 1 3.574 7.072 47.539 47.539 0 0 1 1.694 22.856 95.769 95.769 0 0 0 5.466-33.885 100.093 100.093 0 0 0-4.034-23.621l.055-.01z" fill="#F66418"/><path d="M217.771 134.448a54.935 54.935 0 0 1 4.722 16.789 76.253 76.253 0 0 1 .547 16.866l-1.017 5.465a73.215 73.215 0 0 0 15.554-29.927 47.546 47.546 0 0 0-5.509-4.941 24.358 24.358 0 0 0-14.297-4.285v.033z" fill="#F66418"/><path d="M202.709 200.742a61.633 61.633 0 0 0 7.301-13.762 86.564 86.564 0 0 1-33.174 14.757 23.743 23.743 0 0 0 6.558 6.842 31.272 31.272 0 0 0 8.548 3.968 67.864 67.864 0 0 0 10.81-11.816l-.043.011zm-50.532 26.878l10.821.536a91.929 91.929 0 0 0 26.649-4.81 90.72 90.72 0 0 0 22.615-11.269 35.733 35.733 0 0 1-13.598 3.727 25.817 25.817 0 0 1-4.984.306 71.763 71.763 0 0 1-41.536 11.51h.033z" fill="#ED3921"/><path d="M212.022 154.812a68.841 68.841 0 0 0-7.018-18.298 42.707 42.707 0 0 0-15.554 8.744 54.444 54.444 0 0 0-12.581 15.555 52.965 52.965 0 0 0-5.05 17.849 38.243 38.243 0 0 0 1.487 16.09 23.923 23.923 0 0 0 2.262 4.744 61.21 61.21 0 0 0 17.795-4.974 67.352 67.352 0 0 0 16.855-9.553l.47-.328a95.058 95.058 0 0 0 2.339-11.28 68.522 68.522 0 0 0-1.016-18.582l.011.033z" fill="#FFEC00"/></g></svg>