<svg xmlns="http://www.w3.org/2000/svg" viewBox="0 0 310 310"><g fill-rule="evenodd" clip-rule="evenodd"><path fill="#00AEEF" d="M137.704 75.41h85.588c45.948 0 63.249 23.26 60.578 57.488-4.405 56.426-38.521 87.627-83.772 87.627h-22.846c-6.202 0-10.375 4.1-12.062 15.241l-9.802 64.686c-.636 4.202-2.846 6.67-6.167 6.968H95.555c-5.05 0-6.846-3.864-5.524-12.231l32.773-207.505c1.312-8.314 5.861-12.274 14.9-12.274z"/><path fill="#03428E" d="M84.196 4h85.673c24.13 0 52.747.783 71.893 17.668 12.789 11.279 19.5 29.25 17.95 48.542-5.254 65.419-44.385 102.06-96.859 102.06H120.6c-7.192 0-11.959 4.765-13.987 17.672l-11.791 75.007c-.765 4.867-2.874 7.734-6.725 8.08H35.322c-5.856 0-7.938-4.479-6.406-14.182L66.918 18.234C68.441 8.591 73.715 4 84.196 4z"/><path fill="#0E3178" d="M107.841 182.38l14.962-94.695c1.313-8.316 5.862-12.275 14.901-12.275h85.589c14.168 0 25.614 2.212 34.586 6.289-8.6 58.22-46.256 90.571-95.57 90.571h-42.254c-5.563 0-9.718 2.841-12.214 10.11z"/></g></svg>