<svg xmlns="http://www.w3.org/2000/svg" viewBox="0 0 31.76 17.45"><defs><style>.cls-1{fill:#25466c;}.cls-2{fill:#3e89bd;}</style></defs><title>Asset 1</title><g id="Layer_2" data-name="Layer 2"><g id="Layer_1-2" data-name="Layer 1"><path class="cls-1" d="M18.88,5a.82.82,0,0,0,.29.27.59.59,0,0,0,.66,0A.82.82,0,0,0,20.12,5a1.25,1.25,0,0,0,.2-.38,1.28,1.28,0,0,0,0-.89,1.25,1.25,0,0,0-.2-.38.82.82,0,0,0-.29-.27.55.55,0,0,0-.66,0,.82.82,0,0,0-.29.27,1.25,1.25,0,0,0-.2.38,1.28,1.28,0,0,0,0,.89,1.25,1.25,0,0,0,.2.38"/><path class="cls-1" d="M15.88,10.43a2,2,0,0,1-.38.62,2.11,2.11,0,0,1-.56.42,1.66,1.66,0,0,1-.7.15,1.6,1.6,0,0,1-.68-.15,2.11,2.11,0,0,1-.56-.42,2.05,2.05,0,0,1-.52-1.37,1.94,1.94,0,0,1,.14-.76A1.91,1.91,0,0,1,13,8.31a1.76,1.76,0,0,1,.56-.42,1.6,1.6,0,0,1,.68-.15,1.66,1.66,0,0,1,.7.15,1.76,1.76,0,0,1,.56.42,2.1,2.1,0,0,1,.38.61,2.14,2.14,0,0,1,.14.76,2,2,0,0,1-.14.75M17.63,8.1a3.91,3.91,0,0,0-.78-1.23,3.56,3.56,0,0,0-2.63-1.13,3.52,3.52,0,0,0-1.45.3,3.57,3.57,0,0,0-1.16.83,3.91,3.91,0,0,0-.78,1.23,4.09,4.09,0,0,0-.28,1.54,4,4,0,0,0,.28,1.53,3.84,3.84,0,0,0,.78,1.24,3.57,3.57,0,0,0,1.16.83,3.52,3.52,0,0,0,1.45.3,3.56,3.56,0,0,0,2.63-1.13,3.84,3.84,0,0,0,.78-1.24,4,4,0,0,0,.28-1.53,4.09,4.09,0,0,0-.28-1.54"/><path class="cls-1" d="M27.19,10.46a2,2,0,0,1-.4.64,2.07,2.07,0,0,1-.58.44,1.66,1.66,0,0,1-.73.16,1.6,1.6,0,0,1-.71-.16,1.94,1.94,0,0,1-.58-.44,2,2,0,0,1-.4-.64,2.09,2.09,0,0,1-.15-.79,2,2,0,0,1,.15-.78,2,2,0,0,1,.4-.64,1.79,1.79,0,0,1,.58-.44,1.6,1.6,0,0,1,.71-.16,1.66,1.66,0,0,1,.73.16,1.9,1.9,0,0,1,.58.44,2,2,0,0,1,.4.64,2,2,0,0,1,.15.78A2.09,2.09,0,0,1,27.19,10.46Zm1.7-2.32v0a3.71,3.71,0,0,0-.77-1.23A3.63,3.63,0,0,0,24,6a3.61,3.61,0,0,0-1.17.83,3.71,3.71,0,0,0-.77,1.23,4.14,4.14,0,0,0-.29,1.54h0v7a.06.06,0,0,0,0,0v.48a.32.32,0,0,0,.32.32h1.27a.31.31,0,0,0,.31-.32V13.39c0-.29.32-.11.32-.11a3.63,3.63,0,0,0,1.47.32h0a3.67,3.67,0,0,0,2.63-1.15,4,4,0,0,0,.78-1.24,4,4,0,0,0,.28-1.53,4.06,4.06,0,0,0-.28-1.54Z"/><path class="cls-1" d="M20.74,12.75V7.51a1.81,1.81,0,0,0-.62-1.4,1.58,1.58,0,0,0-.93-.37c-.15,0-.24.2-.24.37v7.17a.32.32,0,0,0,.31.32h1.17a.32.32,0,0,0,.32-.32V12.8a.07.07,0,0,0,0-.05"/><path class="cls-1" d="M9.58,12.75v-4a3.3,3.3,0,0,0-.22-1.18,3,3,0,0,0-.61-1A2.79,2.79,0,0,0,7.86,6l-.08,0a2.21,2.21,0,0,0-.48-.15,3.28,3.28,0,0,0-.56,0A2.72,2.72,0,0,0,5.67,6a3,3,0,0,0-.47.26l-.12.09a.52.52,0,0,1-.6,0l0,0s-.35-.21-.55-.3a2.67,2.67,0,0,0-1.06-.2h0a3.32,3.32,0,0,0-.56,0A2.7,2.7,0,0,0,1.71,6a2.82,2.82,0,0,0-.89.63,3.15,3.15,0,0,0-.6.94A3.3,3.3,0,0,0,0,8.72v4.56a.32.32,0,0,0,.32.32H1.43a.32.32,0,0,0,.31-.32V8.67A1.11,1.11,0,0,1,2.83,7.55,1.1,1.1,0,0,1,3.91,8.68v4.6a.32.32,0,0,0,.32.32H5.38a.32.32,0,0,0,.32-.32V8.63a1.05,1.05,0,1,1,2.1,0v4.64a.32.32,0,0,0,.31.32H9.27a.32.32,0,0,0,.32-.32V12.8s0,0,0-.05"/><path class="cls-2" d="M30.64,2.62l-.71.72a.25.25,0,0,1-.36,0l0,0a.25.25,0,0,1,0-.36l.34-.34a.27.27,0,0,0,0-.36l-.34-.34a.27.27,0,0,1,0-.37l0,0a.25.25,0,0,1,.36,0l.71.73a.25.25,0,0,1,0,.36Zm-1.91.72a.24.24,0,0,1-.35,0l0,0a.25.25,0,0,1,0-.36l.33-.34a.25.25,0,0,0,0-.36l-.33-.34a.27.27,0,0,1,0-.37l0,0a.24.24,0,0,1,.35,0l.71.73a.25.25,0,0,1,0,.36l-.71.72ZM28.11.1c-1,.56-1.08,4.27,0,4.71s3.65-1.26,3.66-2.36S29.06-.43,28.11.1Z"/></g></g></svg>