<svg xmlns="http://www.w3.org/2000/svg" viewBox="0 0 24.6 22.8">
  <defs>
    <style>
      .cls-1 {
        fill: #c73a63;
      }

      .cls-2 {
        fill: #4b4b4b;
      }

      .cls-3 {
        fill: #4a4a4a;
      }
    </style>
  </defs>
  <title>Asset 2</title>
  <g id="Layer_2" data-name="Layer 2">
    <g id="Layer_1-2" data-name="Layer 1">
      <path class="cls-1" d="M11.17,9.82c-1,1.75-2,3.46-3.05,5.15a1.35,1.35,0,0,0-.18,1.34,2.52,2.52,0,0,1-1.77,3.41A2.55,2.55,0,0,1,3,17.59a2.59,2.59,0,0,1,2.31-2.93l.47,0,2.29-3.86A6.34,6.34,0,0,1,6,5.55,6,6,0,0,1,15.24,1a5.87,5.87,0,0,1,2.44,6.81L15.59,7.2a4,4,0,0,0-.84-3.65A3.7,3.7,0,0,0,8.45,5c-.59,2,.3,3.6,2.72,4.83Z"
      />
      <path class="cls-2" d="M14.26,7.1,16.48,11A6.07,6.07,0,0,1,22,21.7a5.93,5.93,0,0,1-7.75-.77L16,19.49c2.15,1.4,4,1.33,5.43-.33a3.76,3.76,0,0,0-.06-4.91c-1.41-1.6-3.31-1.64-5.6-.11-.95-1.69-1.92-3.38-2.84-5.08a1.71,1.71,0,0,0-1.35-1,2.43,2.43,0,0,1-2-2.34,2.59,2.59,0,0,1,1.64-2.53,2.55,2.55,0,0,1,2.88.8,2.37,2.37,0,0,1,.44,2.37c-.08.25-.18.48-.3.77Z"
      />
      <path class="cls-3" d="M16.61,18.08H12.08a5.94,5.94,0,0,1-3,4A6.32,6.32,0,0,1,5,22.72a6,6,0,0,1-5-5.25A5.85,5.85,0,0,1,4.69,11.4c.19.67.39,1.34.58,2-2.56,1.24-3.45,2.81-2.73,4.78a3.76,3.76,0,0,0,4.37,2.3c2-.37,3-1.94,2.87-4.47,1.89,0,3.77,0,5.66,0a2.16,2.16,0,0,0,1.86-.68,2.53,2.53,0,0,1,3.58,0,2.38,2.38,0,0,1-.11,3.51,2.66,2.66,0,0,1-3.61-.12,8.32,8.32,0,0,1-.55-.69Z"
      />
    </g>
  </g>
</svg>