<svg xmlns="http://www.w3.org/2000/svg" viewBox="0 0 27.15 27"><defs><style>.cls-1{fill:#f26f21;}</style></defs><title>Asset 4</title><g id="Layer_2" data-name="Layer 2"><g id="Layer_1-2" data-name="Layer 1"><path class="cls-1" d="M6.81,17.88l2-3.76h9.86a2.28,2.28,0,0,1-2.35,1.49H10.92c.11-.15-1.1,2.27-1.1,2.27Zm2.81-5.21c.6-1.06,1.24-2.34,1.24-2.34a2.35,2.35,0,0,1,2.28-1.21h5.71c1.27.09,1.62.64,1.32,1.66a17,17,0,0,1-.86,1.91H9.62v0Z"/><path class="cls-1" d="M13.59,27A13.5,13.5,0,1,1,27.15,13.5,13.56,13.56,0,0,1,13.59,27Zm0-25.45a12,12,0,1,0,0,23.9,12,12,0,1,0,.06-23.9Z"/></g></g></svg>