<svg xmlns="http://www.w3.org/2000/svg" xmlns:xlink="http://www.w3.org/1999/xlink" viewBox="0 0 18 22.8"><defs><style>.cls-1{fill:#fff;}.cls-2{mask:url(#mask);}.cls-3{fill:#1a1919;}</style><mask id="mask" x="0" y="0" width="18" height="22.8" maskUnits="userSpaceOnUse"><g id="o"><polygon id="n" class="cls-1" points="18 22.8 18 0 0 0 0 22.8 18 22.8"/></g></mask></defs><title>Asset 5</title><g id="Layer_2" data-name="Layer 2"><g id="Layer_1-2" data-name="Layer 1"><g class="cls-2"><path class="cls-3" d="M8.11,9.61H9.89a.88.88,0,0,1,.87.89v1.8a.88.88,0,0,1-.87.89H8.11a.88.88,0,0,1-.87-.89V10.5A.88.88,0,0,1,8.11,9.61ZM1.93,9.37c1.4-.17,2.36.34,2.55,1.86A5.51,5.51,0,0,0,6.1,14.72a5.82,5.82,0,0,0,4.08,1.33,8.45,8.45,0,0,1,3.61.76,8.79,8.79,0,0,1,3,2.26l.83,1a1.69,1.69,0,0,1-.15,2.36,1.65,1.65,0,0,1-2.33-.16l-.83-1a5.31,5.31,0,0,0-1.85-1.4,5.25,5.25,0,0,0-2.24-.48,9,9,0,0,1-6.3-2.19,8.74,8.74,0,0,1-2.61-5,14.77,14.77,0,0,1-.17-1.87c0-.69.23-.89.82-1Zm14.14,4.06c.59-.07.83-.27.82-1a14.77,14.77,0,0,0-.17-1.87,8.74,8.74,0,0,0-2.61-5,9,9,0,0,0-6.3-2.19,5.25,5.25,0,0,1-2.24-.48A5.22,5.22,0,0,1,3.72,1.53l-.83-1A1.65,1.65,0,0,0,.56.41,1.69,1.69,0,0,0,.41,2.77l.83,1A8.79,8.79,0,0,0,4.21,6a8.45,8.45,0,0,0,3.61.76A5.86,5.86,0,0,1,11.9,8.08a5.51,5.51,0,0,1,1.62,3.49c.19,1.52,1.15,2,2.55,1.86Z"/></g></g></g></svg>