<svg xmlns="http://www.w3.org/2000/svg" viewBox="0 0 368.5 145.05">
    <defs>
        <style>
            .cls-1 {
                fill: #ffffff;
                fill-rule: evenodd;
            }
        </style>
    </defs>
    <title>Asset 2</title>
    <g id="Layer_2" data-name="Layer 2">
        <g id="Layer_1-2" data-name="Layer 1">
            <path class="cls-1" d="M326.84,39.52h-5.43a10.89,10.89,0,0,0-10.85,10.86V79a29,29,0,0,0,57.94,0V39.52h-5.42a10.9,10.9,0,0,0-10.86,10.86V79a12.69,12.69,0,0,1-25.38,0V39.52ZM269.05,53.34c9.33,0,13,7.09,13,16s-5.87,16-15.05,16c-8.63,0-13-6.17-13-15.82s6.7-16.21,15.08-16.21Zm13,44.39V96.14c-3.25,3.2-7.92,5.52-15.05,5.52-18.61,0-29.33-14.42-29.33-32.11,0-17.86,13.26-32.5,31.36-32.5,18.84,0,29.3,14.63,29.3,32.33,0,.57,0,1.13,0,1.68h0V97.59c0,19.07-13,30.3-31.5,30.3-12.49,0-23.78-4.27-23.78-14.47V108a42.36,42.36,0,0,0,18.57,5.41c8.58.62,20.43-.75,20.43-15.67ZM186.28,39.52h-5.43A10.89,10.89,0,0,0,170,50.38V79a29,29,0,1,0,57.94,0V39.52h-5.42a10.9,10.9,0,0,0-10.86,10.86V79a12.69,12.69,0,1,1-25.38,0V39.52Zm-28.49,0h-5.43A10.9,10.9,0,0,0,141.5,50.38V94.67a10.9,10.9,0,0,0,10.86,10.86h5.43v-66ZM145.55,17.16h8.19a4.06,4.06,0,0,1,4,4v8.2a4.06,4.06,0,0,1-4,4h-8.19a4.06,4.06,0,0,1-4.05-4V21.2a4.06,4.06,0,0,1,4.05-4Z"
            />
            <path class="cls-1" d="M103.64,85.44c3.8-.47,5.4-1.7,5.3-6.08a89.23,89.23,0,0,0-1.11-11.9C105.56,54.69,99.94,43.77,91,35.69c-9.86-8.91-23.44-14-40.61-13.95a34.35,34.35,0,0,1-14.48-3A34.87,34.87,0,0,1,24,9.76L18.63,3.62a10.63,10.63,0,0,0-16,14L8,23.75A56.48,56.48,0,0,0,27.16,38.12,55.46,55.46,0,0,0,50.47,43C62,42.91,70.77,46,76.76,51.42c5.78,5.22,9.29,12.9,10.47,22.2,1.21,9.67,7.39,12.92,16.41,11.82ZM12.47,59.61h0c9-1.1,15.2,2.15,16.41,11.82,1.18,9.3,4.69,17,10.48,22.2,6,5.4,14.73,8.51,26.28,8.46a55.38,55.38,0,0,1,23.3,4.84A56.51,56.51,0,0,1,108.1,121.3l5.38,6.14a10.62,10.62,0,0,1-16,14l-5.38-6.15a35.1,35.1,0,0,0-11.91-9,34.35,34.35,0,0,0-14.48-3c-17.17.08-30.75-5-40.61-14-8.94-8.07-14.56-19-16.83-31.76a89.23,89.23,0,0,1-1.11-11.9c-.09-4.38,1.5-5.61,5.3-6.08Zm39.87,1.56H63.77a5.65,5.65,0,0,1,5.64,5.64V78.24a5.65,5.65,0,0,1-5.64,5.64H52.34a5.65,5.65,0,0,1-5.64-5.64V66.81a5.65,5.65,0,0,1,5.64-5.64Z"
            />
        </g>
    </g>
</svg>