<?xml version="1.0" encoding="UTF-8"?>
<!-- Generator: Adobe Illustrator 22.0.1, SVG Export Plug-In . SVG Version: 6.00 Build 0) -->
<svg xmlns="http://www.w3.org/2000/svg" xmlns:xlink="http://www.w3.org/1999/xlink" id="Layer_1" x="0px" y="0px" viewBox="0 0 182.8 54"
    style="enable-background:new 0 0 182.8 54;" xml:space="preserve">
    <style type="text/css">
        .st0 {
            fill: #ffffff;
        }

        .st1 {
            fill: #ffffff;
        }
    </style>
    <title>Asset 1</title>
    <g>
        <path class="st0" d="M9.1,24.4c5.6,0,9.5,3.4,9.5,9.1v4c0,5.5-3.6,8.9-8.7,8.9c-1.3,0-2.5-0.2-3.7-0.7v7.1c0.1,0.3-0.2,0.7-0.5,0.7 c-0.1,0-0.1,0-0.2,0H0.7C0.4,53.6,0,53.4,0,53c0-0.1,0-0.1,0-0.2V26.7c0-0.3,0.2-0.7,0.5-0.8C3.3,25,6.1,24.5,9.1,24.4z M12.3,37.6 v-4.2c0-2.5-1.2-3.5-3.4-3.5c-0.9,0-1.9,0.1-2.8,0.4v10.1C7,40.8,8,41.1,9,41.1C11.1,41.1,12.3,40,12.3,37.6z"></path>
        <path class="st0" d="M30.7,24.4c5.5,0,8.8,2.9,8.8,9v11c0,0.4-0.2,0.7-0.6,0.8c-2.7,0.8-5.5,1.2-8.3,1.2c-5.8,0-9.4-2.2-9.4-6.9 c0-4.2,3.3-6.3,8.8-6.3c1.1,0,2.3,0.1,3.4,0.2v-0.4c0-2.1-0.8-3.3-3.4-3.3c-1.8,0-3.9,0.5-5,1.1c-0.3,0.2-0.7,0.1-0.9-0.1 c0,0,0-0.1-0.1-0.1l-1.7-3.1c-0.2-0.4-0.2-0.7,0.1-0.9C24.3,25.4,27.2,24.4,30.7,24.4z M30.6,41.4c0.9,0,1.8-0.1,2.7-0.3v-3.5 c-0.9-0.2-1.9-0.2-2.8-0.2c-2.2,0-3.2,0.7-3.2,2C27.4,40.7,28.7,41.4,30.6,41.4z"></path>
        <path class="st0" d="M52,54c-3.3,0-5.7-0.7-8-2.2c-0.3-0.2-0.4-0.6-0.2-1c0,0,0,0,0-0.1l2.1-3.2c0.1-0.3,0.5-0.4,0.8-0.3 c0,0,0.1,0,0.1,0.1c1.4,0.9,3.1,1.3,4.8,1.3c2.5,0,3.8-1,3.8-3.9c-1.2,0.4-2.5,0.6-3.8,0.6c-5.2,0-8.7-3.1-8.7-8.6v-3.3 c0-6.3,4.2-9.1,9.6-9.1c2.9,0,5.7,0.6,8.4,1.6c0.3,0.1,0.6,0.5,0.5,0.9v17C61.6,50.7,58.8,54,52,54z M52.6,40.1 c1.2,0,2.2-0.2,2.8-0.7v-9.1c-0.9-0.3-1.8-0.4-2.7-0.4c-2.2,0-3.4,0.9-3.4,3.4v3.5C49.3,39.2,50.6,40.1,52.6,40.1L52.6,40.1z"></path>
        <path class="st0" d="M74.2,24.4c5.5,0,8.8,2.9,8.8,9v11c0,0.4-0.2,0.7-0.6,0.8c-2.7,0.8-5.5,1.2-8.3,1.2c-5.8,0-9.4-2.2-9.4-6.9 c0-4.2,3.3-6.3,8.7-6.3c1.1,0,2.3,0.1,3.4,0.2v-0.4c0-2.1-0.8-3.3-3.4-3.3c-1.8,0-3.9,0.5-5,1.1c-0.3,0.2-0.7,0.1-0.9-0.1 c0,0,0-0.1-0.1-0.1l-1.7-3.2c-0.2-0.4-0.2-0.7,0.1-0.9C67.8,25.4,70.7,24.4,74.2,24.4z M74.1,41.4c0.9,0,1.8-0.1,2.7-0.3v-3.5 c-0.9-0.2-1.9-0.2-2.8-0.2c-2.2,0-3.2,0.7-3.2,2C70.9,40.7,72.2,41.4,74.1,41.4z"></path>
        <path class="st0" d="M87.8,45.9c-0.3,0-0.7-0.2-0.7-0.6c0-0.1,0-0.1,0-0.2V26.9c0-0.3,0.2-0.7,0.5-0.9c2.3-1.1,4.9-1.7,7.4-1.7 c1.3,0,2.6,0.1,3.9,0.4c0.4,0,0.7,0.3,0.7,0.7v0v3.8c0,0.3-0.2,0.6-0.5,0.7c-0.1,0-0.2,0-0.3,0c-0.8-0.1-1.7-0.2-2.5-0.2 c-1,0-2.1,0.1-3.1,0.5v14.9c0,0.5-0.2,0.7-0.7,0.7L87.8,45.9z"></path>
        <path class="st0" d="M129,24.5c5.3,0,9,3.1,9,8.8v11.9c0,0.5-0.2,0.7-0.7,0.7h-4.7c-0.3,0-0.7-0.2-0.7-0.6c0-0.1,0-0.1,0-0.2V33.1 c0-2-1-3.1-3.1-3.1c-0.9,0-1.8,0.2-2.6,0.7c0.3,0.8,0.4,1.7,0.4,2.6v12c0,0.5-0.2,0.7-0.7,0.7h-4.7c-0.3,0-0.7-0.2-0.7-0.6 c0-0.1,0-0.1,0-0.2V33.1c0-2.1-1-3.2-2.9-3.2c-0.8,0-1.6,0.1-2.4,0.4v14.9c0,0.3-0.2,0.7-0.6,0.7c0,0-0.1,0-0.1,0h-4.7 c-0.3,0-0.7-0.2-0.7-0.6c0-0.1,0-0.1,0-0.2V26.9c0-0.4,0.2-0.8,0.6-0.9c2.5-1,5.1-1.6,7.8-1.6c2,0,3.9,0.6,5.5,1.7 C125.1,25,126.8,24.5,129,24.5z"></path>
        <path class="st0" d="M159.9,36.8c0,0.4-0.2,0.7-0.7,0.7h-11.4v0.7c0,2.1,1.3,3.1,3.4,3.1c1.8,0,3.6-0.5,5.1-1.4 c0.2-0.2,0.6-0.2,0.8,0c0,0,0.1,0.1,0.1,0.2l2.1,2.8c0.2,0.3,0.2,0.7-0.1,1l0,0c-2.1,1.6-4.7,2.7-8.2,2.7c-5.2,0-9.4-2.8-9.4-8.4 V33c0-6,4.2-8.6,9.3-8.6c5,0,9,2.5,9,8.6L159.9,36.8z M150.8,29.5c-1.9,0-3.1,1-3.1,3.2v0.8h6.2v-0.8 C153.9,30.5,152.7,29.5,150.8,29.5z"></path>
        <path class="st1" d="M176.3,6.1h-9.9c-0.2,0-0.4,0.2-0.4,0.4l0,0v3.8c0,0.2,0.2,0.4,0.4,0.4l0,0h2.8l3-2.1c0.2-0.2,0.6-0.2,0.9-0.2 c0.4,0.1,0.7,0.5,0.7,0.9v4.1c0,0.3-0.1,0.6-0.3,0.8c-0.3,0.3-0.8,0.3-1.2,0.1l-3-2.1h-2.9c-0.2,0-0.4,0.2-0.4,0.4l0,0v9.9 c0,0.2,0.2,0.4,0.4,0.4l0,0h3.8c0.2,0,0.4-0.2,0.4-0.4v-5.2c0-0.2,0.2-0.4,0.4-0.4h5.3c0.2,0,0.4-0.2,0.4-0.4V6.5 C176.7,6.3,176.5,6.1,176.3,6.1L176.3,6.1z"></path>
        <path class="st1" d="M166.4,0h3.8c0.2,0,0.4,0.2,0.4,0.4v3.8c0,0.2-0.2,0.4-0.4,0.4h-3.8c-0.2,0-0.4-0.2-0.4-0.4V0.4 C166,0.2,166.2,0,166.4,0z"></path>
        <path class="st1" d="M160.3,12.2h3.8c0.2,0,0.4,0.2,0.4,0.4v3.8c0,0.2-0.2,0.4-0.4,0.4h-3.8c-0.2,0-0.4-0.2-0.4-0.4v-3.7 C159.9,12.4,160.1,12.2,160.3,12.2z"></path>
        <path class="st1" d="M160.3,6.1h3.8c0.2,0,0.4,0.2,0.4,0.4v3.8c0,0.2-0.2,0.4-0.4,0.4h-3.8c-0.2,0-0.4-0.2-0.4-0.4V6.5 C159.9,6.3,160.1,6.1,160.3,6.1z"></path>
        <path class="st1" d="M160.3,0h3.8c0.2,0,0.4,0.2,0.4,0.4v3.8c0,0.2-0.2,0.4-0.4,0.4h-3.8c-0.2,0-0.4-0.2-0.4-0.4V0.4 C159.9,0.2,160.1,0,160.3,0z"></path>
        <path class="st1" d="M172.5,0h3.8c0.2,0,0.4,0.2,0.4,0.4v3.8c0,0.2-0.2,0.4-0.4,0.4h-3.8c-0.2,0-0.4-0.2-0.4-0.4V0.4 C172.1,0.2,172.3,0,172.5,0z"></path>
        <path class="st1" d="M172.5,18.4h3.8c0.2,0,0.4,0.2,0.4,0.4v3.7c0,0.2-0.2,0.4-0.4,0.4h-3.8c-0.2,0-0.4-0.2-0.4-0.4v-3.7 C172.1,18.5,172.3,18.4,172.5,18.4z"></path>
        <path class="st1" d="M178.6,0h3.7c0.2,0,0.4,0.2,0.4,0.4v3.8c0,0.2-0.2,0.4-0.4,0.4h-3.7c-0.2,0-0.4-0.2-0.4-0.4V0.4 C178.2,0.2,178.4,0,178.6,0z"></path>
        <path class="st1" d="M178.6,6.1h3.7c0.2,0,0.4,0.2,0.4,0.4v3.8c0,0.2-0.2,0.4-0.4,0.4h-3.7c-0.2,0-0.4-0.2-0.4-0.4V6.5 C178.2,6.3,178.4,6.1,178.6,6.1z"></path>
        <path class="st1" d="M178.6,12.2h3.7c0.2,0,0.4,0.2,0.4,0.4v3.7c0,0.2-0.2,0.4-0.4,0.4h-3.7c-0.2,0-0.4-0.2-0.4-0.4v-3.7 C178.2,12.4,178.4,12.2,178.6,12.2z"></path>
        <path class="st1" d="M178.6,18.4h3.7c0.2,0,0.4,0.2,0.4,0.4v3.7c0,0.2-0.2,0.4-0.4,0.4h-3.7c-0.2,0-0.4-0.2-0.4-0.4v-3.7 C178.2,18.5,178.4,18.4,178.6,18.4z"></path>
        <path class="st1" d="M160.3,18.4h3.8c0.2,0,0.4,0.2,0.4,0.4v3.7c0,0.2-0.2,0.4-0.4,0.4h-3.8c-0.2,0-0.4-0.2-0.4-0.4v-3.7 C159.9,18.5,160.1,18.4,160.3,18.4z"></path>
        <path class="st1" d="M103.7,39.2l-3.8,2.7c-0.3,0.2-0.4,0.7-0.2,1c0,0.1,0.1,0.1,0.2,0.2l3.8,2.7c0.3,0.2,0.8,0.2,1-0.2 c0.1-0.1,0.1-0.3,0.1-0.4v-5.4c0-0.4-0.3-0.7-0.7-0.7C104,39,103.9,39.1,103.7,39.2z"></path>
    </g>
</svg>