<svg id="Layer_1" data-name="Layer 1" xmlns="http://www.w3.org/2000/svg" viewBox="0 0 310 310">
  <defs>
    <style>
      .cls-1 {
        fill: #95c93f;
      }
    </style>
  </defs>
  <title>Artboard 1</title>
  <g id="pagar_me">
    <path class="cls-1" d="M218.25,84.1H91.85a5.59,5.59,0,0,0-5.5,5.7v49.6a5.66,5.66,0,0,0,5.5,5.7h36.4l38.3-27.9a12.32,12.32,0,0,1,19.9,10.2v54.7a13.58,13.58,0,0,1-4.1,10,12.11,12.11,0,0,1-15.4.9l-38.7-28.2H91.85a5.59,5.59,0,0,0-5.5,5.7V300.7a5.66,5.66,0,0,0,5.5,5.7H140a5.59,5.59,0,0,0,5.5-5.7V231.6a5.66,5.66,0,0,1,5.5-5.7h67.3a5.59,5.59,0,0,0,5.5-5.7V89.8A5.53,5.53,0,0,0,218.25,84.1Z"
    />
    <path class="cls-1" d="M86.35,9.2V58.5a5.66,5.66,0,0,0,5.5,5.7H140a5.59,5.59,0,0,0,5.5-5.7V9.2A5.66,5.66,0,0,0,140,3.5H91.85A5.59,5.59,0,0,0,86.35,9.2Z"
    />
    <path class="cls-1" d="M8.25,170.6v49.6a5.66,5.66,0,0,0,5.5,5.7h47.8a5.59,5.59,0,0,0,5.5-5.7V170.6a5.66,5.66,0,0,0-5.5-5.7H13.85A5.68,5.68,0,0,0,8.25,170.6Z"
    />
    <path class="cls-1" d="M8.25,89.8v49.6a5.66,5.66,0,0,0,5.5,5.7h47.8a5.59,5.59,0,0,0,5.5-5.7V89.8a5.66,5.66,0,0,0-5.5-5.7H13.85A5.61,5.61,0,0,0,8.25,89.8Z"
    />
    <path class="cls-1" d="M8.25,9.2V58.5a5.66,5.66,0,0,0,5.5,5.7h47.8a5.59,5.59,0,0,0,5.5-5.7V9.2a5.66,5.66,0,0,0-5.5-5.7H13.85A5.68,5.68,0,0,0,8.25,9.2Z"
    />
    <path class="cls-1" d="M164.65,9.2V58.5a5.66,5.66,0,0,0,5.5,5.7h48.1a5.59,5.59,0,0,0,5.5-5.7V9.2a5.66,5.66,0,0,0-5.5-5.7h-48.1A5.66,5.66,0,0,0,164.65,9.2Z"
    />
    <path class="cls-1" d="M164.65,251.5v49.3a5.66,5.66,0,0,0,5.5,5.7h48.1a5.59,5.59,0,0,0,5.5-5.7V251.5a5.66,5.66,0,0,0-5.5-5.7h-48.1A5.59,5.59,0,0,0,164.65,251.5Z"
    />
    <path class="cls-1" d="M243,9.2V58.5a5.66,5.66,0,0,0,5.5,5.7h47.8a5.59,5.59,0,0,0,5.5-5.7V9.2a5.66,5.66,0,0,0-5.5-5.7h-47.8A5.66,5.66,0,0,0,243,9.2Z"
    />
    <path class="cls-1" d="M243,89.8v49.3a5.66,5.66,0,0,0,5.5,5.7h47.8a5.59,5.59,0,0,0,5.5-5.7V89.8a5.66,5.66,0,0,0-5.5-5.7h-47.8A5.59,5.59,0,0,0,243,89.8Z"
    />
    <path class="cls-1" d="M243,170.6v49.3a5.66,5.66,0,0,0,5.5,5.7h47.8a5.59,5.59,0,0,0,5.5-5.7V170.6a5.66,5.66,0,0,0-5.5-5.7h-47.8A5.66,5.66,0,0,0,243,170.6Z"
    />
    <path class="cls-1" d="M243,251.5v49.3a5.66,5.66,0,0,0,5.5,5.7h47.8a5.59,5.59,0,0,0,5.5-5.7V251.5a5.66,5.66,0,0,0-5.5-5.7h-47.8A5.59,5.59,0,0,0,243,251.5Z"
    />
    <path class="cls-1" d="M8.25,251.5v49.3a5.66,5.66,0,0,0,5.5,5.7h47.8a5.59,5.59,0,0,0,5.5-5.7V251.5a5.66,5.66,0,0,0-5.5-5.7H13.85A5.61,5.61,0,0,0,8.25,251.5Z"
    />
  </g>
</svg>