<?xml version="1.0" standalone="no"?><!-- Generator: Gravit.io --><svg xmlns="http://www.w3.org/2000/svg" xmlns:xlink="http://www.w3.org/1999/xlink" style="isolation:isolate" viewBox="0 0 319 386" width="319" height="386"><defs><clipPath id="_clipPath_n61RlQB4QyE2kyi4NeaezBOC8v9fCGh5"><rect width="319" height="386"/></clipPath></defs><g clip-path="url(#_clipPath_n61RlQB4QyE2kyi4NeaezBOC8v9fCGh5)"><g id="pagseguro"><g id="Camada_1-2"><g id="Group"><path d=" M 27.642 317.512 C 31.481 305.853 35.133 294.03 37.892 281.823 C 40.044 281.823 42.502 281.874 44.651 281.874 L 43.837 286.485 C 49.316 282.939 52.897 282.023 56.478 282.316 C 69.428 283.373 62.466 300.394 55.621 304.483 C 51.605 306.883 46.165 307.955 38.647 306.886 L 35.99 317.516 L 27.642 317.512 Z  M 53.222 298.691 C 57.135 295.415 57.088 289.471 54.396 287.76 C 51.703 286.05 45.645 287.416 43.669 292.3 C 41.692 297.184 41.559 300.182 40.459 302.824 C 42.721 302.66 49.312 301.967 53.222 298.691 Z " fill-rule="evenodd" fill="rgb(36,31,32)"/><path d=" M 90.961 307.52 C 88.523 307.52 86.394 307.571 83.96 307.571 L 84.414 302.292 C 79.404 307.023 71.287 310.154 67.565 305.693 C 62.478 298.723 67.295 289.647 73.045 285.937 C 79.428 281.804 87.916 282.023 96.343 281.839 C 93.321 290.242 91.29 298.852 90.965 307.52 L 90.961 307.52 Z  M 76.363 290.582 C 72.962 293.858 73.001 299.803 75.334 301.509 C 77.667 303.215 82.946 301.853 84.664 296.969 C 86.382 292.085 86.523 289.107 87.462 286.445 C 85.506 286.61 79.76 287.302 76.359 290.578 L 76.363 290.582 Z " fill-rule="evenodd" fill="rgb(36,31,32)"/><path d=" M 93.736 317.708 L 94.961 311.191 C 100.405 312.957 105.137 313.802 108.678 312.021 C 111.441 310.636 113.492 307.661 114.619 302.288 C 109.614 307.02 101.493 310.15 97.771 305.689 C 92.683 298.719 97.501 289.643 103.25 285.933 C 109.633 281.8 118.122 282.019 126.548 281.835 C 123.934 289.099 123.883 300.503 120.412 308.616 C 118.8 312.516 115.702 315.615 111.802 317.226 C 106.412 319.528 99.724 319.316 93.724 317.708 L 93.736 317.708 Z  M 106.573 290.582 C 103.172 293.858 103.211 299.803 105.544 301.509 C 107.876 303.215 113.156 301.853 114.874 296.969 C 116.592 292.085 116.733 289.107 117.672 286.445 C 115.715 286.61 109.97 287.302 106.569 290.578 L 106.573 290.582 Z " fill-rule="evenodd" fill="rgb(36,31,32)"/><path d=" M 177.363 317.708 L 178.588 311.191 C 184.032 312.957 188.764 313.802 192.306 312.021 C 195.065 310.636 197.119 307.661 198.247 302.288 C 193.241 307.02 185.12 310.15 181.418 305.689 C 176.33 298.719 181.148 289.643 186.897 285.933 C 193.276 281.8 201.769 282.019 210.195 281.835 C 207.581 289.099 207.53 300.503 204.058 308.616 C 202.447 312.517 199.349 315.615 195.448 317.226 C 190.059 319.528 183.371 319.316 177.371 317.708 L 177.363 317.708 Z  M 271.597 292.746 C 269.197 297.051 269.499 301.591 272.27 302.922 C 275.041 304.253 279.236 301.834 281.639 297.541 C 284.042 293.247 283.741 288.696 280.966 287.365 C 278.191 286.034 274 288.441 271.597 292.746 Z  M 269.456 285.103 C 262.02 290.085 259.038 298.484 262.803 303.857 C 266.567 309.231 275.639 309.548 283.075 304.566 C 290.511 299.584 293.494 291.185 289.729 285.811 C 285.964 280.438 276.892 280.121 269.456 285.103 Z  M 239.45 306.695 C 242.71 298.413 244.905 287.846 246.545 281.96 L 252.416 281.96 L 252.212 287.232 C 254.78 283.682 259.445 281.725 264.176 281.96 L 261.945 288.649 C 256.075 287.866 251.919 292.582 249.625 300.358 C 249.009 302.49 248.545 304.662 248.236 306.859 L 239.442 306.691 L 239.45 306.695 Z  M 215.717 281.753 L 223.016 281.956 C 221.744 287.365 219.631 292.566 218.367 297.975 C 216.465 304.554 224.308 303.869 227.693 299.799 C 230.707 294.5 232.053 288.144 233.978 281.757 L 241.273 281.757 C 238.534 290.206 236.119 298.652 234.988 307.102 C 232.828 306.965 230.256 306.832 228.096 306.71 Q 228.198 304.683 228.3 302.656 C 220.985 309.376 208.95 311.148 210.457 299.818 C 211.322 293.784 213.76 287.768 215.717 281.753 Z  M 174.154 301.623 C 173.951 303.313 173.344 305 173.14 306.71 C 165.266 307.791 156.82 309.614 152.461 303.466 C 147.948 294.762 154.457 286.794 160.167 283.8 C 170.186 279.307 177.148 281.592 178.616 286.031 C 181.586 293.811 172.401 298.946 159.153 297.38 C 157.771 304.147 164.683 304.033 174.154 301.638 L 174.154 301.623 Z  M 160.433 292.602 C 161.654 289.893 163.728 287.158 167.935 286.621 C 171.246 286.301 171.602 289.792 169.653 291.134 C 166.131 292.656 165.74 290.57 160.433 292.602 Z  M 127.84 301.118 C 127.026 302.875 126.114 304.734 125.304 306.491 C 135.205 308.648 142.79 307.348 145.78 304.143 C 148.704 300.538 148.21 296.46 143.146 293.498 C 142.066 292.746 139.009 291.251 139.092 289.459 C 139.236 285.385 145.432 286.355 149.232 287.533 L 150.445 281.956 C 147.574 281.337 144.627 281.157 141.702 281.42 C 138.082 281.775 134.692 283.36 132.098 285.909 C 129.961 288.128 129.519 291.122 130.301 292.954 C 131.241 295.138 134.293 296.053 135.847 296.969 C 138.45 298.182 140 299.098 139.557 300.942 C 139.185 302.507 137.303 303.756 133.926 303.153 C 131.828 302.761 129.382 302.034 127.836 301.129 L 127.84 301.118 Z  M 190.22 290.582 C 186.819 293.858 186.858 299.803 189.19 301.509 C 191.523 303.215 196.806 301.853 198.524 296.969 C 200.243 292.085 200.383 289.107 201.323 286.445 C 199.366 286.61 193.621 287.302 190.22 290.578 L 190.22 290.582 Z " fill-rule="evenodd" fill="rgb(255,255,255)"/><path d=" M 267.769 313.563 C 266.553 313.546 265.346 313.767 264.215 314.213 C 263.131 314.642 262.147 315.29 261.323 316.115 C 260.499 316.915 259.851 317.879 259.421 318.944 C 258.973 320.064 258.752 321.261 258.771 322.467 C 258.758 323.652 258.978 324.827 259.421 325.926 C 259.862 326.986 260.508 327.948 261.323 328.756 C 263.059 330.411 265.371 331.323 267.769 331.3 C 268.989 331.295 270.198 331.071 271.338 330.638 C 272.407 330.186 273.387 329.546 274.23 328.748 C 275.065 327.933 275.723 326.955 276.164 325.876 C 276.611 324.794 276.836 323.633 276.825 322.463 C 276.841 321.256 276.616 320.059 276.164 318.941 C 275.747 317.868 275.097 316.902 274.262 316.111 C 273.427 315.285 272.432 314.638 271.338 314.209 C 270.202 313.762 268.99 313.541 267.769 313.559 L 267.769 313.563 Z  M 267.769 319.218 C 268.561 319.176 269.328 319.508 269.839 320.115 C 270.388 320.77 270.668 321.609 270.622 322.463 C 270.661 323.295 270.381 324.111 269.839 324.745 C 269.315 325.332 268.556 325.654 267.769 325.621 C 266.997 325.662 266.25 325.346 265.742 324.764 C 265.187 324.139 264.905 323.317 264.959 322.482 C 264.897 321.627 265.178 320.781 265.742 320.134 C 266.237 319.531 266.989 319.198 267.769 319.238 L 267.769 319.218 Z " fill-rule="evenodd" fill="rgb(36,31,32)"/><path d=" M 255.989 326.095 C 256.139 325.099 256.206 324.092 256.188 323.085 L 256.188 313.935 L 250.118 313.935 L 250.118 323.159 C 250.118 324.193 250.013 324.921 249.727 325.371 C 249.435 325.802 248.93 326.039 248.412 325.989 C 247.898 326.036 247.4 325.799 247.113 325.371 C 246.866 324.979 246.721 324.228 246.721 323.159 L 246.721 313.935 L 240.694 313.935 L 240.694 323.085 C 240.658 324.093 240.728 325.102 240.906 326.095 C 241.019 326.779 241.262 327.435 241.622 328.028 C 242.307 329.079 243.276 329.915 244.416 330.439 C 246.961 331.591 249.879 331.591 252.423 330.439 C 253.564 329.929 254.527 329.089 255.187 328.028 C 255.561 327.434 255.833 326.78 255.989 326.095 Z " fill-rule="evenodd" fill="rgb(36,31,32)"/><path d=" M 285.455 313.935 L 279.381 313.935 L 279.381 330.854 L 291.357 330.854 L 291.357 325.367 L 285.455 325.367 L 285.455 313.935 L 285.455 313.935 L 285.455 313.935 Z " fill-rule="evenodd" fill="rgb(36,31,32)"/></g><g id="Group"><path d=" M 86.615 78.648 C 79.584 87.014 74.059 96.537 70.285 106.794 C 66.135 117.522 64.004 128.924 64 140.427 C 64.045 153.308 66.684 166.048 71.761 177.886 C 76.475 189.255 83.392 199.578 92.113 208.262 C 100.771 216.916 111.009 223.828 122.271 228.626 C 134.007 233.778 146.683 236.447 159.5 236.463 C 172.398 236.508 185.161 233.837 196.959 228.626 C 208.205 223.799 218.437 216.889 227.117 208.262 C 235.74 199.562 242.55 189.238 247.152 177.886 C 257.044 155.341 257.606 129.796 248.715 106.837 C 244.844 96.63 239.331 87.123 232.396 78.691 C 225.516 70.466 217.257 63.501 207.988 58.109 C 193.494 49.703 178.541 44.697 161.216 44.697 L 158.724 44.697 C 141.607 44.697 125.965 49.594 111.231 58.065 C 101.884 63.432 93.552 70.398 86.615 78.648 L 86.615 78.648 Z " fill-rule="evenodd" fill="rgb(36,31,32)"/><path d=" M 223.313 79.435 C 211.749 65.111 195.399 55.448 177.273 52.228 C 159.258 48.667 140.564 51.619 124.522 60.557 C 116.277 65.119 108.953 71.176 102.924 78.418 C 96.846 85.755 92.254 94.205 89.403 103.296 C 86.465 112.79 85.516 122.789 86.615 132.666 C 89.284 126.285 92.932 120.359 97.426 115.101 C 103.91 107.501 111.97 101.403 121.047 97.229 C 130.219 93.114 140.125 90.884 150.177 90.671 C 160.387 90.635 170.495 92.712 179.864 96.77 C 189.682 100.76 198.452 106.953 205.496 114.871 C 208.184 117.724 210.603 120.82 212.721 124.119 C 215.86 124.041 218.996 124.383 222.045 125.135 C 228.982 126.923 235.151 130.916 239.621 136.514 L 239.84 132.94 C 240.642 123.464 239.648 113.922 236.91 104.815 C 234.025 95.587 229.41 86.993 223.313 79.489 L 223.313 79.435 Z " fill-rule="evenodd" fill="rgb(255,170,0)"/><path d=" M 84.582 169.885 C 85.708 177.388 88.178 184.627 91.873 191.254 C 95.55 197.99 100.395 204.019 106.181 209.06 L 109.209 211.541 C 119.262 218.602 130.633 223.568 142.645 226.144 C 150.331 227.516 158.22 227.252 165.796 225.368 C 173.906 223.601 181.59 220.259 188.412 215.531 C 181.834 214.065 175.911 210.501 171.535 205.376 L 169.764 203.354 C 160.221 204.41 150.572 203.986 141.159 202.097 C 129.468 199.379 118.445 194.33 108.75 187.254 C 99.338 180.054 91.541 170.961 85.861 160.561 L 84.385 157.522 C 84.116 161.643 84.196 165.778 84.626 169.885 L 84.582 169.885 Z " fill-rule="evenodd" fill="rgb(255,170,0)"/><path d=" M 174.016 106.553 C 165.115 102.823 155.542 100.963 145.892 101.088 C 136.58 101.214 127.406 103.359 119.003 107.373 C 104.461 113.87 93.092 125.872 87.391 140.744 C 89.128 148.336 92.01 155.619 95.939 162.343 C 101.601 172.095 109.313 180.502 118.543 186.98 C 127.66 193.427 137.996 197.946 148.919 200.261 C 155.789 201.543 162.782 202.039 169.764 201.737 C 166.993 197.239 165.192 192.213 164.474 186.98 C 163.611 181.305 163.714 175.525 164.78 169.885 C 166.063 162.669 168.696 155.761 172.54 149.521 C 176.686 143.088 181.955 137.453 188.095 132.885 C 192.011 130.074 196.241 127.727 200.698 125.889 L 198.446 123.332 C 191.579 116.086 183.262 110.369 174.038 106.553 L 174.016 106.553 Z " fill-rule="evenodd" fill="rgb(237,57,33)"/><path d=" M 241.162 149.521 L 238.976 145.717 C 235.697 157.063 229.631 167.098 221.87 176.181 C 220.112 183.481 217.158 190.44 213.126 196.774 C 208.932 203.092 203.733 208.682 197.735 213.323 C 202.073 213.518 206.405 212.83 210.469 211.301 C 214.668 209.692 218.575 207.407 222.034 204.535 C 227.182 199.66 231.818 194.272 235.872 188.456 L 236.561 187.45 C 238.359 183.858 239.964 180.173 241.37 176.41 C 242.583 172.847 243.347 169.145 243.644 165.392 C 243.963 161.937 243.805 158.454 243.174 155.041 C 242.615 153.177 241.936 151.352 241.141 149.576 L 241.162 149.521 Z " fill-rule="evenodd" fill="rgb(255,136,0)"/><path d=" M 75.794 105.296 C 72.516 114.604 70.673 124.356 70.329 134.218 C 70.075 147.309 72.566 160.308 77.641 172.377 C 80.127 178.211 83.203 183.774 86.823 188.981 C 90.37 194.018 94.396 198.7 98.847 202.961 C 89.299 192.628 83.246 179.554 81.544 165.589 C 81.106 160.913 81.025 156.21 81.303 151.522 C 78.037 142.74 76.328 133.455 76.253 124.086 C 76.341 115.211 77.783 106.402 80.527 97.962 C 82.855 92.023 85.739 86.318 89.14 80.921 C 83.509 88.335 79.022 96.552 75.827 105.296 L 75.794 105.296 Z " fill-rule="evenodd" fill="rgb(246,100,24)"/><path d=" M 247.393 110.598 C 245.192 103.307 242.166 96.292 238.375 89.687 C 234.581 83.313 229.933 77.487 224.559 72.373 C 219.459 67.02 213.609 62.436 207.19 58.765 C 212.734 62.607 217.801 67.094 222.285 72.133 C 236.347 87.447 243.438 107.901 241.873 128.633 C 241.643 131.912 241.162 134.918 240.638 138.186 C 242.027 140.438 243.223 142.804 244.212 145.258 C 246.632 152.625 247.214 160.471 245.906 168.114 C 249.754 157.241 251.605 145.761 251.372 134.229 C 250.978 126.223 249.624 118.292 247.338 110.608 L 247.393 110.598 Z " fill-rule="evenodd" fill="rgb(246,100,24)"/><path d=" M 217.771 134.448 C 220.229 139.757 221.823 145.425 222.493 151.237 C 223.299 156.822 223.482 162.478 223.04 168.103 L 222.023 173.568 C 229.466 164.939 234.792 154.691 237.577 143.641 C 235.872 141.853 234.03 140.202 232.068 138.7 C 227.868 135.811 222.868 134.312 217.771 134.415 L 217.771 134.448 Z " fill-rule="evenodd" fill="rgb(246,100,24)"/><path d=" M 202.709 200.742 C 205.715 196.482 208.168 191.858 210.01 186.98 C 200.12 194.189 188.813 199.218 176.836 201.737 C 178.54 204.435 180.77 206.762 183.394 208.579 C 186.027 210.326 188.909 211.664 191.942 212.547 C 195.999 209.049 199.628 205.082 202.752 200.731 L 202.709 200.742 Z " fill-rule="evenodd" fill="rgb(237,57,33)"/><path d=" M 152.177 227.62 L 162.998 228.156 C 172.07 227.877 181.05 226.256 189.647 223.346 C 197.674 220.663 205.286 216.87 212.262 212.077 C 208.022 214.21 203.4 215.477 198.664 215.804 C 197.017 216.067 195.348 216.169 193.68 216.11 C 181.341 224.112 166.842 228.13 152.144 227.62 L 152.177 227.62 Z " fill-rule="evenodd" fill="rgb(237,57,33)"/><path d=" M 212.022 154.812 C 210.567 148.409 208.204 142.247 205.004 136.514 C 199.261 138.301 193.961 141.281 189.45 145.258 C 184.332 149.621 180.066 154.895 176.869 160.813 C 174.149 166.419 172.439 172.462 171.819 178.662 C 171.163 184.07 171.67 189.556 173.306 194.752 C 173.883 196.411 174.642 198.002 175.568 199.496 C 181.717 198.748 187.717 197.071 193.363 194.522 C 199.412 192.167 205.089 188.949 210.218 184.969 L 210.688 184.641 C 211.695 180.932 212.476 177.165 213.027 173.361 C 213.535 167.149 213.193 160.898 212.011 154.779 L 212.022 154.812 Z " fill-rule="evenodd" fill="rgb(255,236,0)"/></g></g></g></g></svg>