<svg id="Layer_1" xmlns="http://www.w3.org/2000/svg" viewBox="-573.2 480.5 40 41"><style>.st1{fill:#888}</style><path fill="#fff" d="M-572.5 484.1h38.5V518h-38.5z"/><path class="st1" d="M-572.2 502.4c-2.8-3-4.5-7.1-4.5-12.1 0-4.4 1.4-8.1 3.7-11h-5v23.1h5.8zm26.2 0c1.2-1.3 2.3-2.9 3.3-4.6l-5.5-2.8c-1.9 3.1-4.7 6-8.6 6-5.7 0-7.9-4.9-7.9-11.1h21.3v-1.4c.2-3.7-.8-6.9-2.6-9.3h4.7v23.1h-4.7v.1z" transform="translate(6.337 5.703)"/><path class="st1" d="M-564.4 484.6c.3-2.8 2.5-4.7 5.1-4.7s4.6 1.9 4.6 4.7h-9.7z" transform="translate(6.337 5.703)"/><path d="M-574.8 333.9v-.9h-3v5.7h3v-.9h-1.9v-1.5h1.8v-.9h-1.8V334l1.9-.1zm5 2.4c.8-.1 1.1-.8 1.2-1.6 0-1.2-.8-1.7-1.9-1.7h-1.5v5.7h1.1v-2.3l1.4 2.3h1.4l-1.7-2.4zm-1.2-2.4h.2c.6 0 1 .2 1 .9s-.4.8-1 .8h-.2v-1.7zm6.2-.9h-1.1v5.7h2.7v-.9h-1.6V333zm7.1 4.6l.5 1.2h1.2l-2.1-5.8h-.9l-2.3 5.8h1.2l.5-1.2h1.9zm-.2-1h-1.4l.6-2.1.8 2.1zm4 2.1h1.2v-3.8l3 4h.8V333h-1.2v3.8l-3-4h-.8v5.9zm9.8-3v.9h1.3c0 .7-.6 1.4-1.3 1.3-1.1 0-1.6-1-1.6-2 0-.9.5-2 1.6-2 .6 0 1.1.4 1.3.9l.9-.5c-.4-.9-1.3-1.4-2.3-1.4-1.7 0-2.8 1.4-2.8 3s1.1 3 2.7 3c1.8 0 2.6-1.4 2.6-3v-.2h-2.4z" transform="translate(6.337 178.06)" fill="#888"/></svg>