<svg width="111" height="29" viewBox="0 0 111 29" xmlns="http://www.w3.org/2000/svg"><path d="M39.066 23V6.896h2.37l6.93 12.005h.044V6.896h2.325V23H48.41l-6.996-12.005h-.045V23h-2.303zm16.45 0V6.896h9.872V9.04h-7.57v5.29h6.93v2.02h-6.93V23h-2.302zm13.632 0V6.896h9.849V9.04H71.45v4.671h6.907v2.044H71.45v5.133h7.547V23h-9.85zm14.058 0v-2.853h2.92V23h-2.92zm7.836 0V6.896h2.29V23h-2.29zm6.275-8.187c0-1.34.193-2.546.578-3.616.386-1.07.903-1.937 1.55-2.6a6.778 6.778 0 0 1 2.19-1.516 6.447 6.447 0 0 1 2.566-.522c.884 0 1.728.177 2.533.533a6.76 6.76 0 0 1 2.167 1.539c.64.67 1.151 1.544 1.533 2.622.382 1.078.573 2.287.573 3.627 0 1.198-.125 2.28-.376 3.246-.251.966-.59 1.769-1.017 2.409a6.298 6.298 0 0 1-1.521 1.606 5.91 5.91 0 0 1-1.848.926 7.287 7.287 0 0 1-2.044.281 7.237 7.237 0 0 1-2.072-.292 6.071 6.071 0 0 1-1.87-.943 6.351 6.351 0 0 1-1.532-1.623c-.431-.648-.774-1.456-1.028-2.426-.255-.97-.382-2.053-.382-3.251zm2.415 0c0-1.018.12-1.924.359-2.718.24-.793.567-1.432.983-1.915a4.226 4.226 0 0 1 1.415-1.095 3.99 3.99 0 0 1 1.712-.37 3.77 3.77 0 0 1 1.68.382c.52.254.984.627 1.392 1.117.408.49.73 1.136.966 1.937.236.801.353 1.711.353 2.73 0 2.126-.406 3.711-1.218 4.755-.812 1.045-1.87 1.567-3.173 1.567a4 4 0 0 1-1.752-.382 4.09 4.09 0 0 1-1.409-1.134c-.408-.502-.728-1.168-.96-1.999-.232-.831-.348-1.79-.348-2.875zM24.02 6.962c.31.318.48.74.48 1.19v14.797c0 3.068-2.433 5.564-5.423 5.564H5.423C2.433 28.513 0 26.017 0 22.949V5.563C0 2.496 2.433 0 5.423 0h6.827c.904 0 1.64.755 1.64 1.682v11.4l1.06-1.09a1.61 1.61 0 0 1 2.32 0 1.716 1.716 0 0 1 0 2.379l-3.858 3.958a1.525 1.525 0 0 1-.315.252l-.013.008a1.316 1.316 0 0 1-.12.067l-.015.006a1.448 1.448 0 0 1-.297.11l-.037.01-.047.01a1.11 1.11 0 0 1-.077.013l-.017.002a1.678 1.678 0 0 1-.455 0l-.016-.003a1 1 0 0 1-.07-.012l-.046-.01-.034-.01a1.343 1.343 0 0 1-.298-.107 1.59 1.59 0 0 1-.45-.32l-.014-.013-3.86-3.96a1.715 1.715 0 0 1 0-2.379 1.609 1.609 0 0 1 2.318 0l1.062 1.089V3.364H5.423c-1.182 0-2.144.987-2.144 2.2v17.385c0 1.213.962 2.2 2.144 2.2h13.654c1.182 0 2.144-.987 2.144-2.2V9.316h-1.766c-2.489 0-4.035-1.587-4.035-4.14V0h1.135c.437 0 .849.175 1.159.493l6.306 6.469z" fill="#FFF" fill-rule="evenodd"/></svg>