<svg xmlns="http://www.w3.org/2000/svg" viewBox="-578.9 480.5 40 41"><linearGradient id="a" gradientUnits="userSpaceOnUse" x1="-1643.059" y1="600.555" x2="-1642.96" y2="600.653" gradientTransform="matrix(189.3834 0 0 189.8058 310593.875 -113503.14)"><stop offset="0" stop-color="#3a7fb9"/><stop offset="1" stop-color="#386a95"/></linearGradient><path d="M-559 482.2c-9.6 0-9 4.1-9 4.1v4.3h9.1v1.3h-12.8s-6.1-.7-6.1 9 5.3 9.3 5.3 9.3h3.2v-4.5s-.2-5.3 5.3-5.3h9.1s5.1.1 5.1-4.9v-8.4c0 .1.8-4.9-9.2-4.9zm-5.1 2.9c.9 0 1.7.8 1.7 1.7 0 .9-.8 1.7-1.7 1.7s-1.7-.8-1.7-1.7c0-.9.8-1.7 1.7-1.7z" fill="url(#a)"/><linearGradient id="b" gradientUnits="userSpaceOnUse" x1="-1643.347" y1="600.279" x2="-1643.241" y2="600.38" gradientTransform="matrix(189.3834 0 0 189.8058 310659.875 -113438.883)"><stop offset="0" stop-color="#fee053"/><stop offset="1" stop-color="#ffc433"/></linearGradient><path d="M-558.8 519.8c9.6 0 9-4.1 9-4.1v-4.3h-9.1V510h12.8s6.1.7 6.1-9-5.3-9.3-5.3-9.3h-3.2v4.5s.2 5.3-5.3 5.3h-9.1s-5.1-.1-5.1 4.9v8.3c0 .1-.8 5.1 9.2 5.1zm5.1-2.9c-.9 0-1.7-.8-1.7-1.7s.8-1.7 1.7-1.7 1.7.8 1.7 1.7-.8 1.7-1.7 1.7z" fill="url(#b)"/></svg>