<svg xmlns="http://www.w3.org/2000/svg" viewBox="-579 480.5 40 41"><linearGradient id="a" gradientUnits="userSpaceOnUse" x1="-1083.244" y1="194.696" x2="-1083.285" y2="194.622" gradientTransform="matrix(202.9347 0 0 202.7803 219283.953 -38955.941)"><stop offset="0" stop-color="#f37657"/><stop offset="0" stop-color="#f37657"/><stop offset=".41" stop-color="#e32f26"/><stop offset=".99" stop-color="#991b1e"/><stop offset="1" stop-color="#991b1e"/></linearGradient><path d="M-548 507.4l-22.9 13.6 29.7-2 2.3-29.9-9.1 18.3z" fill="url(#a)"/><linearGradient id="b" gradientUnits="userSpaceOnUse" x1="-1079.594" y1="195.611" x2="-1079.775" y2="195.546" gradientTransform="matrix(60.3079 0 0 111.7781 64568.46 -21352.959)"><stop offset="0" stop-color="#861719"/><stop offset="0" stop-color="#861719"/><stop offset=".99" stop-color="#911a1d"/><stop offset="1" stop-color="#911a1d"/></linearGradient><path d="M-541.2 519l-2.5-17.6-6.9 9.2 9.4 8.4z" fill="url(#b)"/><linearGradient id="c" gradientUnits="userSpaceOnUse" x1="-1083.084" y1="203.935" x2="-1083.142" y2="203.602" gradientTransform="matrix(188.3195 0 0 21.9864 203417.484 -3958.698)"><stop offset="0" stop-color="#861719"/><stop offset="0" stop-color="#861719"/><stop offset=".99" stop-color="#911a1d"/><stop offset="1" stop-color="#911a1d"/></linearGradient><path d="M-541.2 519l-18.7-1.5-10.9 3.5 29.6-2z" fill="url(#c)"/><linearGradient id="d" gradientUnits="userSpaceOnUse" x1="-1078.033" y1="195.733" x2="-1078.007" y2="195.846" gradientTransform="matrix(65.2221 0 0 97.0999 69740.39 -18498.896)"><stop offset="0" stop-color="#fff"/><stop offset="0" stop-color="#fff"/><stop offset=".23" stop-color="#e57353"/><stop offset=".46" stop-color="#de3e26"/><stop offset=".99" stop-color="#a51e22"/><stop offset="1" stop-color="#a51e22"/></linearGradient><path d="M-570.8 521l4.7-15.3-10.3 2.2 5.6 13.1z" fill="url(#d)"/><linearGradient id="e" gradientUnits="userSpaceOnUse" x1="-1081.375" y1="196.058" x2="-1081.37" y2="196.163" gradientTransform="matrix(105.3202 0 0 106.8253 113331.094 -20447.383)"><stop offset="0" stop-color="#fff"/><stop offset="0" stop-color="#fff"/><stop offset=".23" stop-color="#e3714e"/><stop offset=".56" stop-color="#bd2026"/><stop offset=".99" stop-color="#a71e22"/><stop offset="1" stop-color="#a71e22"/></linearGradient><path d="M-550.7 510.6l-4.3-16.8-12.3 11.5 16.6 5.3z" fill="url(#e)"/><linearGradient id="f" gradientUnits="userSpaceOnUse" x1="-1081.608" y1="198.904" x2="-1081.588" y2="199.025" gradientTransform="matrix(94.3212 0 0 66.4185 101469.273 -12724.762)"><stop offset="0" stop-color="#fff"/><stop offset="0" stop-color="#fff"/><stop offset=".18" stop-color="#e46342"/><stop offset=".4" stop-color="#c72a27"/><stop offset=".99" stop-color="#a71e22"/><stop offset="1" stop-color="#a71e22"/></linearGradient><path d="M-540 494l-11.6-9.5-3.2 10.5 14.8-1z" fill="url(#f)"/><linearGradient id="g" gradientUnits="userSpaceOnUse" x1="-1080.184" y1="210.653" x2="-1080.07" y2="210.488" gradientTransform="matrix(70.7666 0 0 24.3007 75886.086 -4635.652)"><stop offset="0" stop-color="#fff"/><stop offset="0" stop-color="#fff"/><stop offset=".54" stop-color="#c82527"/><stop offset=".99" stop-color="#be2026"/><stop offset="1" stop-color="#be2026"/></linearGradient><path d="M-545.4 481.2l-6.8 3.8-4.3-3.8h11.1z" fill="url(#g)"/><linearGradient id="h" gradientUnits="userSpaceOnUse" x1="-1057.743" y1="197.117" x2="-1057.707" y2="197.208" gradientTransform="matrix(18.1773 0 0 72.6448 18648.674 -13815.522)"><stop offset="0" stop-color="#fff"/><stop offset="0" stop-color="#fff"/><stop offset=".31" stop-color="#dd4326"/><stop offset=".99" stop-color="#be2026"/><stop offset="1" stop-color="#be2026"/></linearGradient><path d="M-579 513l2.9-5.2-2.3-6.2-.6 11.4z" fill="url(#h)"/><path d="M-578.7 501.4l2.3 6.6 10.1-2.3 11.6-10.7 3.3-10.4-5.2-3.6-8.7 3.3c-2.8 2.5-8.1 7.6-8.3 7.7-.2.1-3.4 6.4-5.1 9.4z" fill="#fff"/><linearGradient id="i" gradientUnits="userSpaceOnUse" x1="-1082.534" y1="195.506" x2="-1082.338" y2="195.303" gradientTransform="matrix(158.1624 0 0 157.9374 170633.422 -30365.213)"><stop offset="0" stop-color="#bd2025"/><stop offset="0" stop-color="#bd2025"/><stop offset=".07" stop-color="#fff"/><stop offset=".17" stop-color="#fff"/><stop offset=".27" stop-color="#c83227"/><stop offset=".33" stop-color="#811517"/><stop offset=".46" stop-color="#a21d21"/><stop offset=".72" stop-color="#b21f24"/><stop offset=".99" stop-color="#e62c25"/><stop offset="1" stop-color="#e62c25"/></linearGradient><path d="M-570.5 489.5c6-5.9 13.6-9.4 16.6-6.4 2.9 3-.2 10.2-6.1 16.1-5.9 5.9-13.6 9.6-16.6 6.6-2.9-3 .1-10.4 6.1-16.3z" fill="url(#i)"/><linearGradient id="j" gradientUnits="userSpaceOnUse" x1="-1081.929" y1="195.818" x2="-1082.002" y2="195.794" gradientTransform="matrix(127.0738 0 0 97.4086 136925.766 -18558.652)"><stop offset="0" stop-color="#8b181b"/><stop offset="0" stop-color="#8b181b"/><stop offset=".54" stop-color="#991b1f"/><stop offset=".99" stop-color="#a71e22"/><stop offset="1" stop-color="#a71e22"/></linearGradient><path d="M-570.8 521l4.6-15.3 15.4 4.9c-5.6 5.2-11.7 9.6-20 10.4z" fill="url(#j)"/><linearGradient id="k" gradientUnits="userSpaceOnUse" x1="-1081.534" y1="196.162" x2="-1081.623" y2="196.091" gradientTransform="matrix(94.0112 0 0 105.6032 101133.445 -20210.95)"><stop offset="0" stop-color="#7e1416"/><stop offset="0" stop-color="#7e1416"/><stop offset=".99" stop-color="#9e1c20"/><stop offset="1" stop-color="#9e1c20"/></linearGradient><path d="M-554.7 494.9l3.9 15.6c4.7-4.8 8.9-10.1 10.9-16.5l-14.8.9z" fill="url(#k)"/><linearGradient id="l" gradientUnits="userSpaceOnUse" x1="-1081.006" y1="198.032" x2="-1081.058" y2="197.978" gradientTransform="matrix(79.7019 0 0 81.7914 85618.398 -15706.683)"><stop offset="0" stop-color="#791715"/><stop offset="0" stop-color="#791715"/><stop offset=".99" stop-color="#9e1d20"/><stop offset="1" stop-color="#9e1d20"/></linearGradient><path d="M-539.9 494c1.6-4.8 1.9-11.6-5.5-12.9l-6.1 3.4 11.6 9.5z" fill="url(#l)"/><path d="M-579 512.9c.2 7.9 5.9 8 8.3 8.1l-5.6-13-2.7 4.9z" fill="#9e1d20"/><radialGradient id="m" cx="-1081.572" cy="200.203" r=".11" gradientTransform="matrix(93.1133 0 0 48.6553 100158.773 -9243.896)" gradientUnits="userSpaceOnUse"><stop offset="0" stop-color="#a71e22"/><stop offset="0" stop-color="#a71e22"/><stop offset=".99" stop-color="#7e1416"/><stop offset="1" stop-color="#7e1416"/></radialGradient><path d="M-554.7 495c3.6 2.2 10.8 6.6 10.9 6.7.2.1 3.1-4.8 3.8-7.7l-14.7 1z" fill="url(#m)"/><radialGradient id="n" cx="-1081.147" cy="196.671" r=".139" gradientTransform="matrix(97.4344 0 0 75.848 104776.89 -14406.594)" gradientUnits="userSpaceOnUse"><stop offset="0" stop-color="#a21d21"/><stop offset="0" stop-color="#a21d21"/><stop offset=".99" stop-color="#811517"/><stop offset="1" stop-color="#811517"/></radialGradient><path d="M-566.2 505.6l6.2 11.9c3.7-2 6.5-4.4 9.1-7l-15.3-4.9z" fill="url(#n)"/><linearGradient id="o" gradientUnits="userSpaceOnUse" x1="-1073.191" y1="196.351" x2="-1073.275" y2="196.209" gradientTransform="matrix(40.1367 0 0 81.143 42500.676 -15411.472)"><stop offset="0" stop-color="#8c231c"/><stop offset="0" stop-color="#8c231c"/><stop offset=".43" stop-color="#9e1d20"/><stop offset=".99" stop-color="#b22024"/><stop offset="1" stop-color="#b22024"/></linearGradient><path d="M-576.4 508l-.9 10.4c1.7 2.3 3.9 2.5 6.3 2.3-1.7-4.3-5-12.9-5.4-12.7z" fill="url(#o)"/><linearGradient id="p" gradientUnits="userSpaceOnUse" x1="-1081.009" y1="206.02" x2="-1080.912" y2="206.123" gradientTransform="matrix(78.0993 0 0 32.6239 83878.29 -6238.173)"><stop offset="0" stop-color="#b21f24"/><stop offset="0" stop-color="#b21f24"/><stop offset=".44" stop-color="#911a1d"/><stop offset=".99" stop-color="#791e15"/><stop offset="1" stop-color="#791e15"/></linearGradient><path d="M-551.5 484.6l12.3 1.7c-.7-2.8-2.7-4.6-6.1-5.1l-6.2 3.4z" fill="url(#p)"/></svg>