<svg xmlns="http://www.w3.org/2000/svg" width="80" height="80" viewBox="0 0 80 80"><defs><linearGradient id="a" x1="31.234%" x2="81.126%" y1="-9.229%" y2="104.898%"><stop offset="0%" stop-color="#3369E6"/><stop offset="100%" stop-color="#1CC7D0"/></linearGradient></defs><g fill="none" fill-rule="evenodd"><rect width="80" height="80" fill="#FFF" rx="6"/><g fill="url(#a)" transform="translate(19.333 23.333)"><path d="M20.9 30.71A13.58 13.58 0 0 1 7.35 17.62h3.74L5.54 9.87 0 17.62h3.75a17.15 17.15 0 0 0 28.17 12.69l-2.32-2.76a13.55 13.55 0 0 1-8.7 3.16zM38.09 16.7A17.15 17.15 0 0 0 9.93 4l2.31 2.76a13.55 13.55 0 0 1 22.25 9.94h-3.73l5.54 7.74 5.55-7.74z" opacity=".995"/><path d="M20.91 26.38a9.22 9.22 0 0 0 5.92-2.16l-2.31-2.75a5.62 5.62 0 0 1-9.23-4.31h-3.6a9.24 9.24 0 0 0 9.22 9.22zm.02-14.84a5.62 5.62 0 0 1 5.62 5.62h3.6A9.22 9.22 0 0 0 15 10.09l2.32 2.76a5.6 5.6 0 0 1 3.61-1.31z" opacity=".995"/></g></g></svg>